<?xml version="1.0" encoding="utf-8"?>
<!-- Generator: Adobe Illustrator 26.0.2, SVG Export Plug-In . SVG Version: 6.00 Build 0)  -->
<svg version="1.1" id="Layer_1" xmlns:lucid="lucid"
	 xmlns="http://www.w3.org/2000/svg" xmlns:xlink="http://www.w3.org/1999/xlink" x="0px" y="0px" viewBox="0 0 1760 1360"
	 style="enable-background:new 0 0 1760 1360;" xml:space="preserve">
<style type="text/css">
	.st0{fill:#6F7681;stroke:#000000;stroke-opacity:0;}
	.st1{fill:#FFFFFF;stroke:#282C33;stroke-width:4;}
	.st2{fill:#6F7681;stroke:#FFFFFF;}
	.st3{fill:#CCCCCC;stroke:#000000;stroke-width:2;stroke-opacity:0;}
	.st4{fill:#7AB648;}
	.st5{fill:#C92D39;}
	.st6{stroke:#000000;stroke-opacity:0;}
	.st7{fill:none;stroke:#333333;}
	.st8{fill:#333333;}
	.st9{fill:#333333;stroke:#333333;}
	.st10{fill:none;stroke:#000000;stroke-miterlimit:10;stroke-opacity:0;}
	.st11{fill:none;stroke:#A9AFB8;stroke-width:2;}
	.st12{fill:#FFFFFF;fill-opacity:0;stroke:#000000;stroke-width:2;stroke-opacity:0;}
	.st13{fill:#FFFFFF;stroke:#5E5E5E;stroke-width:4;}
	.st14{fill:#83BBE5;stroke:#000000;stroke-opacity:0;}
	.st15{fill:none;stroke:#333333;stroke-width:3.066;}
	.st16{fill:none;stroke:#333333;stroke-miterlimit:10;}
	.st17{fill:#FFFFFF;}
	.st18{fill:none;stroke:#333333;stroke-width:0.982;}
	.st19{fill:#A9AFB8;}
</style>
<g transform="translate(0 0)" lucid:page-tab-id="0_0">
	
		<image style="overflow:visible;" width="2268" height="4032" xlink:href="../../../../Users/omargreene/Downloads/IMG_2278.jpg"  transform="matrix(-2.283618e-08 -0.1398 0.1398 -2.283618e-08 117.7317 423.3222)">
	</image>
	<path class="st0" d="M891,183c11.5,0,20.8,10.7,20.8,23.9s-9.3,23.9-20.8,23.9h-62.5c-11.5,0-20.8-10.7-20.8-23.9
		s9.3-23.9,20.8-23.9H891z"/>
	<path class="st1" d="M957.6,885.1c3.5-2.6,9.3-2.6,12.8,0l36.3,27.2c3.5,2.7,3.5,6.9,0,9.6l-36.3,27.2c-3.5,2.7-9.3,2.7-12.8,0
		l-36.3-27.2c-3.5-2.7-3.5-7,0-9.6L957.6,885.1z"/>
	<path class="st2" d="M1120.2,735.2c0-4.4,3.6-8,8-8h72.3c4.4,0,8,3.6,8,8v54.6c-14.8-10.5-23.9-10.5-29.5-10.5
		c-8.8,0-20.6,10.5-29.4,10.5c-5.5,0-14.8,0-29.4-10.5L1120.2,735.2z"/>
	<path class="st2" d="M1125.1,740.8c0-4.4,3.6-8,8-8h72.3c4.4,0,8,3.6,8,8v54.6c-14.8-10.4-23.9-10.4-29.5-10.4
		c-8.8,0-20.6,10.5-29.4,10.5c-5.5,0-14.8,0-29.4-10.4L1125.1,740.8z"/>
	<path class="st2" d="M1130,746.3c0-4.4,3.6-8,8-8h72.3c4.4,0,8,3.6,8,8v54.6c-14.7-10.5-23.9-10.5-29.5-10.5
		c-8.8,0-20.6,10.5-29.4,10.5c-5.5,0-14.8,0-29.4-10.5V746.3z"/>
	<path class="st3" d="M807.6,281.6c0-4.4,3.6-8,8-8h88.2c4.4,0,8,3.6,8,8v62.2c0,4.4-3.6,8-8,8h-88.2c-4.4,0-8-3.6-8-8V281.6z"/>
	<path class="st4" d="M1066.4,905.2l-0.4,3.3l-1.3,3.1l-2.1,2.7l-2.7,2.1l-3.1,1.3l-3.3,0.4h-41.3v-2h41.2l2.9-0.4l2.6-1.1l2.3-1.8
		l1.8-2.3l1.1-2.6l0.4-2.9v-8.1h2 M1101.2,765h-23.7l-2.9,0.4l-2.6,1.1l-2.3,1.8l-1.7,2.3l-1.1,2.6l-0.4,2.9v102.2h-2V776l0.4-3.3
		l1.3-3.1l2.1-2.7l2.7-2.1l3.1-1.3l3.3-0.4h23.8"/>
	<path class="st4" d="M1012.2,918.1h-1.1l0.1-2h1 M1116.4,764l-14.3,4.6v-9.3L1116.4,764z"/>
	<path class="st4" d="M1119.7,764l-18.5,6v-12 M1103.2,767.3l10-3.3l-10-3.2"/>
	<path class="st5" d="M965,995.4h-2v-15.8h2 M965,960.9h-2V954h2"/>
	<path class="st5" d="M965,953v1h-2v-1 M964,1010.6l-4.6-14.3h9.3L964,1010.6z"/>
	<path class="st5" d="M964,1013.9l-6-18.5h12 M960.7,997.4l3.3,10l3.3-10"/>
	<path class="st6" d="M993.4,1013.9c10.8,0,19.6,11,19.6,24.5c0,13.6-8.8,24.5-19.6,24.5h-58.9c-10.8,0-19.6-11-19.6-24.5
		c0-13.5,8.8-24.5,19.6-24.5L993.4,1013.9z"/>
	<path class="st7" d="M859.7,352.3v16.8"/>
	<path class="st8" d="M860.2,352.3h-1v-0.5h1"/>
	<path class="st9" d="M859.7,383.8l-4.6-14.3h9.3L859.7,383.8z"/>
	<path class="st10" d="M431.4,75.6c0-4.4,3.6-8,8-8h836.8c4.4,0,8,3.6,8,8v25.2c0,4.4-3.6,8-8,8H439.4c-4.4,0-8-3.6-8-8V75.6z"/>
	<path class="st11" d="M687.7,107.4h347.9 M687.8,107.4h-1 M1035.6,107.4h1"/>
	<path class="st12" d="M430.5,115.7c0-4.4,3.6-8,8-8h837.7c4.4,0,8,3.6,8,8v2.8c0,4.4-3.6,8-8,8H438.5c-4.4,0-8-3.6-8-8L430.5,115.7
		z"/>
	<path class="st3" d="M1218.3,888.3c0-4.4,3.6-8,8-8h82.1c4.4,0,8,3.6,8,8v57.6c0,4.4-3.6,8-8,8h-82.1c-4.4,0-8-3.6-8-8V888.3z"/>
	<path class="st1" d="M541.7,688.6c3.5-2.7,9.3-2.7,12.8,0l36.3,27.2c3.5,2.6,3.5,6.9,0,9.6l-36.3,27.2c-3.5,2.6-9.3,2.6-12.8,0
		l-36.3-27.2c-3.5-2.7-3.5-7,0-9.6L541.7,688.6z"/>
	<path class="st2" d="M498.3,845c0-4.4,3.6-8,8-8h72.3c4.4,0,8,3.6,8,8v54.6c-14.7-10.5-23.9-10.5-29.5-10.5
		c-8.8,0-20.6,10.5-29.4,10.5c-5.5,0-14.8,0-29.4-10.5L498.3,845z"/>
	<path class="st2" d="M503.2,850.5c0-4.4,3.6-8,8-8h72.3c4.4,0,8,3.6,8,8v54.6c-14.8-10.5-23.9-10.5-29.5-10.5
		c-8.8,0-20.6,10.5-29.4,10.5c-5.5,0-14.8,0-29.4-10.5V850.5z"/>
	<path class="st2" d="M508.1,856.1c0-4.4,3.6-8,8-8h72.3c4.4,0,8,3.6,8,8v54.6c-14.8-10.5-23.9-10.5-29.5-10.5
		c-8.8,0-20.6,10.5-29.4,10.5c-5.5,0-14.8,0-29.4-10.5V856.1z"/>
	<path class="st4" d="M549.1,796.3l-0.3,0.8l-0.4,0.2V818h-2v-21.3l0.3-0.8l0.4-0.2v-3.6h2 M549.1,770.5h-2v-13h2"/>
	<path class="st4" d="M549.1,756.5v1h-2v-1 M547.4,833.3l-4.6-14.3h9.3L547.4,833.3z"/>
	<path class="st4" d="M547.4,836.5l-6-18.5h12 M544.1,820l3.3,10l3.3-10"/>
	<path class="st3" d="M498.3,966.3c0-4.4,3.6-8,8-8h82.1c4.4,0,8,3.6,8,8v57.6c0,4.4-3.6,8-8,8h-82.1c-4.4,0-8-3.6-8-8V966.3z"/>
	<path class="st7" d="M547.4,908.2v33.7"/>
	<path class="st8" d="M547.9,908.2h-1v-0.3l1-0.4"/>
	<path class="st9" d="M547.4,956.7l-4.6-14.3h9.3L547.4,956.7z"/>
	<path class="st7" d="M859.7,231.2v26"/>
	<path class="st8" d="M860.2,231.3h-1v-0.5h1"/>
	<path class="st9" d="M859.7,272l-4.6-14.3h9.3L859.7,272z"/>
	<path class="st13" d="M853.3,389.3c3.5-2.6,9.3-2.6,12.8,0l39.3,29.5c3.5,2.7,3.5,7,0,9.6l-39.3,29.5c-3.5,2.6-9.3,2.6-12.8,0
		L814,428.4c-3.5-2.6-3.5-6.9,0-9.6L853.3,389.3z"/>
	<path class="st14" d="M587.3,586c14.7,0,26.6,14.9,26.6,33.2s-11.9,33.3-26.6,33.3h-79.8c-14.7,0-26.6-14.9-26.6-33.2
		s11.9-33.3,26.6-33.3H587.3z"/>
	<path class="st4" d="M565.9,514.4h-6.5l-2.9,0.4l-2.7,1.1l-2.3,1.8l-1.8,2.3l-1.1,2.6l-0.4,2.9v42h-2v-42.2l0.4-3.3l1.3-3.1
		l2.1-2.7l2.7-2.1l3.1-1.3l3.3-0.4h6.6 M860.2,514.4h-265v-2h265"/>
	<path class="st4" d="M861.2,514.4h-1v-2h1 M547.4,582.8l-4.6-14.3h9.3L547.4,582.8z"/>
	<path class="st4" d="M547.4,586l-6-18.5h12 M544.1,569.5l3.3,10l3.3-10"/>
	<path class="st4" d="M748.8,565.5h-2v-17.7h2 M748.8,526.2h-2v-11.8h2"/>
	<path class="st4" d="M748.8,514.4h-2v-1h2 M747.8,580.8l-4.6-14.3h9.3L747.8,580.8z"/>
	<path class="st4" d="M747.8,584l-6-18.5h12 M744.5,567.5l3.3,10l3.3-10"/>
	<path class="st14" d="M787.7,584c14.7,0,26.6,14.9,26.6,33.3c0,18.4-11.9,33.3-26.6,33.3h-79.8c-14.7,0-26.6-14.9-26.6-33.3
		s11.9-33.3,26.6-33.3H787.7z"/>
	<path class="st8" d="M861.2,497l-1,0l-0.1-2.1h1 M860.5,473.3h-1l-0.3-11l1,0"/>
	<path class="st8" d="M860.2,461.8v0.5l-1,0l0-0.5 M861.2,511.8l-5-14.1l9.3-0.3L861.2,511.8z"/>
	<path class="st8" d="M861.2,513.4l-5.8-16.2l10.7-0.3 M856.8,498.1l4.3,12l3.6-12.3"/>
	<path class="st4" d="M1160.6,512.8l3.1,1.3l2.7,2.1l2.1,2.7l1.3,3.1l0.4,3.3v39.8h-2v-39.6l-0.4-2.9l-1.1-2.6l-1.8-2.3l-2.3-1.7
		l-2.6-1.1l-2.9-0.4h-2.8v-2h2.9 M862.2,514.4v-2H1125v2"/>
	<path class="st4" d="M862.2,514.4h-1v-2h1 M1169.2,580.3l-4.6-14.3h9.3L1169.2,580.3z"/>
	<path class="st4" d="M1169.2,583.6l-6-18.5h12 M1166,567.1l3.3,10l3.3-10"/>
	<path class="st4" d="M965,565.1h-2v-17.3h2 M965,526.1h-2v-11.8h2"/>
	<path class="st4" d="M815.2,723.1l-1-2h84.3l3,2"/>
	<path class="st4" d="M965,514.4h-2v-1h2 M964,580.3l-4.6-14.3h9.3L964,580.3z"/>
	<path class="st4" d="M964,583.6l-6-18.5h12 M960.7,567.1l3.3,10l3.3-10"/>
	<path class="st14" d="M1003.9,583.6c14.7,0,26.6,14.9,26.6,33.3c0,18.4-11.9,33.3-26.6,33.3H924c-14.7,0-26.6-14.9-26.6-33.3
		s11.9-33.3,26.6-33.3L1003.9,583.6z"/>
	<path class="st14" d="M1209.2,583.6c14.7,0,26.6,14.9,26.6,33.3c0,18.4-11.9,33.3-26.6,33.3h-79.8c-14.7,0-26.6-14.9-26.6-33.3
		s11.9-33.3,26.6-33.3L1209.2,583.6z"/>
	<path class="st1" d="M1398.9,383.1c14.7,0,26.6,11.3,26.6,25.1c0,13.9-11.9,25.1-26.6,25.1h-79.8c-14.7,0-26.6-11.3-26.6-25.1
		c0-13.9,11.9-25.1,26.6-25.1L1398.9,383.1z"/>
	<path class="st15" d="M345.9,120.8c11.3,0,20.4,8.6,20.4,19.3c0,10.6-9.1,19.3-20.4,19.3h-61.2c-11.3,0-20.4-8.6-20.4-19.3
		c0-10.6,9.1-19.3,20.4-19.3L345.9,120.8z"/>
	<path class="st4" d="M749.8,818h-2v-27h2 M749.8,769.4h-2v-11.9h2"/>
	<path class="st4" d="M749.8,756.5v1h-2v-1 M748.8,833.3l-4.6-14.3h9.3L748.8,833.3z"/>
	<path class="st4" d="M748.8,836.5l-6-18.5h12 M745.5,820l3.3,10l3.3-10"/>
	<path class="st7" d="M748.8,908.2v33.7"/>
	<path class="st8" d="M749.3,908.2h-1v-0.3l1-0.4"/>
	<path class="st9" d="M748.8,956.7l-4.6-14.3h9.3L748.8,956.7z"/>
	<path class="st1" d="M742.4,688.6c3.5-2.7,9.3-2.7,12.8,0l36.3,27.2c3.5,2.6,3.5,6.9,0,9.6l-36.3,27.2c-3.5,2.6-9.3,2.6-12.8,0
		l-36.3-27.2c-3.5-2.7-3.5-7,0-9.6L742.4,688.6z"/>
	<path class="st2" d="M699.7,845c0-4.4,3.6-8,8-8H780c4.4,0,8,3.6,8,8v54.6c-14.8-10.5-23.9-10.5-29.5-10.5
		c-8.8,0-20.6,10.5-29.4,10.5c-5.5,0-14.8,0-29.4-10.5V845z"/>
	<path class="st2" d="M704.6,850.5c0-4.4,3.6-8,8-8h72.3c4.4,0,8,3.6,8,8v54.6c-14.8-10.5-23.9-10.5-29.5-10.5
		c-8.8,0-20.6,10.5-29.4,10.5c-5.5,0-14.8,0-29.4-10.5L704.6,850.5z"/>
	<path class="st2" d="M709.5,856.1c0-4.4,3.6-8,8-8h72.3c4.4,0,8,3.6,8,8v54.6c-14.8-10.5-23.9-10.5-29.5-10.5
		c-8.8,0-20.6,10.5-29.4,10.5c-5.5,0-14.8,0-29.4-10.5L709.5,856.1z"/>
	<path class="st3" d="M699.7,966.3c0-4.4,3.6-8,8-8h82.1c4.4,0,8,3.6,8,8v57.6c0,4.4-3.6,8-8,8h-82.1c-4.4,0-8-3.6-8-8V966.3z"/>
	<g transform="matrix(1,0,0,1,733.400827499589,973.2901611154371) translate(5.024999999999999 28.6)">
	</g>
	<path class="st7" d="M547.4,653v15.3"/>
	<path class="st8" d="M547.9,653h-1v-0.5h1"/>
	<path class="st9" d="M547.4,683.1l-4.6-14.3h9.3L547.4,683.1z"/>
	<path class="st7" d="M747.8,651v17.3"/>
	<path class="st8" d="M748.3,651.1h-1v-0.5h1"/>
	<path class="st9" d="M747.8,683.1l-4.6-14.3h9.3L747.8,683.1z"/>
	<path class="st7" d="M1169.2,650.6v37.6c0,0.1,0.1,0.2,0.2,0.2c0.1,0,0.2,0.1,0.2,0.2v21.8"/>
	<path class="st8" d="M1169.7,650.6h-1v-0.5h1"/>
	<path class="st9" d="M1169.6,725.1l-4.6-14.3h9.3L1169.6,725.1z"/>
	<path class="st7" d="M964,755v12.2"/>
	<path class="st8" d="M964.5,755h-1v-0.3l1-0.4"/>
	<path class="st9" d="M964,782l-4.6-14.3h9.3L964,782z"/>
	<path class="st2" d="M914.9,691.8c0-4.4,3.6-8,8-8h72.3c4.4,0,8,3.6,8,8v54.5c-14.8-10.5-23.9-10.5-29.5-10.5
		c-8.8,0-20.6,10.5-29.4,10.5c-5.5,0-14.8,0-29.4-10.5L914.9,691.8z"/>
	<path class="st2" d="M919.8,697.3c0-4.4,3.6-8,8-8h72.3c4.4,0,8,3.6,8,8v54.6c-14.8-10.5-23.9-10.5-29.5-10.5
		c-8.8,0-20.6,10.5-29.4,10.5c-5.5,0-14.8,0-29.4-10.5L919.8,697.3z"/>
	<path class="st2" d="M924.7,702.8c0-4.4,3.6-8,8-8h72.3c4.4,0,8,3.6,8,8v54.6c-14.8-10.5-23.9-10.5-29.5-10.5
		c-8.8,0-20.6,10.5-29.4,10.5c-5.5,0-14.8,0-29.4-10.5L924.7,702.8z"/>
	<path class="st3" d="M914.9,791.6c0-4.4,3.6-8,8-8h82.1c4.4,0,8,3.6,8,8v57.6c0,4.4-3.6,8-8,8h-82.1c-4.4,0-8-3.6-8-8V791.6z"/>
	<path class="st7" d="M964,650.6v16.3"/>
	<path class="st8" d="M964.5,650.6h-1v-0.5h1"/>
	<path class="st9" d="M964,681.7l-4.6-14.3h9.3L964,681.7z"/>
	<path class="st7" d="M1359.2,435.5l-106.1,115.8"/>
	<path class="st9" d="M1243.2,562.3l6.1-13.7l6.9,6.2L1243.2,562.3z"/>
	<g>
		<path class="st9" d="M404.9,284.8l140.2,214.3"/>
		<path class="st9" d="M553.5,511.3l-11.9-9.2l7.7-5.2L553.5,511.3z"/>
	</g>
	<path class="st7" d="M964,857.7v7.2"/>
	<path class="st8" d="M964.5,857.7h-1v-0.5h1"/>
	<path class="st9" d="M964,879.6l-4.6-14.3h9.3L964,879.6z"/>
	<path class="st7" d="M1169.2,798.4v28.7c0,6.6,5.4,12,12,12h74.1c6.6,0,12,5.4,12,12v12.8"/>
	<path class="st8" d="M1169.7,798.5h-1v-0.3l1-0.4"/>
	<path class="st9" d="M1267.4,878.7l-4.6-14.3h9.3L1267.4,878.7z"/>
	<path class="st8" d="M1267.9,1115l-0.4,3.2l-1.2,3l-2,2.6l-2.6,2l-3,1.2l-3.2,0.4H470.3l-3.2-0.4l-3-1.2l-2.6-2l-2-2.6l-1.2-3
		l-0.4-3.2v-108l0.4-3.2l1.2-3l2-2.6l2.6-2l3-1.2l3.2-0.4h27.5v1h-27.5l-3,0.4l-2.8,1.1l-2.4,1.8l-1.8,2.4l-1.1,2.8l-0.4,3V1115
		l0.4,3l1.1,2.8l1.8,2.4l2.4,1.8l2.8,1.1l3,0.4h785l3-0.4l2.8-1.1l2.4-1.8l1.8-2.4l1.1-2.8l0.4-3V970.3h1"/>
	<path class="st8" d="M498.3,995.6h-0.5v-1h0.5 M1272,969.8h-9.3l4.6-14.3L1272,969.8z"/>
	<path class="st8" d="M1272.7,970.3H1262l5.3-16.4 M1263.4,969.3h7.9l-3.9-12.2"/>
	<path class="st16" d="M1266.9,970.3c0,0,1.8,66.4-1,89.5c-2.7,21.8-18.2,19.8-18.2,19.8h-567l-2.2-0.3l-2-0.8l-1.8-1.2l-1.4-1.6
		l-0.8-1.8l-0.3-1.9v-65.6l0.3-1.9l0.8-1.8l1.4-1.6l1.8-1.2l2-0.8l2.2-0.2h18.7v0.6h-18.6l-2,0.2l-1.9,0.7l-1.6,1.1l-1.2,1.5
		l-0.8,1.7l-0.3,1.8v65.5l0.3,1.8l0.8,1.7l1.2,1.5l1.6,1.1l1.9,0.7l2,0.2"/>
	<g>
		<g>
			<path class="st17" d="M955.9,711.8c-0.5,2.3-2.2,4-5.4,4c-3.9,0-5.8-2.8-5.8-6.3c0-3.4,1.9-6.5,5.9-6.5c3.3,0,4.9,1.9,5.2,4h-2.7
				c-0.3-1-0.9-1.9-2.6-1.9c-2.2,0-3.1,2-3.1,4.2c0,2.1,0.7,4.3,3.1,4.3c1.8,0,2.3-1.2,2.5-1.9H955.9z"/>
			<path class="st17" d="M965.6,713.3c0,0.9,0.1,2.2,0.1,2.4h-2.5c-0.1-0.2-0.1-0.7-0.1-0.9c-0.3,0.5-1,1.1-2.6,1.1
				c-2.2,0-3.2-1.5-3.2-2.9c0-2.1,1.7-3.1,4.4-3.1c0.5,0,1,0,1.3,0v-0.6c0-0.7-0.2-1.3-1.4-1.3c-1.1,0-1.3,0.5-1.4,1.1h-2.5
				c0.1-1.7,1.2-3,4-3c2.5,0,3.9,1,3.9,3.2V713.3z M963.1,711.4c-0.2,0-0.7,0-1.1,0c-1.6,0-2.1,0.5-2.1,1.4c0,0.7,0.4,1.2,1.3,1.2
				c1.6,0,1.8-1.1,1.8-2.4V711.4z"/>
			<path class="st17" d="M967.9,708.9c0-0.9,0-1.7,0-2.5h2.5c0,0.2,0.1,1.1,0.1,1.6c0.4-1.1,1.4-1.8,3-1.9v2.5c-1.9,0-3,0.5-3,3v4.1
				h-2.6V708.9z"/>
			<path class="st17" d="M983.6,702.5v10.6c0,0.8,0,1.7,0,2.6h-2.5c-0.1-0.3-0.1-0.8-0.1-1c-0.5,0.7-1.3,1.2-2.6,1.2
				c-2.4,0-3.9-1.9-3.9-4.8c0-2.9,1.6-5,4.2-5c1.3,0,2.1,0.5,2.3,0.9v-4.5H983.6z M977.1,711c0,1.8,0.7,2.8,2,2.8c1.8,0,2-1.5,2-2.8
				c0-1.6-0.2-2.8-1.9-2.8C977.8,708.2,977.1,709.3,977.1,711z"/>
			<path class="st17" d="M935.7,733.6c0.3,1.2,1.2,1.8,2.6,1.8c1.4,0,2-0.6,2-1.5c0-1-0.6-1.4-2.7-1.9c-3.4-0.8-4.2-2-4.2-3.7
				c0-2.2,1.6-3.6,4.6-3.6c3.3,0,4.6,1.8,4.8,3.6h-2.7c-0.1-0.8-0.6-1.6-2.2-1.6c-1.1,0-1.7,0.5-1.7,1.3c0,0.9,0.5,1.2,2.5,1.7
				c3.6,0.9,4.4,2.2,4.4,3.9c0,2.3-1.7,3.8-5,3.8c-3.2,0-4.8-1.6-5.1-3.8H935.7z"/>
			<path class="st17" d="M947.1,733.2c0,1.2,0.6,2.3,1.9,2.3c1.1,0,1.4-0.4,1.6-1h2.6c-0.3,1.1-1.3,3-4.3,3c-3.1,0-4.4-2.3-4.4-4.7
				c0-2.9,1.5-5,4.5-5c3.2,0,4.3,2.3,4.3,4.6c0,0.3,0,0.5,0,0.8H947.1z M950.7,731.6c0-1.1-0.5-2-1.7-2c-1.2,0-1.7,0.9-1.8,2H950.7z
				"/>
			<path class="st17" d="M955,730.5c0-0.9,0-1.7,0-2.5h2.5c0,0.2,0.1,1.1,0.1,1.6c0.4-1.1,1.4-1.8,3-1.9v2.5c-1.9,0-3,0.5-3,3v4.1
				H955V730.5z"/>
			<path class="st17" d="M963.8,728c0.9,3.2,1.6,5.9,1.8,7h0c0.3-1.5,1.2-4.3,2-7h2.6l-3.3,9.3h-2.7l-3.2-9.3H963.8z"/>
			<path class="st17" d="M971.5,724.1h2.6v2.3h-2.6V724.1z M971.5,728h2.6v9.3h-2.6V728z"/>
			<path class="st17" d="M984.5,734.3c-0.3,1.6-1.4,3.2-4.2,3.2c-2.9,0-4.4-2-4.4-4.8c0-2.8,1.7-4.9,4.5-4.9c3.1,0,4,2.3,4.1,3.3
				H982c-0.2-0.8-0.6-1.3-1.6-1.3c-1.2,0-1.8,1-1.8,2.8c0,2,0.7,2.9,1.8,2.9c0.9,0,1.4-0.5,1.6-1.2H984.5z"/>
			<path class="st17" d="M988.2,733.2c0,1.2,0.6,2.3,1.9,2.3c1.1,0,1.4-0.4,1.6-1h2.6c-0.3,1.1-1.3,3-4.3,3c-3.1,0-4.4-2.3-4.4-4.7
				c0-2.9,1.5-5,4.5-5c3.2,0,4.3,2.3,4.3,4.6c0,0.3,0,0.5,0,0.8H988.2z M991.8,731.6c0-1.1-0.5-2-1.7-2c-1.2,0-1.7,0.9-1.8,2H991.8z
				"/>
			<path class="st17" d="M998,734.5c0.2,0.7,0.8,1.2,1.8,1.2c1,0,1.3-0.3,1.3-0.9c0-0.6-0.4-0.8-1.7-1.2c-3-0.7-3.5-1.7-3.5-3
				c0-1.4,1-2.8,3.8-2.8c2.8,0,3.8,1.5,3.9,2.8h-2.5c-0.1-0.3-0.3-1-1.5-1c-0.9,0-1.1,0.4-1.1,0.8c0,0.5,0.3,0.7,1.8,1
				c3.1,0.7,3.5,1.8,3.5,3.2c0,1.5-1.2,2.9-4,2.9c-2.8,0-4-1.4-4.2-3H998z"/>
		</g>
	</g>
	<g>
		<g>
			<path class="st17" d="M940.2,1027.9v5h-2.6v-12.4h5.5c2.7,0,4.2,1.5,4.2,3.4c0,1.7-0.9,2.6-1.8,2.9c0.6,0.2,1.5,0.9,1.5,3.1v0.6
				c0,0.8,0,1.8,0.2,2.4h-2.5c-0.2-0.5-0.3-1.5-0.3-2.8v-0.2c0-1.4-0.3-2-2.3-2H940.2z M940.2,1025.8h2.2c1.5,0,2-0.6,2-1.6
				c0-1-0.7-1.6-2-1.6h-2.3V1025.8z"/>
			<path class="st17" d="M951.3,1028.8c0,1.2,0.6,2.3,1.9,2.3c1.1,0,1.4-0.4,1.6-1h2.6c-0.3,1.1-1.3,3-4.3,3c-3.1,0-4.4-2.3-4.4-4.7
				c0-2.9,1.5-5,4.5-5c3.2,0,4.3,2.3,4.3,4.6c0,0.3,0,0.5,0,0.8H951.3z M954.9,1027.2c0-1.1-0.5-2-1.7-2c-1.2,0-1.7,0.9-1.8,2H954.9
				z"/>
			<path class="st17" d="M958.3,1023.6h1.4v-2.5h2.6v2.5h1.8v1.9h-1.8v4.6c0,0.7,0.2,1,1,1c0.1,0,0.4,0,0.6,0v1.8
				c-0.5,0.2-1.2,0.2-1.7,0.2c-1.8,0-2.4-1-2.4-2.6v-4.9h-1.4V1023.6z"/>
			<path class="st17" d="M974,1030.2c0,0.9,0,1.9,0,2.7h-2.5c0-0.2-0.1-0.7-0.1-1.1c-0.6,0.9-1.4,1.3-2.6,1.3
				c-1.9,0-3.1-1.2-3.1-3.5v-6.1h2.6v5.6c0,1,0.3,1.9,1.4,1.9c1.2,0,1.7-0.6,1.7-2.5v-5h2.6V1030.2z"/>
			<path class="st17" d="M976.3,1026.1c0-0.9,0-1.7,0-2.5h2.5c0,0.2,0.1,1.1,0.1,1.6c0.4-1.1,1.4-1.8,3-1.9v2.5c-1.9,0-3,0.5-3,3
				v4.1h-2.6V1026.1z"/>
			<path class="st17" d="M983.4,1025.9c0-0.8,0-1.7,0-2.3h2.5c0.1,0.2,0.1,0.9,0.1,1.2c0.3-0.6,1.1-1.4,2.7-1.4
				c1.9,0,3.1,1.3,3.1,3.6v5.9h-2.6v-5.6c0-1-0.3-1.8-1.5-1.8c-1.1,0-1.7,0.6-1.7,2.3v5.2h-2.6V1025.9z"/>
			<path class="st17" d="M939.2,1042.1h2.7v4.8h5v-4.8h2.7v12.4h-2.7v-5.4h-5v5.4h-2.7V1042.1z"/>
			<path class="st17" d="M960.9,1049.8c0,2.8-1.7,4.9-4.6,4.9c-2.9,0-4.6-2.1-4.6-4.8c0-2.9,1.7-4.9,4.7-4.9
				C959.1,1045,960.9,1046.9,960.9,1049.8z M954.3,1049.8c0,1.8,0.8,2.9,2,2.9c1.3,0,2-1.1,2-2.8c0-2-0.7-2.9-2-2.9
				C955.1,1047,954.3,1047.9,954.3,1049.8z"/>
			<path class="st17" d="M962.7,1047.6c0-0.8,0-1.6,0-2.4h2.5c0,0.2,0.1,0.7,0.1,1.1c0.5-0.7,1.2-1.3,2.6-1.3c1.3,0,2.1,0.7,2.4,1.4
				c0.5-0.8,1.3-1.4,2.9-1.4c1.6,0,3,1,3,3.4v6.1h-2.5v-5.8c0-0.8-0.3-1.7-1.4-1.7c-1.1,0-1.5,0.7-1.5,2.1v5.3h-2.5v-5.7
				c0-1-0.2-1.7-1.3-1.7c-1,0-1.5,0.6-1.5,2.2v5.2h-2.5V1047.6z"/>
			<path class="st17" d="M980.4,1050.4c0,1.2,0.6,2.3,1.9,2.3c1.1,0,1.4-0.4,1.6-1h2.6c-0.3,1.1-1.3,3-4.3,3c-3.1,0-4.4-2.3-4.4-4.7
				c0-2.9,1.5-5,4.5-5c3.2,0,4.3,2.3,4.3,4.6c0,0.3,0,0.5,0,0.8H980.4z M984,1048.8c0-1.1-0.5-2-1.7-2c-1.2,0-1.7,0.9-1.8,2H984z"/>
		</g>
	</g>
	<g>
		<g>
			<path class="st17" d="M735.7,985.4c-0.5,2.3-2.2,4-5.4,4c-3.9,0-5.8-2.8-5.8-6.3c0-3.4,1.9-6.5,5.9-6.5c3.3,0,4.9,1.9,5.2,4H733
				c-0.3-1-0.9-1.9-2.6-1.9c-2.2,0-3.1,2-3.1,4.2c0,2.1,0.7,4.3,3.1,4.3c1.8,0,2.3-1.2,2.5-1.9H735.7z"/>
			<path class="st17" d="M740.3,976.1v4.9c0.4-0.6,1.2-1.3,2.7-1.3c1.7,0,3.1,1,3.1,3.6v6h-2.6v-5.6c0-1.2-0.4-1.9-1.5-1.9
				c-1.4,0-1.7,1.1-1.7,2.5v4.9h-2.6v-13.1H740.3z"/>
			<path class="st17" d="M750.4,985.1c0,1.2,0.6,2.3,1.9,2.3c1.1,0,1.4-0.4,1.6-1h2.6c-0.3,1.1-1.3,3-4.3,3c-3.1,0-4.4-2.3-4.4-4.7
				c0-2.9,1.5-5,4.5-5c3.2,0,4.3,2.3,4.3,4.6c0,0.3,0,0.5,0,0.8H750.4z M754,983.5c0-1.1-0.5-2-1.7-2c-1.2,0-1.7,0.9-1.8,2H754z"/>
			<path class="st17" d="M766.5,986.2c-0.3,1.6-1.4,3.2-4.2,3.2c-2.9,0-4.4-2-4.4-4.8c0-2.8,1.7-4.9,4.5-4.9c3.1,0,4,2.3,4.1,3.3
				h-2.5c-0.2-0.8-0.6-1.3-1.6-1.3c-1.2,0-1.8,1-1.8,2.8c0,2,0.7,2.9,1.8,2.9c0.9,0,1.4-0.5,1.6-1.2H766.5z"/>
			<path class="st17" d="M770.7,983.8c0.7-0.9,1.9-2.4,3.2-3.9h3l-3.2,3.5l3.6,5.8h-2.9l-2.4-4.1l-1.2,1.2v3h-2.6v-13.1h2.6V983.8z"
				/>
			<path class="st17" d="M745.9,1004.6c0,3.5-2.1,6.4-6.1,6.4c-3.9,0-5.9-2.8-5.9-6.4c0-3.6,2.3-6.4,6.1-6.4
				C743.6,998.2,745.9,1000.8,745.9,1004.6z M736.6,1004.5c0,2.4,1.1,4.3,3.3,4.3c2.4,0,3.2-2,3.2-4.2c0-2.3-1-4.2-3.3-4.2
				C737.6,1000.4,736.6,1002.1,736.6,1004.5z"/>
			<path class="st17" d="M756.1,1008.1c0,0.9,0,1.9,0,2.7h-2.5c0-0.2-0.1-0.7-0.1-1.1c-0.6,0.9-1.4,1.3-2.6,1.3
				c-1.9,0-3.1-1.2-3.1-3.5v-6.1h2.6v5.6c0,1,0.3,1.9,1.4,1.9c1.2,0,1.7-0.6,1.7-2.5v-5h2.6V1008.1z"/>
			<path class="st17" d="M757.5,1001.5h1.4V999h2.6v2.5h1.8v1.9h-1.8v4.6c0,0.7,0.2,1,1,1c0.1,0,0.4,0,0.6,0v1.8
				c-0.5,0.2-1.2,0.2-1.7,0.2c-1.8,0-2.4-1-2.4-2.6v-4.9h-1.4V1001.5z"/>
		</g>
	</g>
	<g>
		<g>
			<path d="M1316.3,414.7v-12.4h3.3c1.6,2.8,4.4,7.8,5,9.2h0c-0.1-1.3-0.1-3.5-0.1-5.5v-3.7h2.4v12.4h-3.2c-1.3-2.4-4.5-8.2-5.1-9.6
				h0c0.1,1.1,0.1,3.6,0.1,5.9v3.8H1316.3z"/>
			<path d="M1337.3,412.3c0,0.9,0.1,2.2,0.1,2.4h-2.5c-0.1-0.2-0.1-0.7-0.1-0.9c-0.3,0.5-1,1.1-2.6,1.1c-2.2,0-3.2-1.5-3.2-2.9
				c0-2.1,1.7-3.1,4.4-3.1c0.5,0,1,0,1.3,0v-0.6c0-0.7-0.2-1.3-1.4-1.3c-1.1,0-1.3,0.5-1.4,1.1h-2.5c0.1-1.7,1.2-3,4-3
				c2.5,0,3.9,1,3.9,3.2V412.3z M1334.8,410.5c-0.2,0-0.7,0-1.1,0c-1.6,0-2.1,0.5-2.1,1.4c0,0.7,0.4,1.2,1.3,1.2
				c1.6,0,1.8-1.1,1.8-2.4V410.5z"/>
			<path d="M1341.4,405.4c0.9,3.2,1.6,5.9,1.8,7h0c0.3-1.5,1.2-4.3,2-7h2.6l-3.3,9.3h-2.7l-3.2-9.3H1341.4z"/>
			<path d="M1349,401.6h2.6v2.3h-2.6V401.6z M1349,405.4h2.6v9.3h-2.6V405.4z"/>
			<path d="M1362.4,413.6c0,3-1.1,4.9-4.6,4.9c-3.4,0-4.1-1.9-4.2-3h2.6c0.2,0.6,0.7,1.1,1.6,1.1c1.7,0,2-1,2-2.8v-0.4
				c-0.5,0.8-1.3,1.3-2.6,1.3c-2.5,0-3.9-2-3.9-4.5c0-2.9,1.7-4.9,4.1-4.9c1.6,0,2.3,0.8,2.4,1.2c0-0.3,0.1-0.8,0.1-1h2.4
				c0,0.8,0,1.8,0,2.7V413.6z M1356,410c0,1.6,0.8,2.5,1.9,2.5c1.6,0,2-1.1,2-2.6c0-1.6-0.3-2.6-1.9-2.6
				C1356.9,407.2,1356,408.1,1356,410z"/>
			<path d="M1372.4,412.3c0,0.9,0.1,2.2,0.1,2.4h-2.5c-0.1-0.2-0.1-0.7-0.1-0.9c-0.3,0.5-1,1.1-2.6,1.1c-2.2,0-3.2-1.5-3.2-2.9
				c0-2.1,1.7-3.1,4.4-3.1c0.5,0,1,0,1.3,0v-0.6c0-0.7-0.2-1.3-1.4-1.3c-1.1,0-1.3,0.5-1.4,1.1h-2.5c0.1-1.7,1.2-3,4-3
				c2.5,0,3.9,1,3.9,3.2V412.3z M1369.9,410.5c-0.2,0-0.7,0-1.1,0c-1.6,0-2.1,0.5-2.1,1.4c0,0.7,0.4,1.2,1.3,1.2
				c1.6,0,1.8-1.1,1.8-2.4V410.5z"/>
			<path d="M1373.8,405.4h1.4v-2.5h2.6v2.5h1.8v1.9h-1.8v4.6c0,0.7,0.2,1,1,1c0.1,0,0.4,0,0.6,0v1.8c-0.5,0.2-1.2,0.2-1.7,0.2
				c-1.8,0-2.4-1-2.4-2.6v-4.9h-1.4V405.4z"/>
			<path d="M1381.3,401.6h2.6v2.3h-2.6V401.6z M1381.3,405.4h2.6v9.3h-2.6V405.4z"/>
			<path d="M1394.9,410c0,2.8-1.7,4.9-4.6,4.9c-2.9,0-4.6-2.1-4.6-4.8c0-2.9,1.7-4.9,4.7-4.9C1393.1,405.2,1394.9,407.1,1394.9,410z
				 M1388.3,410.1c0,1.8,0.8,2.9,2,2.9c1.3,0,2-1.1,2-2.8c0-2-0.7-2.9-2-2.9C1389,407.2,1388.3,408.1,1388.3,410.1z"/>
			<path d="M1396.6,407.7c0-0.8,0-1.7,0-2.3h2.5c0.1,0.2,0.1,0.9,0.1,1.2c0.3-0.6,1.1-1.4,2.7-1.4c1.9,0,3.1,1.3,3.1,3.6v5.9h-2.6
				v-5.6c0-1-0.3-1.8-1.5-1.8c-1.1,0-1.7,0.6-1.7,2.3v5.2h-2.6V407.7z"/>
		</g>
	</g>
	<g>
		<g>
			<path class="st2" d="M797.8,68.8h13.5v3.4h-9.4v4.7h8.8v3.4h-8.8v7.7h-4.1V68.8z"/>
			<path class="st2" d="M813.7,88.1V67.7h4v20.4H813.7z"/>
			<path class="st2" d="M834.8,80.8c0,4.4-2.6,7.6-7.2,7.6c-4.5,0-7.1-3.2-7.1-7.5c0-4.5,2.7-7.6,7.3-7.6
				C832.1,73.3,834.8,76.3,834.8,80.8z M824.6,80.9c0,2.8,1.2,4.4,3.1,4.4c2,0,3.1-1.7,3.1-4.4c0-3-1.1-4.5-3.1-4.5
				C825.8,76.4,824.6,77.8,824.6,80.9z"/>
			<path class="st2" d="M840.5,73.6c1.3,5.8,2,9.1,2.3,10.9h0.1c0.3-1.6,0.7-3.9,2.5-10.9h3.7c1.6,7.1,2.1,9.2,2.3,10.8h0
				c0.3-1.5,0.7-3.7,2.4-10.8h4l-4.3,14.5h-4.3c-1.2-5.5-1.9-8.4-2.2-10.3h0c-0.2,1.8-1,5.1-2.3,10.3h-4.3l-4.1-14.5H840.5z"/>
			<path class="st2" d="M872.6,83.4c-0.5,2.4-2.2,5-6.5,5c-4.5,0-6.8-3.1-6.8-7.5c0-4.3,2.6-7.7,7-7.7c4.9,0,6.2,3.5,6.3,5.1h-3.9
				c-0.2-1.2-0.9-2-2.5-2c-1.8,0-2.9,1.6-2.9,4.4c0,3.1,1.1,4.5,2.9,4.5c1.4,0,2.1-0.8,2.5-1.9H872.6z"/>
			<path class="st2" d="M879.2,67.7v7.7c0.6-0.9,1.8-2,4.2-2c2.7,0,4.9,1.6,4.9,5.5v9.3h-4v-8.7c0-1.9-0.7-2.9-2.4-2.9
				c-2.2,0-2.7,1.7-2.7,3.9v7.7h-4V67.7H879.2z"/>
			<path class="st2" d="M903.8,84.4c0,1.4,0.1,3.4,0.2,3.7h-3.8c-0.1-0.3-0.2-1.1-0.2-1.4c-0.5,0.8-1.5,1.8-4.1,1.8
				c-3.5,0-5-2.3-5-4.5c0-3.3,2.7-4.8,6.9-4.8c0.7,0,1.6,0,2.1,0v-0.9c0-1-0.4-2-2.2-2c-1.7,0-2.1,0.7-2.2,1.8h-3.8
				c0.2-2.6,1.8-4.7,6.2-4.6c3.9,0,6,1.5,6,5V84.4z M899.9,81.5c-0.3,0-1.1,0-1.6,0c-2.4,0-3.3,0.7-3.3,2.1c0,1,0.6,1.9,2.1,1.9
				c2.5,0,2.9-1.8,2.9-3.7V81.5z"/>
			<path class="st2" d="M907.5,77.5c0-1.4,0-2.7,0-3.9h3.9c0.1,0.3,0.1,1.8,0.1,2.5c0.6-1.7,2.2-2.9,4.7-2.9v3.8
				c-2.9-0.1-4.7,0.7-4.7,4.7v6.3h-4V77.5z"/>
			<path class="st2" d="M917.1,73.6h2.2v-3.9h4v3.9h2.8v3h-2.8v7.2c0,1.1,0.3,1.5,1.5,1.5c0.2,0,0.6,0,0.9,0V88
				c-0.8,0.3-1.9,0.3-2.7,0.3c-2.8,0-3.8-1.5-3.8-4v-7.6h-2.2V73.6z"/>
		</g>
	</g>
	<g>
		<g>
			<path class="st8" d="M285,141.9c0.3,1.2,1.2,1.8,2.6,1.8c1.4,0,2-0.6,2-1.5c0-1-0.6-1.4-2.7-1.9c-3.4-0.8-4.2-2-4.2-3.7
				c0-2.2,1.6-3.6,4.6-3.6c3.3,0,4.6,1.8,4.8,3.6h-2.7c-0.1-0.8-0.6-1.6-2.2-1.6c-1.1,0-1.7,0.5-1.7,1.3c0,0.9,0.5,1.2,2.5,1.7
				c3.6,0.9,4.4,2.2,4.4,3.9c0,2.3-1.7,3.8-5,3.8c-3.2,0-4.8-1.6-5.1-3.8H285z"/>
			<path class="st8" d="M296,136.3c1,3.2,1.8,6.1,2,6.9h0c0.2-0.9,0.7-3,1.9-6.9h2.6l-3.1,9.6c-0.9,2.7-1.6,3.5-3.9,3.5
				c-0.2,0-0.8,0-1.2-0.1v-2.1c0.2,0,0.5,0,0.7,0c0.9,0,1.4-0.3,1.8-1.4l-3.4-9.6H296z"/>
			<path class="st8" d="M305.5,142.8c0.2,0.7,0.8,1.2,1.8,1.2c1,0,1.3-0.3,1.3-0.9c0-0.6-0.4-0.8-1.7-1.2c-3-0.7-3.5-1.7-3.5-3
				c0-1.4,1-2.8,3.8-2.8c2.8,0,3.8,1.5,3.9,2.8h-2.5c-0.1-0.3-0.3-1-1.5-1c-0.9,0-1.1,0.4-1.1,0.8c0,0.5,0.3,0.7,1.8,1
				c3.1,0.7,3.5,1.8,3.5,3.2c0,1.5-1.2,2.9-4,2.9c-2.8,0-4-1.4-4.2-3H305.5z"/>
			<path class="st8" d="M312,136.3h1.4v-2.5h2.6v2.5h1.8v1.9H316v4.6c0,0.7,0.2,1,1,1c0.1,0,0.4,0,0.6,0v1.8
				c-0.5,0.2-1.2,0.2-1.7,0.2c-1.8,0-2.4-1-2.4-2.6v-4.9H312V136.3z"/>
			<path class="st8" d="M321.5,141.5c0,1.2,0.6,2.3,1.9,2.3c1.1,0,1.4-0.4,1.6-1h2.6c-0.3,1.1-1.3,3-4.3,3c-3.1,0-4.4-2.3-4.4-4.7
				c0-2.9,1.5-5,4.5-5c3.2,0,4.3,2.3,4.3,4.6c0,0.3,0,0.5,0,0.8H321.5z M325.1,139.9c0-1.1-0.5-2-1.7-2c-1.2,0-1.7,0.9-1.8,2H325.1z
				"/>
			<path class="st8" d="M329.4,138.7c0-0.8,0-1.6,0-2.4h2.5c0,0.2,0.1,0.7,0.1,1.1c0.5-0.7,1.2-1.3,2.6-1.3c1.3,0,2.1,0.7,2.4,1.4
				c0.5-0.8,1.3-1.4,2.9-1.4c1.6,0,3,1,3,3.4v6.1h-2.5v-5.8c0-0.8-0.3-1.7-1.4-1.7c-1.1,0-1.5,0.7-1.5,2.1v5.3h-2.5v-5.7
				c0-1-0.2-1.7-1.3-1.7c-1,0-1.5,0.6-1.5,2.2v5.2h-2.5V138.7z"/>
		</g>
	</g>
	<g>
		<g>
			<path class="st8" d="M527.1,609.7l-1,2.9h-2.6l4.2-12.4h3.4l4.4,12.4h-2.8l-1-2.9H527.1z M531.1,607.5c-0.9-2.6-1.4-4.3-1.7-5.4
				h0c-0.3,1.2-0.9,3.2-1.6,5.4H531.1z"/>
			<path class="st8" d="M536.9,599.4h2.6v4.8c0.4-0.6,1.2-1.2,2.7-1.2c2.5,0,3.8,2.1,3.8,4.7c0,2.7-1.4,5-4.1,5
				c-1.4,0-2-0.4-2.4-1.1c0,0.3,0,0.6-0.1,0.9h-2.5c0-1,0-2,0-3V599.4z M543.3,607.8c0-1.6-0.6-2.7-2-2.7c-1.5,0-2,1-2,2.9
				c0,1.6,0.5,2.8,2,2.8C542.6,610.7,543.3,609.5,543.3,607.8z"/>
			<path class="st8" d="M556.4,607.9c0,2.8-1.7,4.9-4.6,4.9c-2.9,0-4.6-2.1-4.6-4.8c0-2.9,1.7-4.9,4.7-4.9
				C554.6,603,556.4,604.9,556.4,607.9z M549.8,607.9c0,1.8,0.8,2.9,2,2.9c1.3,0,2-1.1,2-2.8c0-2-0.7-2.9-2-2.9
				C550.5,605,549.8,605.9,549.8,607.9z"/>
			<path class="st8" d="M566.3,609.8c0,0.9,0,1.9,0,2.7h-2.5c0-0.2-0.1-0.7-0.1-1.1c-0.6,0.9-1.4,1.3-2.6,1.3
				c-1.9,0-3.1-1.2-3.1-3.5v-6.1h2.6v5.6c0,1,0.3,1.9,1.4,1.9c1.2,0,1.7-0.6,1.7-2.5v-5h2.6V609.8z"/>
			<path class="st8" d="M567.8,603.2h1.4v-2.5h2.6v2.5h1.8v1.9h-1.8v4.6c0,0.7,0.2,1,1,1c0.1,0,0.4,0,0.6,0v1.8
				c-0.5,0.2-1.2,0.2-1.7,0.2c-1.8,0-2.4-1-2.4-2.6v-4.9h-1.4V603.2z"/>
		</g>
	</g>
	<g>
		<g>
			<path class="st8" d="M826.4,416.7h4.9c3.6,0,6,2.4,6,6.1c0,3.6-2.3,6.4-6.1,6.4h-4.8V416.7z M829.1,426.9h2
				c2.4,0,3.4-1.8,3.4-4.2c0-2-1-3.9-3.4-3.9h-2V426.9z"/>
			<path class="st8" d="M841.4,425c0,1.2,0.6,2.3,1.9,2.3c1.1,0,1.4-0.4,1.6-1h2.6c-0.3,1.1-1.3,3-4.3,3c-3.1,0-4.4-2.3-4.4-4.7
				c0-2.9,1.5-5,4.5-5c3.2,0,4.3,2.3,4.3,4.6c0,0.3,0,0.5,0,0.8H841.4z M845,423.4c0-1.1-0.5-2-1.7-2c-1.2,0-1.7,0.9-1.8,2H845z"/>
			<path class="st8" d="M857.4,426.1c-0.3,1.6-1.4,3.2-4.2,3.2c-2.9,0-4.4-2-4.4-4.8c0-2.8,1.7-4.9,4.5-4.9c3.1,0,4,2.3,4.1,3.3
				h-2.5c-0.2-0.8-0.6-1.3-1.6-1.3c-1.2,0-1.8,1-1.8,2.8c0,2,0.7,2.9,1.8,2.9c0.9,0,1.4-0.5,1.6-1.2H857.4z"/>
			<path class="st8" d="M859,416h2.6v2.3H859V416z M859,419.8h2.6v9.3H859V419.8z"/>
			<path class="st8" d="M865.8,426.3c0.2,0.7,0.8,1.2,1.8,1.2c1,0,1.3-0.3,1.3-0.9c0-0.6-0.4-0.8-1.7-1.2c-3-0.7-3.5-1.7-3.5-3
				c0-1.4,1-2.8,3.8-2.8c2.8,0,3.8,1.5,3.9,2.8h-2.5c-0.1-0.3-0.3-1-1.5-1c-0.9,0-1.1,0.4-1.1,0.8c0,0.5,0.3,0.7,1.8,1
				c3.1,0.7,3.5,1.8,3.5,3.2c0,1.5-1.2,2.9-4,2.9c-2.8,0-4-1.4-4.2-3H865.8z"/>
			<path class="st8" d="M873.2,416h2.6v2.3h-2.6V416z M873.2,419.8h2.6v9.3h-2.6V419.8z"/>
			<path class="st8" d="M886.8,424.4c0,2.8-1.7,4.9-4.6,4.9c-2.9,0-4.6-2.1-4.6-4.8c0-2.9,1.7-4.9,4.7-4.9
				C885,419.6,886.8,421.5,886.8,424.4z M880.2,424.4c0,1.8,0.8,2.9,2,2.9c1.3,0,2-1.1,2-2.8c0-2-0.7-2.9-2-2.9
				C881,421.6,880.2,422.5,880.2,424.4z"/>
			<path class="st8" d="M888.6,422.1c0-0.8,0-1.7,0-2.3h2.5c0.1,0.2,0.1,0.9,0.1,1.2c0.3-0.6,1.1-1.4,2.7-1.4c1.9,0,3.1,1.3,3.1,3.6
				v5.9h-2.6v-5.6c0-1-0.3-1.8-1.5-1.8c-1.1,0-1.7,0.6-1.7,2.3v5.2h-2.6V422.1z"/>
		</g>
	</g>
	<g>
		<g>
			<path class="st8" d="M1131.2,518v-4.6c0-0.1,0-0.2-0.1-0.3l-4.4-7.6h2.1c1.1,2,2.8,5.1,3.4,6.2c0.5-1.1,2.3-4.3,3.5-6.2h2
				l-4.5,7.6c0,0.1-0.1,0.1-0.1,0.3v4.6H1131.2z"/>
			<path class="st8" d="M1140,513.8c0,1.7,0.9,3,2.4,3c1.4,0,1.8-0.7,2.1-1.3h1.8c-0.4,1.2-1.3,2.8-3.9,2.8c-2.9,0-4.1-2.3-4.1-4.7
				c0-2.8,1.4-4.9,4.2-4.9c3,0,4,2.4,4,4.4c0,0.3,0,0.5,0,0.8H1140z M1144.7,512.6c0-1.4-0.7-2.6-2.2-2.6c-1.5,0-2.2,1.1-2.4,2.6
				H1144.7z"/>
			<path class="st8" d="M1149.4,515.4c0.2,0.9,1,1.5,2.1,1.5c1.3,0,1.8-0.5,1.8-1.3c0-0.8-0.4-1.2-2.1-1.6c-2.7-0.7-3.2-1.5-3.2-2.7
				c0-1.3,1-2.6,3.4-2.6c2.4,0,3.4,1.4,3.5,2.7h-1.7c-0.1-0.5-0.5-1.3-1.9-1.3c-1.2,0-1.6,0.6-1.6,1.1c0,0.6,0.4,1,2,1.3
				c2.8,0.7,3.4,1.6,3.4,3c0,1.6-1.3,2.8-3.6,2.8c-2.5,0-3.6-1.2-3.8-2.9H1149.4z"/>
		</g>
	</g>
	<g>
		<g>
			<path class="st8" d="M956.6,540.9v-4.6c0-0.1,0-0.2-0.1-0.3l-4.4-7.6h2.1c1.1,2,2.8,5.1,3.4,6.2c0.5-1.1,2.3-4.3,3.5-6.2h2
				l-4.5,7.6c0,0.1-0.1,0.1-0.1,0.3v4.6H956.6z"/>
			<path class="st8" d="M965.4,536.6c0,1.7,0.9,3,2.4,3c1.4,0,1.8-0.7,2.1-1.3h1.8c-0.4,1.2-1.3,2.8-3.9,2.8c-2.9,0-4.1-2.3-4.1-4.7
				c0-2.8,1.4-4.9,4.2-4.9c3,0,4,2.4,4,4.4c0,0.3,0,0.5,0,0.8H965.4z M970.1,535.4c0-1.4-0.7-2.6-2.2-2.6c-1.5,0-2.2,1.1-2.4,2.6
				H970.1z"/>
			<path class="st8" d="M974.8,538.2c0.2,0.9,1,1.5,2.1,1.5c1.3,0,1.8-0.5,1.8-1.3c0-0.8-0.4-1.2-2.1-1.6c-2.7-0.7-3.2-1.5-3.2-2.7
				c0-1.3,1-2.6,3.4-2.6c2.4,0,3.4,1.4,3.5,2.7h-1.7c-0.1-0.5-0.5-1.3-1.9-1.3c-1.2,0-1.6,0.6-1.6,1.1c0,0.6,0.4,1,2,1.3
				c2.8,0.7,3.4,1.6,3.4,3c0,1.6-1.3,2.8-3.6,2.8c-2.5,0-3.6-1.2-3.8-2.9H974.8z"/>
		</g>
	</g>
	<g>
		<g>
			<path class="st8" d="M738.7,784.5V780c0-0.1,0-0.2-0.1-0.3l-4.4-7.6h2.1c1.1,2,2.8,5.1,3.4,6.2c0.5-1.1,2.3-4.3,3.5-6.2h2
				l-4.5,7.6c0,0.1-0.1,0.1-0.1,0.3v4.6H738.7z"/>
			<path class="st8" d="M747.6,780.3c0,1.7,0.9,3,2.4,3c1.4,0,1.8-0.7,2.1-1.3h1.8c-0.4,1.2-1.3,2.8-3.9,2.8c-2.9,0-4.1-2.3-4.1-4.7
				c0-2.8,1.4-4.9,4.2-4.9c3,0,4,2.4,4,4.4c0,0.3,0,0.5,0,0.8H747.6z M752.2,779.1c0-1.4-0.7-2.6-2.2-2.6c-1.5,0-2.2,1.1-2.4,2.6
				H752.2z"/>
			<path class="st8" d="M756.9,781.9c0.2,0.9,1,1.5,2.1,1.5c1.3,0,1.8-0.5,1.8-1.3c0-0.8-0.4-1.2-2.1-1.6c-2.7-0.7-3.2-1.5-3.2-2.7
				c0-1.3,1-2.6,3.4-2.6c2.4,0,3.4,1.4,3.5,2.7h-1.7c-0.1-0.5-0.5-1.3-1.9-1.3c-1.2,0-1.6,0.6-1.6,1.1c0,0.6,0.4,1,2,1.3
				c2.8,0.7,3.4,1.6,3.4,3c0,1.6-1.3,2.8-3.6,2.8c-2.5,0-3.6-1.2-3.8-2.9H756.9z"/>
		</g>
	</g>
	<g>
		<g>
			<path class="st8" d="M537.3,784.3v-4.6c0-0.1,0-0.2-0.1-0.3l-4.4-7.6h2.1c1.1,2,2.8,5.1,3.4,6.2c0.5-1.1,2.3-4.3,3.5-6.2h2
				l-4.5,7.6c0,0.1-0.1,0.1-0.1,0.3v4.6H537.3z"/>
			<path class="st8" d="M546.1,780.1c0,1.7,0.9,3,2.4,3c1.4,0,1.8-0.7,2.1-1.3h1.8c-0.4,1.2-1.3,2.8-3.9,2.8c-2.9,0-4.1-2.3-4.1-4.7
				c0-2.8,1.4-4.9,4.2-4.9c3,0,4,2.4,4,4.4c0,0.3,0,0.5,0,0.8H546.1z M550.8,778.9c0-1.4-0.7-2.6-2.2-2.6c-1.5,0-2.2,1.1-2.4,2.6
				H550.8z"/>
			<path class="st8" d="M555.5,781.7c0.2,0.9,1,1.5,2.1,1.5c1.3,0,1.8-0.5,1.8-1.3c0-0.8-0.4-1.2-2.1-1.6c-2.7-0.7-3.2-1.5-3.2-2.7
				c0-1.3,1-2.6,3.4-2.6c2.4,0,3.4,1.4,3.5,2.7h-1.7c-0.1-0.5-0.5-1.3-1.9-1.3c-1.2,0-1.6,0.6-1.6,1.1c0,0.6,0.4,1,2,1.3
				c2.8,0.7,3.4,1.6,3.4,3c0,1.6-1.3,2.8-3.6,2.8c-2.5,0-3.6-1.2-3.8-2.9H555.5z"/>
		</g>
	</g>
	<g>
		<g>
			<path class="st8" d="M740,541.1v-4.6c0-0.1,0-0.2-0.1-0.3l-4.4-7.6h2.1c1.1,2,2.8,5.1,3.4,6.2c0.5-1.1,2.3-4.3,3.5-6.2h2
				l-4.5,7.6c0,0.1-0.1,0.1-0.1,0.3v4.6H740z"/>
			<path class="st8" d="M748.8,536.8c0,1.7,0.9,3,2.4,3c1.4,0,1.8-0.7,2.1-1.3h1.8c-0.4,1.2-1.3,2.8-3.9,2.8c-2.9,0-4.1-2.3-4.1-4.7
				c0-2.8,1.4-4.9,4.2-4.9c3,0,4,2.4,4,4.4c0,0.3,0,0.5,0,0.8H748.8z M753.4,535.6c0-1.4-0.7-2.6-2.2-2.6c-1.5,0-2.2,1.1-2.4,2.6
				H753.4z"/>
			<path class="st8" d="M758.2,538.4c0.2,0.9,1,1.5,2.1,1.5c1.3,0,1.8-0.5,1.8-1.3c0-0.8-0.4-1.2-2.1-1.6c-2.7-0.7-3.2-1.5-3.2-2.7
				c0-1.3,1-2.6,3.4-2.6c2.4,0,3.4,1.4,3.5,2.7H762c-0.1-0.5-0.5-1.3-1.9-1.3c-1.2,0-1.6,0.6-1.6,1.1c0,0.6,0.4,1,2,1.3
				c2.8,0.7,3.4,1.6,3.4,3c0,1.6-1.3,2.8-3.6,2.8c-2.5,0-3.6-1.2-3.8-2.9H758.2z"/>
		</g>
	</g>
	<g>
		<g>
			<path class="st8" d="M571.9,517.9v-4.6c0-0.1,0-0.2-0.1-0.3l-4.4-7.6h2.1c1.1,2,2.8,5.1,3.4,6.2c0.5-1.1,2.3-4.3,3.5-6.2h2
				l-4.5,7.6c0,0.1-0.1,0.1-0.1,0.3v4.6H571.9z"/>
			<path class="st8" d="M580.7,513.6c0,1.7,0.9,3,2.4,3c1.4,0,1.8-0.7,2.1-1.3h1.8c-0.4,1.2-1.3,2.8-3.9,2.8c-2.9,0-4.1-2.3-4.1-4.7
				c0-2.8,1.4-4.9,4.2-4.9c3,0,4,2.4,4,4.4c0,0.3,0,0.5,0,0.8H580.7z M585.3,512.4c0-1.4-0.7-2.6-2.2-2.6c-1.5,0-2.2,1.1-2.4,2.6
				H585.3z"/>
			<path class="st8" d="M590,515.2c0.2,0.9,1,1.5,2.1,1.5c1.3,0,1.8-0.5,1.8-1.3c0-0.8-0.4-1.2-2.1-1.6c-2.7-0.7-3.2-1.5-3.2-2.7
				c0-1.3,1-2.6,3.4-2.6c2.4,0,3.4,1.4,3.5,2.7h-1.7c-0.1-0.5-0.5-1.3-1.9-1.3c-1.2,0-1.6,0.6-1.6,1.1c0,0.6,0.4,1,2,1.3
				c2.8,0.7,3.4,1.6,3.4,3c0,1.6-1.3,2.8-3.6,2.8c-2.5,0-3.6-1.2-3.8-2.9H590z"/>
		</g>
	</g>
	<g>
		<g>
			<path class="st8" d="M846.6,481.7c0,3.4-2,6.5-5.9,6.5c-3.7,0-5.8-2.8-5.8-6.4c0-3.6,2.1-6.4,5.9-6.4
				C844.3,475.3,846.6,478,846.6,481.7z M836.8,481.7c0,2.7,1.3,4.9,3.9,4.9c2.8,0,3.9-2.3,3.9-4.9c0-2.6-1.2-4.8-3.9-4.8
				C838,476.9,836.8,479.1,836.8,481.7z"/>
			<path class="st8" d="M850.6,486.9v4.7h-1.8v-10.5c0-0.7,0-1.5,0-2.2h1.7c0,0.3,0.1,0.8,0.1,1.4c0.5-0.9,1.4-1.6,2.9-1.6
				c2.1,0,3.7,1.8,3.7,4.6c0,3.3-1.8,5-4,5C851.7,488.2,851,487.6,850.6,486.9z M855.3,483.3c0-1.9-0.8-3.1-2.3-3.1
				c-1.8,0-2.5,1.1-2.5,3.3c0,2.1,0.6,3.3,2.4,3.3C854.5,486.8,855.3,485.4,855.3,483.3z"/>
			<path class="st8" d="M858,478.8h1.6v-2.7h1.8v2.7h2v1.4h-2v5.2c0,0.9,0.2,1.3,1,1.3c0.2,0,0.5,0,0.8-0.1v1.3
				c-0.4,0.2-1,0.2-1.4,0.2c-1.5,0-2.1-0.8-2.1-2.3v-5.6H858V478.8z"/>
			<path class="st8" d="M865,474.8h1.8v2H865V474.8z M865,478.8h1.8v9.2H865V478.8z"/>
			<path class="st8" d="M877.4,483.4c0,2.7-1.5,4.8-4.4,4.8c-2.7,0-4.3-2-4.3-4.8c0-2.7,1.6-4.8,4.4-4.8
				C875.8,478.6,877.4,480.5,877.4,483.4z M870.6,483.4c0,2,1,3.3,2.5,3.3c1.6,0,2.5-1.3,2.5-3.3c0-2-0.9-3.4-2.5-3.4
				C871.5,480.1,870.6,481.4,870.6,483.4z"/>
			<path class="st8" d="M879.4,481.2c0-0.8,0-1.6,0-2.3h1.7c0,0.3,0.1,1.2,0.1,1.4c0.4-0.7,1.1-1.7,2.8-1.7c1.7,0,3.1,1.1,3.1,3.5
				v5.9h-1.8v-5.7c0-1.3-0.5-2.2-1.8-2.2c-1.6,0-2.3,1.2-2.3,3v4.9h-1.8V481.2z"/>
		</g>
	</g>
	<g>
		<g>
			<path class="st8" d="M950.3,973.5v-12.4h3.3c1.6,2.8,4.4,7.8,5,9.2h0c-0.1-1.3-0.1-3.5-0.1-5.5v-3.7h2.4v12.4h-3.2
				c-1.3-2.4-4.5-8.2-5.1-9.6h0c0.1,1.1,0.1,3.6,0.1,5.9v3.8H950.3z"/>
			<path class="st8" d="M975.3,967.2c0,3.5-2.1,6.4-6.1,6.4c-3.9,0-5.9-2.8-5.9-6.4c0-3.6,2.3-6.4,6.1-6.4
				C973,960.9,975.3,963.4,975.3,967.2z M966.1,967.2c0,2.4,1.1,4.3,3.3,4.3c2.4,0,3.2-2,3.2-4.2c0-2.3-1-4.2-3.3-4.2
				C967.1,963.1,966.1,964.8,966.1,967.2z"/>
		</g>
	</g>
	<g>
		<g>
			<path class="st8" d="M841.9,971.8v-4.4c0-0.1,0-0.3-0.1-0.4l-4.3-7.6h3c1,1.9,2.2,4.4,2.8,5.7c0.5-1.3,1.9-3.9,2.8-5.7h2.8
				l-4.3,7.6c-0.1,0.1-0.1,0.1-0.1,0.4v4.4H841.9z"/>
			<path class="st8" d="M858.9,966.5h-5.9v3.2h6.5l-0.3,2.2h-8.8v-12.4h8.8v2.2h-6.2v2.7h5.9V966.5z"/>
			<path class="st8" d="M863.3,968.2c0.3,1.2,1.2,1.8,2.6,1.8c1.4,0,2-0.6,2-1.5c0-1-0.6-1.4-2.7-1.9c-3.4-0.8-4.2-2-4.2-3.7
				c0-2.2,1.6-3.6,4.6-3.6c3.3,0,4.6,1.8,4.8,3.6h-2.7c-0.1-0.8-0.6-1.6-2.2-1.6c-1.1,0-1.7,0.5-1.7,1.3c0,0.9,0.5,1.2,2.5,1.7
				c3.6,0.9,4.4,2.2,4.4,3.9c0,2.3-1.7,3.8-5,3.8c-3.2,0-4.8-1.6-5.1-3.8H863.3z"/>
		</g>
	</g>
	<g>
		<g>
			<path class="st8" d="M1055.1,890.7v-4.4c0-0.1,0-0.3-0.1-0.4l-4.3-7.6h3c1,1.9,2.2,4.4,2.8,5.7c0.5-1.3,1.9-3.9,2.8-5.7h2.8
				l-4.3,7.6c-0.1,0.1-0.1,0.1-0.1,0.4v4.4H1055.1z"/>
			<path class="st8" d="M1072,885.4h-5.9v3.2h6.5l-0.3,2.2h-8.8v-12.4h8.8v2.2h-6.2v2.7h5.9V885.4z"/>
			<path class="st8" d="M1076.4,887.1c0.3,1.2,1.2,1.8,2.6,1.8c1.4,0,2-0.6,2-1.5c0-1-0.6-1.4-2.7-1.9c-3.4-0.8-4.2-2-4.2-3.7
				c0-2.2,1.6-3.6,4.6-3.6c3.3,0,4.6,1.8,4.8,3.6h-2.7c-0.1-0.8-0.6-1.6-2.2-1.6c-1.1,0-1.7,0.5-1.7,1.3c0,0.9,0.5,1.2,2.5,1.7
				c3.6,0.9,4.4,2.2,4.4,3.9c0,2.3-1.7,3.8-5,3.8c-3.2,0-4.8-1.6-5.1-3.8H1076.4z"/>
		</g>
	</g>
	<g>
		<g>
			<path class="st8" d="M635.7,971.8v-4.4c0-0.1,0-0.3-0.1-0.4l-4.3-7.6h3c1,1.9,2.2,4.4,2.8,5.7c0.5-1.3,1.9-3.9,2.8-5.7h2.8
				l-4.3,7.6c-0.1,0.1-0.1,0.1-0.1,0.4v4.4H635.7z"/>
			<path class="st8" d="M652.6,966.5h-5.9v3.2h6.5l-0.3,2.2h-8.8v-12.4h8.8v2.2h-6.2v2.7h5.9V966.5z"/>
			<path class="st8" d="M657,968.2c0.3,1.2,1.2,1.8,2.6,1.8c1.4,0,2-0.6,2-1.5c0-1-0.6-1.4-2.7-1.9c-3.4-0.8-4.2-2-4.2-3.7
				c0-2.2,1.6-3.6,4.6-3.6c3.3,0,4.6,1.8,4.8,3.6h-2.7c-0.1-0.8-0.6-1.6-2.2-1.6c-1.1,0-1.7,0.5-1.7,1.3c0,0.9,0.5,1.2,2.5,1.7
				c3.6,0.9,4.4,2.2,4.4,3.9c0,2.3-1.7,3.8-5,3.8c-3.2,0-4.8-1.6-5.1-3.8H657z"/>
		</g>
	</g>
	<g>
		<g>
			<path class="st8" d="M713.9,713.9h4.9c3.6,0,6,2.4,6,6.1c0,3.6-2.3,6.4-6.1,6.4h-4.8V713.9z M716.6,724.1h2
				c2.4,0,3.4-1.8,3.4-4.2c0-2-1-3.9-3.4-3.9h-2V724.1z"/>
			<path class="st8" d="M728.9,722.2c0,1.2,0.6,2.3,1.9,2.3c1.1,0,1.4-0.4,1.6-1h2.6c-0.3,1.1-1.3,3-4.3,3c-3.1,0-4.4-2.3-4.4-4.7
				c0-2.9,1.5-5,4.5-5c3.2,0,4.3,2.3,4.3,4.6c0,0.3,0,0.5,0,0.8H728.9z M732.5,720.6c0-1.1-0.5-2-1.7-2c-1.2,0-1.7,0.9-1.8,2H732.5z
				"/>
			<path class="st8" d="M744.9,723.3c-0.3,1.6-1.4,3.2-4.2,3.2c-2.9,0-4.4-2-4.4-4.8c0-2.8,1.7-4.9,4.5-4.9c3.1,0,4,2.3,4.1,3.3
				h-2.5c-0.2-0.8-0.6-1.3-1.6-1.3c-1.2,0-1.8,1-1.8,2.8c0,2,0.7,2.9,1.8,2.9c0.9,0,1.4-0.5,1.6-1.2H744.9z"/>
			<path class="st8" d="M746.5,713.1h2.6v2.3h-2.6V713.1z M746.5,717h2.6v9.3h-2.6V717z"/>
			<path class="st8" d="M753.3,723.5c0.2,0.7,0.8,1.2,1.8,1.2c1,0,1.3-0.3,1.3-0.9c0-0.6-0.4-0.8-1.7-1.2c-3-0.7-3.5-1.7-3.5-3
				c0-1.4,1-2.8,3.8-2.8c2.8,0,3.8,1.5,3.9,2.8h-2.5c-0.1-0.3-0.3-1-1.5-1c-0.9,0-1.1,0.4-1.1,0.8c0,0.5,0.3,0.7,1.8,1
				c3.1,0.7,3.5,1.8,3.5,3.2c0,1.5-1.2,2.9-4,2.9c-2.8,0-4-1.4-4.2-3H753.3z"/>
			<path class="st8" d="M760.7,713.1h2.6v2.3h-2.6V713.1z M760.7,717h2.6v9.3h-2.6V717z"/>
			<path class="st8" d="M774.3,721.6c0,2.8-1.7,4.9-4.6,4.9c-2.9,0-4.6-2.1-4.6-4.8c0-2.9,1.7-4.9,4.7-4.9
				C772.5,716.7,774.3,718.7,774.3,721.6z M767.7,721.6c0,1.8,0.8,2.9,2,2.9c1.3,0,2-1.1,2-2.8c0-2-0.7-2.9-2-2.9
				C768.5,718.8,767.7,719.6,767.7,721.6z"/>
			<path class="st8" d="M776.1,719.3c0-0.8,0-1.7,0-2.3h2.5c0.1,0.2,0.1,0.9,0.1,1.2c0.3-0.6,1.1-1.4,2.7-1.4c1.9,0,3.1,1.3,3.1,3.6
				v5.9h-2.6v-5.6c0-1-0.3-1.8-1.5-1.8c-1.1,0-1.7,0.6-1.7,2.3v5.2h-2.6V719.3z"/>
		</g>
	</g>
	<g>
		<g>
			<path class="st8" d="M513.8,713.9h4.9c3.6,0,6,2.4,6,6.1c0,3.6-2.3,6.4-6.1,6.4h-4.8V713.9z M516.5,724.1h2
				c2.4,0,3.4-1.8,3.4-4.2c0-2-1-3.9-3.4-3.9h-2V724.1z"/>
			<path class="st8" d="M528.8,722.2c0,1.2,0.6,2.3,1.9,2.3c1.1,0,1.4-0.4,1.6-1h2.6c-0.3,1.1-1.3,3-4.3,3c-3.1,0-4.4-2.3-4.4-4.7
				c0-2.9,1.5-5,4.5-5c3.2,0,4.3,2.3,4.3,4.6c0,0.3,0,0.5,0,0.8H528.8z M532.4,720.6c0-1.1-0.5-2-1.7-2c-1.2,0-1.7,0.9-1.8,2H532.4z
				"/>
			<path class="st8" d="M544.8,723.3c-0.3,1.6-1.4,3.2-4.2,3.2c-2.9,0-4.4-2-4.4-4.8c0-2.8,1.7-4.9,4.5-4.9c3.1,0,4,2.3,4.1,3.3
				h-2.5c-0.2-0.8-0.6-1.3-1.6-1.3c-1.2,0-1.8,1-1.8,2.8c0,2,0.7,2.9,1.8,2.9c0.9,0,1.4-0.5,1.6-1.2H544.8z"/>
			<path class="st8" d="M546.4,713.1h2.6v2.3h-2.6V713.1z M546.4,717h2.6v9.3h-2.6V717z"/>
			<path class="st8" d="M553.2,723.5c0.2,0.7,0.8,1.2,1.8,1.2c1,0,1.3-0.3,1.3-0.9c0-0.6-0.4-0.8-1.7-1.2c-3-0.7-3.5-1.7-3.5-3
				c0-1.4,1-2.8,3.8-2.8c2.8,0,3.8,1.5,3.9,2.8h-2.5c-0.1-0.3-0.3-1-1.5-1c-0.9,0-1.1,0.4-1.1,0.8c0,0.5,0.3,0.7,1.8,1
				c3.1,0.7,3.5,1.8,3.5,3.2c0,1.5-1.2,2.9-4,2.9c-2.8,0-4-1.4-4.2-3H553.2z"/>
			<path class="st8" d="M560.6,713.1h2.6v2.3h-2.6V713.1z M560.6,717h2.6v9.3h-2.6V717z"/>
			<path class="st8" d="M574.2,721.6c0,2.8-1.7,4.9-4.6,4.9c-2.9,0-4.6-2.1-4.6-4.8c0-2.9,1.7-4.9,4.7-4.9
				C572.4,716.7,574.2,718.7,574.2,721.6z M567.6,721.6c0,1.8,0.8,2.9,2,2.9c1.3,0,2-1.1,2-2.8c0-2-0.7-2.9-2-2.9
				C568.3,718.8,567.6,719.6,567.6,721.6z"/>
			<path class="st8" d="M575.9,719.3c0-0.8,0-1.7,0-2.3h2.5c0.1,0.2,0.1,0.9,0.1,1.2c0.3-0.6,1.1-1.4,2.7-1.4c1.9,0,3.1,1.3,3.1,3.6
				v5.9h-2.6v-5.6c0-1-0.3-1.8-1.5-1.8c-1.1,0-1.7,0.6-1.7,2.3v5.2h-2.6V719.3z"/>
		</g>
	</g>
	<g>
		<g>
			<path class="st8" d="M929.6,910.3h4.9c3.6,0,6,2.4,6,6.1c0,3.6-2.3,6.4-6.1,6.4h-4.8V910.3z M932.3,920.6h2
				c2.4,0,3.4-1.8,3.4-4.2c0-2-1-3.9-3.4-3.9h-2V920.6z"/>
			<path class="st8" d="M944.6,918.6c0,1.2,0.6,2.3,1.9,2.3c1.1,0,1.4-0.4,1.6-1h2.6c-0.3,1.1-1.3,3-4.3,3c-3.1,0-4.4-2.3-4.4-4.7
				c0-2.9,1.5-5,4.5-5c3.2,0,4.3,2.3,4.3,4.6c0,0.3,0,0.5,0,0.8H944.6z M948.2,917c0-1.1-0.5-2-1.7-2c-1.2,0-1.7,0.9-1.8,2H948.2z"
				/>
			<path class="st8" d="M960.6,919.7c-0.3,1.6-1.4,3.2-4.2,3.2c-2.9,0-4.4-2-4.4-4.8c0-2.8,1.7-4.9,4.5-4.9c3.1,0,4,2.3,4.1,3.3
				h-2.5c-0.2-0.8-0.6-1.3-1.6-1.3c-1.2,0-1.8,1-1.8,2.8c0,2,0.7,2.9,1.8,2.9c0.9,0,1.4-0.5,1.6-1.2H960.6z"/>
			<path class="st8" d="M962.3,909.6h2.6v2.3h-2.6V909.6z M962.3,913.4h2.6v9.3h-2.6V913.4z"/>
			<path class="st8" d="M969.1,919.9c0.2,0.7,0.8,1.2,1.8,1.2c1,0,1.3-0.3,1.3-0.9c0-0.6-0.4-0.8-1.7-1.2c-3-0.7-3.5-1.7-3.5-3
				c0-1.4,1-2.8,3.8-2.8c2.8,0,3.8,1.5,3.9,2.8h-2.5c-0.1-0.3-0.3-1-1.5-1c-0.9,0-1.1,0.4-1.1,0.8c0,0.5,0.3,0.7,1.8,1
				c3.1,0.7,3.5,1.8,3.5,3.2c0,1.5-1.2,2.9-4,2.9c-2.8,0-4-1.4-4.2-3H969.1z"/>
			<path class="st8" d="M976.5,909.6h2.6v2.3h-2.6V909.6z M976.5,913.4h2.6v9.3h-2.6V913.4z"/>
			<path class="st8" d="M990,918.1c0,2.8-1.7,4.9-4.6,4.9c-2.9,0-4.6-2.1-4.6-4.8c0-2.9,1.7-4.9,4.7-4.9
				C988.2,913.2,990,915.1,990,918.1z M983.4,918.1c0,1.8,0.8,2.9,2,2.9c1.3,0,2-1.1,2-2.8c0-2-0.7-2.9-2-2.9
				C984.2,915.2,983.4,916.1,983.4,918.1z"/>
			<path class="st8" d="M991.8,915.8c0-0.8,0-1.7,0-2.3h2.5c0.1,0.2,0.1,0.9,0.1,1.2c0.3-0.6,1.1-1.4,2.7-1.4c1.9,0,3.1,1.3,3.1,3.6
				v5.9h-2.6v-5.6c0-1-0.3-1.8-1.5-1.8c-1.1,0-1.7,0.6-1.7,2.3v5.2h-2.6V915.8z"/>
		</g>
	</g>
	<g>
		<g>
			<path class="st8" d="M516.7,988.4h4.8c2.5,0,4.2,1.4,4.2,3.7c0,2.5-1.8,3.8-4.3,3.8h-2.9v5h-1.9V988.4z M518.6,994.3h2.7
				c1.6,0,2.5-0.8,2.5-2.2c0-1.5-1-2.2-2.4-2.2h-2.8V994.3z"/>
			<path class="st8" d="M527.8,994.2c0-1.2,0-1.9,0-2.5h1.7c0,0.2,0.1,1,0.1,1.8c0.5-1.2,1.5-2,3.1-2v1.7c-1.9,0-3.1,0.9-3.1,3.3
				v4.4h-1.8V994.2z"/>
			<path class="st8" d="M542.3,996.3c0,2.7-1.5,4.8-4.4,4.8c-2.7,0-4.3-2-4.3-4.8c0-2.7,1.6-4.8,4.4-4.8
				C540.6,991.5,542.3,993.4,542.3,996.3z M535.5,996.3c0,2,1,3.3,2.5,3.3c1.6,0,2.5-1.3,2.5-3.3c0-2-0.9-3.4-2.5-3.4
				C536.3,993,535.5,994.2,535.5,996.3z"/>
			<path class="st8" d="M551.6,998c-0.4,1.6-1.4,3.1-3.9,3.1c-2.6,0-4.1-1.8-4.1-4.7c0-2.6,1.5-4.9,4.2-4.9c2.7,0,3.6,1.9,3.7,3.1
				h-1.7c-0.2-0.9-0.8-1.7-2-1.7c-1.5,0-2.4,1.3-2.4,3.3c0,2.1,0.9,3.4,2.4,3.4c1.1,0,1.7-0.6,2.1-1.6H551.6z"/>
			<path class="st8" d="M554.6,996.6c0,1.7,0.9,3,2.4,3c1.4,0,1.8-0.7,2.1-1.3h1.8c-0.4,1.2-1.3,2.8-3.9,2.8c-2.9,0-4.1-2.3-4.1-4.7
				c0-2.8,1.4-4.9,4.2-4.9c3,0,4,2.4,4,4.4c0,0.3,0,0.5,0,0.8H554.6z M559.3,995.4c0-1.4-0.7-2.6-2.2-2.6c-1.5,0-2.2,1.1-2.4,2.6
				H559.3z"/>
			<path class="st8" d="M564,998.2c0.2,0.9,1,1.5,2.1,1.5c1.3,0,1.8-0.5,1.8-1.3c0-0.8-0.4-1.2-2.1-1.6c-2.7-0.7-3.2-1.5-3.2-2.7
				c0-1.3,1-2.6,3.4-2.6c2.4,0,3.4,1.4,3.5,2.7h-1.7c-0.1-0.5-0.5-1.3-1.9-1.3c-1.2,0-1.6,0.6-1.6,1.1c0,0.6,0.4,1,2,1.3
				c2.8,0.7,3.4,1.6,3.4,3c0,1.6-1.3,2.8-3.6,2.8c-2.5,0-3.6-1.2-3.8-2.9H564z"/>
			<path class="st8" d="M572.7,998.2c0.2,0.9,1,1.5,2.1,1.5c1.3,0,1.8-0.5,1.8-1.3c0-0.8-0.4-1.2-2.1-1.6c-2.7-0.7-3.2-1.5-3.2-2.7
				c0-1.3,1-2.6,3.4-2.6c2.4,0,3.4,1.4,3.5,2.7h-1.7c-0.1-0.5-0.5-1.3-1.9-1.3c-1.2,0-1.6,0.6-1.6,1.1c0,0.6,0.4,1,2,1.3
				c2.8,0.7,3.4,1.6,3.4,3c0,1.6-1.3,2.8-3.6,2.8c-2.5,0-3.6-1.2-3.8-2.9H572.7z"/>
		</g>
	</g>
	<g>
		<g>
			<path class="st8" d="M922.5,620.7h-3.8v-2.2H929v2.2h-3.8v10.2h-2.7V620.7z"/>
			<path class="st8" d="M932.4,626.8c0,1.2,0.6,2.3,1.9,2.3c1.1,0,1.4-0.4,1.6-1h2.6c-0.3,1.1-1.3,3-4.3,3c-3.1,0-4.4-2.3-4.4-4.7
				c0-2.9,1.5-5,4.5-5c3.2,0,4.3,2.3,4.3,4.6c0,0.3,0,0.5,0,0.8H932.4z M936,625.2c0-1.1-0.5-2-1.7-2c-1.2,0-1.7,0.9-1.8,2H936z"/>
			<path class="st8" d="M940.3,624.1c0-0.9,0-1.7,0-2.5h2.5c0,0.2,0.1,1.1,0.1,1.6c0.4-1.1,1.4-1.8,3-1.9v2.5c-1.9,0-3,0.5-3,3v4.1
				h-2.6V624.1z"/>
			<path class="st8" d="M947.4,624c0-0.8,0-1.6,0-2.4h2.5c0,0.2,0.1,0.7,0.1,1.1c0.5-0.7,1.2-1.3,2.6-1.3c1.3,0,2.1,0.7,2.4,1.4
				c0.5-0.8,1.3-1.4,2.9-1.4c1.6,0,3,1,3,3.4v6.1h-2.5v-5.8c0-0.8-0.3-1.7-1.4-1.7c-1.1,0-1.5,0.7-1.5,2.1v5.3h-2.5v-5.7
				c0-1-0.2-1.7-1.3-1.7c-1,0-1.5,0.6-1.5,2.2v5.2h-2.5V624z"/>
			<path class="st8" d="M963.1,617.7h2.6v2.3h-2.6V617.7z M963.1,621.6h2.6v9.3h-2.6V621.6z"/>
			<path class="st8" d="M968,623.9c0-0.8,0-1.7,0-2.3h2.5c0.1,0.2,0.1,0.9,0.1,1.2c0.3-0.6,1.1-1.4,2.7-1.4c1.9,0,3.1,1.3,3.1,3.6
				v5.9h-2.6v-5.6c0-1-0.3-1.8-1.5-1.8c-1.1,0-1.7,0.6-1.7,2.3v5.2H968V623.9z"/>
			<path class="st8" d="M986.4,628.5c0,0.9,0.1,2.2,0.1,2.4H984c-0.1-0.2-0.1-0.7-0.1-0.9c-0.3,0.5-1,1.1-2.6,1.1
				c-2.2,0-3.2-1.5-3.2-2.9c0-2.1,1.7-3.1,4.4-3.1c0.5,0,1,0,1.3,0v-0.6c0-0.7-0.2-1.3-1.4-1.3c-1.1,0-1.3,0.5-1.4,1.1h-2.5
				c0.1-1.7,1.2-3,4-3c2.5,0,3.9,1,3.9,3.2V628.5z M983.9,626.6c-0.2,0-0.7,0-1.1,0c-1.6,0-2.1,0.5-2.1,1.4c0,0.7,0.4,1.2,1.3,1.2
				c1.6,0,1.8-1.1,1.8-2.4V626.6z"/>
			<path class="st8" d="M987.8,621.6h1.4V619h2.6v2.5h1.8v1.9h-1.8v4.6c0,0.7,0.2,1,1,1c0.1,0,0.4,0,0.6,0v1.8
				c-0.5,0.2-1.2,0.2-1.7,0.2c-1.8,0-2.4-1-2.4-2.6v-4.9h-1.4V621.6z"/>
			<path class="st8" d="M1003.9,626.2c0,2.8-1.7,4.9-4.6,4.9c-2.9,0-4.6-2.1-4.6-4.8c0-2.9,1.7-4.9,4.7-4.9
				C1002.1,621.3,1003.9,623.3,1003.9,626.2z M997.3,626.2c0,1.8,0.8,2.9,2,2.9c1.3,0,2-1.1,2-2.8c0-2-0.7-2.9-2-2.9
				C998.1,623.4,997.3,624.3,997.3,626.2z"/>
			<path class="st8" d="M1005.7,624.1c0-0.9,0-1.7,0-2.5h2.5c0,0.2,0.1,1.1,0.1,1.6c0.4-1.1,1.4-1.8,3-1.9v2.5c-1.9,0-3,0.5-3,3v4.1
				h-2.6V624.1z"/>
		</g>
	</g>
	<g>
		<g>
			<path class="st8" d="M708.2,620.7h-3.8v-2.2h10.2v2.2h-3.8v10.2h-2.7V620.7z"/>
			<path class="st8" d="M718,626.8c0,1.2,0.6,2.3,1.9,2.3c1.1,0,1.4-0.4,1.6-1h2.6c-0.3,1.1-1.3,3-4.3,3c-3.1,0-4.4-2.3-4.4-4.7
				c0-2.9,1.5-5,4.5-5c3.2,0,4.3,2.3,4.3,4.6c0,0.3,0,0.5,0,0.8H718z M721.6,625.2c0-1.1-0.5-2-1.7-2c-1.2,0-1.7,0.9-1.8,2H721.6z"
				/>
			<path class="st8" d="M725.9,624.1c0-0.9,0-1.7,0-2.5h2.5c0,0.2,0.1,1.1,0.1,1.6c0.4-1.1,1.4-1.8,3-1.9v2.5c-1.9,0-3,0.5-3,3v4.1
				h-2.6V624.1z"/>
			<path class="st8" d="M733,624c0-0.8,0-1.6,0-2.4h2.5c0,0.2,0.1,0.7,0.1,1.1c0.5-0.7,1.2-1.3,2.6-1.3c1.3,0,2.1,0.7,2.4,1.4
				c0.5-0.8,1.3-1.4,2.9-1.4c1.6,0,3,1,3,3.4v6.1h-2.5v-5.8c0-0.8-0.3-1.7-1.4-1.7c-1.1,0-1.5,0.7-1.5,2.1v5.3h-2.5v-5.7
				c0-1-0.2-1.7-1.3-1.7c-1,0-1.5,0.6-1.5,2.2v5.2H733V624z"/>
			<path class="st8" d="M748.7,617.7h2.6v2.3h-2.6V617.7z M748.7,621.6h2.6v9.3h-2.6V621.6z"/>
			<path class="st8" d="M753.6,623.9c0-0.8,0-1.7,0-2.3h2.5c0.1,0.2,0.1,0.9,0.1,1.2c0.3-0.6,1.1-1.4,2.7-1.4c1.9,0,3.1,1.3,3.1,3.6
				v5.9h-2.6v-5.6c0-1-0.3-1.8-1.5-1.8c-1.1,0-1.7,0.6-1.7,2.3v5.2h-2.6V623.9z"/>
			<path class="st8" d="M772,628.5c0,0.9,0.1,2.2,0.1,2.4h-2.5c-0.1-0.2-0.1-0.7-0.1-0.9c-0.3,0.5-1,1.1-2.6,1.1
				c-2.2,0-3.2-1.5-3.2-2.9c0-2.1,1.7-3.1,4.4-3.1c0.5,0,1,0,1.3,0v-0.6c0-0.7-0.2-1.3-1.4-1.3c-1.1,0-1.3,0.5-1.4,1.1h-2.5
				c0.1-1.7,1.2-3,4-3c2.5,0,3.9,1,3.9,3.2V628.5z M769.5,626.6c-0.2,0-0.7,0-1.1,0c-1.6,0-2.1,0.5-2.1,1.4c0,0.7,0.4,1.2,1.3,1.2
				c1.6,0,1.8-1.1,1.8-2.4V626.6z"/>
			<path class="st8" d="M773.4,621.6h1.4V619h2.6v2.5h1.8v1.9h-1.8v4.6c0,0.7,0.2,1,1,1c0.1,0,0.4,0,0.6,0v1.8
				c-0.5,0.2-1.2,0.2-1.7,0.2c-1.8,0-2.4-1-2.4-2.6v-4.9h-1.4V621.6z"/>
			<path class="st8" d="M789.5,626.2c0,2.8-1.7,4.9-4.6,4.9c-2.9,0-4.6-2.1-4.6-4.8c0-2.9,1.7-4.9,4.7-4.9
				C787.8,621.3,789.5,623.3,789.5,626.2z M782.9,626.2c0,1.8,0.8,2.9,2,2.9c1.3,0,2-1.1,2-2.8c0-2-0.7-2.9-2-2.9
				C783.7,623.4,782.9,624.3,782.9,626.2z"/>
			<path class="st8" d="M791.3,624.1c0-0.9,0-1.7,0-2.5h2.5c0,0.2,0.1,1.1,0.1,1.6c0.4-1.1,1.4-1.8,3-1.9v2.5c-1.9,0-3,0.5-3,3v4.1
				h-2.6V624.1z"/>
		</g>
	</g>
	<g>
		<g>
			<path class="st8" d="M509.9,620.7h-3.8v-2.2h10.2v2.2h-3.8v10.2h-2.7V620.7z"/>
			<path class="st8" d="M519.7,626.8c0,1.2,0.6,2.3,1.9,2.3c1.1,0,1.4-0.4,1.6-1h2.6c-0.3,1.1-1.3,3-4.3,3c-3.1,0-4.4-2.3-4.4-4.7
				c0-2.9,1.5-5,4.5-5c3.2,0,4.3,2.3,4.3,4.6c0,0.3,0,0.5,0,0.8H519.7z M523.3,625.2c0-1.1-0.5-2-1.7-2c-1.2,0-1.7,0.9-1.8,2H523.3z
				"/>
			<path class="st8" d="M527.7,624.1c0-0.9,0-1.7,0-2.5h2.5c0,0.2,0.1,1.1,0.1,1.6c0.4-1.1,1.4-1.8,3-1.9v2.5c-1.9,0-3,0.5-3,3v4.1
				h-2.6V624.1z"/>
			<path class="st8" d="M534.8,624c0-0.8,0-1.6,0-2.4h2.5c0,0.2,0.1,0.7,0.1,1.1c0.5-0.7,1.2-1.3,2.6-1.3c1.3,0,2.1,0.7,2.4,1.4
				c0.5-0.8,1.3-1.4,2.9-1.4c1.6,0,3,1,3,3.4v6.1h-2.5v-5.8c0-0.8-0.3-1.7-1.4-1.7c-1.1,0-1.5,0.7-1.5,2.1v5.3h-2.5v-5.7
				c0-1-0.2-1.7-1.3-1.7c-1,0-1.5,0.6-1.5,2.2v5.2h-2.5V624z"/>
			<path class="st8" d="M550.5,617.7h2.6v2.3h-2.6V617.7z M550.5,621.6h2.6v9.3h-2.6V621.6z"/>
			<path class="st8" d="M555.4,623.9c0-0.8,0-1.7,0-2.3h2.5c0.1,0.2,0.1,0.9,0.1,1.2c0.3-0.6,1.1-1.4,2.7-1.4c1.9,0,3.1,1.3,3.1,3.6
				v5.9h-2.6v-5.6c0-1-0.3-1.8-1.5-1.8c-1.1,0-1.7,0.6-1.7,2.3v5.2h-2.6V623.9z"/>
			<path class="st8" d="M573.8,628.5c0,0.9,0.1,2.2,0.1,2.4h-2.5c-0.1-0.2-0.1-0.7-0.1-0.9c-0.3,0.5-1,1.1-2.6,1.1
				c-2.2,0-3.2-1.5-3.2-2.9c0-2.1,1.7-3.1,4.4-3.1c0.5,0,1,0,1.3,0v-0.6c0-0.7-0.2-1.3-1.4-1.3c-1.1,0-1.3,0.5-1.4,1.1h-2.5
				c0.1-1.7,1.2-3,4-3c2.5,0,3.9,1,3.9,3.2V628.5z M571.2,626.6c-0.2,0-0.7,0-1.1,0c-1.6,0-2.1,0.5-2.1,1.4c0,0.7,0.4,1.2,1.3,1.2
				c1.6,0,1.8-1.1,1.8-2.4V626.6z"/>
			<path class="st8" d="M575.2,621.6h1.4V619h2.6v2.5h1.8v1.9h-1.8v4.6c0,0.7,0.2,1,1,1c0.1,0,0.4,0,0.6,0v1.8
				c-0.5,0.2-1.2,0.2-1.7,0.2c-1.8,0-2.4-1-2.4-2.6v-4.9h-1.4V621.6z"/>
			<path class="st8" d="M591.3,626.2c0,2.8-1.7,4.9-4.6,4.9c-2.9,0-4.6-2.1-4.6-4.8c0-2.9,1.7-4.9,4.7-4.9
				C589.5,621.3,591.3,623.3,591.3,626.2z M584.7,626.2c0,1.8,0.8,2.9,2,2.9c1.3,0,2-1.1,2-2.8c0-2-0.7-2.9-2-2.9
				C585.5,623.4,584.7,624.3,584.7,626.2z"/>
			<path class="st8" d="M593.1,624.1c0-0.9,0-1.7,0-2.5h2.5c0,0.2,0.1,1.1,0.1,1.6c0.4-1.1,1.4-1.8,3-1.9v2.5c-1.9,0-3,0.5-3,3v4.1
				h-2.6V624.1z"/>
		</g>
	</g>
	<g>
		<g>
			<path class="st8" d="M1131.8,620.7h-3.8v-2.2h10.2v2.2h-3.8v10.2h-2.7V620.7z"/>
			<path class="st8" d="M1141.6,626.8c0,1.2,0.6,2.3,1.9,2.3c1.1,0,1.4-0.4,1.6-1h2.6c-0.3,1.1-1.3,3-4.3,3c-3.1,0-4.4-2.3-4.4-4.7
				c0-2.9,1.5-5,4.5-5c3.2,0,4.3,2.3,4.3,4.6c0,0.3,0,0.5,0,0.8H1141.6z M1145.2,625.2c0-1.1-0.5-2-1.7-2c-1.2,0-1.7,0.9-1.8,2
				H1145.2z"/>
			<path class="st8" d="M1149.6,624.1c0-0.9,0-1.7,0-2.5h2.5c0,0.2,0.1,1.1,0.1,1.6c0.4-1.1,1.4-1.8,3-1.9v2.5c-1.9,0-3,0.5-3,3v4.1
				h-2.6V624.1z"/>
			<path class="st8" d="M1156.7,624c0-0.8,0-1.6,0-2.4h2.5c0,0.2,0.1,0.7,0.1,1.1c0.5-0.7,1.2-1.3,2.6-1.3c1.3,0,2.1,0.7,2.4,1.4
				c0.5-0.8,1.3-1.4,2.9-1.4c1.6,0,3,1,3,3.4v6.1h-2.5v-5.8c0-0.8-0.3-1.7-1.4-1.7c-1.1,0-1.5,0.7-1.5,2.1v5.3h-2.5v-5.7
				c0-1-0.2-1.7-1.3-1.7c-1,0-1.5,0.6-1.5,2.2v5.2h-2.5V624z"/>
			<path class="st8" d="M1172.3,617.7h2.6v2.3h-2.6V617.7z M1172.3,621.6h2.6v9.3h-2.6V621.6z"/>
			<path class="st8" d="M1177.3,623.9c0-0.8,0-1.7,0-2.3h2.5c0.1,0.2,0.1,0.9,0.1,1.2c0.3-0.6,1.1-1.4,2.7-1.4
				c1.9,0,3.1,1.3,3.1,3.6v5.9h-2.6v-5.6c0-1-0.3-1.8-1.5-1.8c-1.1,0-1.7,0.6-1.7,2.3v5.2h-2.6V623.9z"/>
			<path class="st8" d="M1195.6,628.5c0,0.9,0.1,2.2,0.1,2.4h-2.5c-0.1-0.2-0.1-0.7-0.1-0.9c-0.3,0.5-1,1.1-2.6,1.1
				c-2.2,0-3.2-1.5-3.2-2.9c0-2.1,1.7-3.1,4.4-3.1c0.5,0,1,0,1.3,0v-0.6c0-0.7-0.2-1.3-1.4-1.3c-1.1,0-1.3,0.5-1.4,1.1h-2.5
				c0.1-1.7,1.2-3,4-3c2.5,0,3.9,1,3.9,3.2V628.5z M1193.1,626.6c-0.2,0-0.7,0-1.1,0c-1.6,0-2.1,0.5-2.1,1.4c0,0.7,0.4,1.2,1.3,1.2
				c1.6,0,1.8-1.1,1.8-2.4V626.6z"/>
			<path class="st8" d="M1197.1,621.6h1.4V619h2.6v2.5h1.8v1.9h-1.8v4.6c0,0.7,0.2,1,1,1c0.1,0,0.4,0,0.6,0v1.8
				c-0.5,0.2-1.2,0.2-1.7,0.2c-1.8,0-2.4-1-2.4-2.6v-4.9h-1.4V621.6z"/>
			<path class="st8" d="M1213.2,626.2c0,2.8-1.7,4.9-4.6,4.9c-2.9,0-4.6-2.1-4.6-4.8c0-2.9,1.7-4.9,4.7-4.9
				C1211.4,621.3,1213.2,623.3,1213.2,626.2z M1206.6,626.2c0,1.8,0.8,2.9,2,2.9c1.3,0,2-1.1,2-2.8c0-2-0.7-2.9-2-2.9
				C1207.4,623.4,1206.6,624.3,1206.6,626.2z"/>
			<path class="st8" d="M1214.9,624.1c0-0.9,0-1.7,0-2.5h2.5c0,0.2,0.1,1.1,0.1,1.6c0.4-1.1,1.4-1.8,3-1.9v2.5c-1.9,0-3,0.5-3,3v4.1
				h-2.6V624.1z"/>
		</g>
	</g>
	<g>
		<g>
			<path class="st8" d="M729.4,608c0.3,1.2,1.2,1.8,2.6,1.8c1.4,0,2-0.6,2-1.5c0-1-0.6-1.4-2.7-1.9c-3.4-0.8-4.2-2-4.2-3.7
				c0-2.2,1.6-3.6,4.6-3.6c3.3,0,4.6,1.8,4.8,3.6h-2.7c-0.1-0.8-0.6-1.6-2.2-1.6c-1.1,0-1.7,0.5-1.7,1.3c0,0.9,0.5,1.2,2.5,1.7
				c3.6,0.9,4.4,2.2,4.4,3.9c0,2.3-1.7,3.8-5,3.8c-3.2,0-4.8-1.6-5.1-3.8H729.4z"/>
			<path class="st8" d="M741.3,598.5v4.9c0.4-0.6,1.2-1.3,2.7-1.3c1.7,0,3.1,1,3.1,3.6v6h-2.6v-5.6c0-1.2-0.4-1.9-1.5-1.9
				c-1.4,0-1.7,1.1-1.7,2.5v4.9h-2.6v-13.1H741.3z"/>
			<path class="st8" d="M758,607c0,2.8-1.7,4.9-4.6,4.9c-2.9,0-4.6-2.1-4.6-4.8c0-2.9,1.7-4.9,4.7-4.9
				C756.3,602.1,758,604.1,758,607z M751.4,607c0,1.8,0.8,2.9,2,2.9c1.3,0,2-1.1,2-2.8c0-2-0.7-2.9-2-2.9
				C752.2,604.1,751.4,605,751.4,607z"/>
			<path class="st8" d="M762.4,610.8v4.4h-2.6v-10.6c0-0.8,0-1.5,0-2.2h2.5c0,0.2,0.1,0.8,0.1,1.2c0.4-0.7,1.2-1.4,2.7-1.4
				c2.1,0,3.7,1.8,3.7,4.6c0,3.3-1.8,5.1-4.1,5.1C763.4,611.9,762.7,611.4,762.4,610.8z M766.2,606.9c0-1.7-0.7-2.7-1.9-2.7
				c-1.5,0-2,0.9-2,2.8c0,1.8,0.5,2.8,1.9,2.8C765.5,609.8,766.2,608.8,766.2,606.9z"/>
		</g>
	</g>
	<g>
		<g>
			<path class="st8" d="M915.7,607.8c-0.5,2.3-2.2,4-5.4,4c-3.9,0-5.8-2.8-5.8-6.3c0-3.4,1.9-6.5,5.9-6.5c3.3,0,4.9,1.9,5.2,4H913
				c-0.3-1-0.9-1.9-2.6-1.9c-2.2,0-3.1,2-3.1,4.2c0,2.1,0.7,4.3,3.1,4.3c1.8,0,2.3-1.2,2.5-1.9H915.7z"/>
			<path class="st8" d="M925.4,609.2c0,0.9,0.1,2.2,0.1,2.4H923c-0.1-0.2-0.1-0.7-0.1-0.9c-0.3,0.5-1,1.1-2.6,1.1
				c-2.2,0-3.2-1.5-3.2-2.9c0-2.1,1.7-3.1,4.4-3.1c0.5,0,1,0,1.3,0v-0.6c0-0.7-0.2-1.3-1.4-1.3c-1.1,0-1.3,0.5-1.4,1.1h-2.5
				c0.1-1.7,1.2-3,4-3c2.5,0,3.9,1,3.9,3.2V609.2z M922.9,607.4c-0.2,0-0.7,0-1.1,0c-1.6,0-2.1,0.5-2.1,1.4c0,0.7,0.4,1.2,1.3,1.2
				c1.6,0,1.8-1.1,1.8-2.4V607.4z"/>
			<path class="st8" d="M927.7,604.8c0-0.9,0-1.7,0-2.5h2.5c0,0.2,0.1,1.1,0.1,1.6c0.4-1.1,1.4-1.8,3-1.9v2.5c-1.9,0-3,0.5-3,3v4.1
				h-2.6V604.8z"/>
			<path class="st8" d="M943.4,598.5v10.6c0,0.8,0,1.7,0,2.6h-2.5c-0.1-0.3-0.1-0.8-0.1-1c-0.5,0.7-1.3,1.2-2.6,1.2
				c-2.4,0-3.9-1.9-3.9-4.8c0-2.9,1.6-5,4.2-5c1.3,0,2.1,0.5,2.3,0.9v-4.5H943.4z M936.9,607c0,1.8,0.7,2.8,2,2.8c1.8,0,2-1.5,2-2.8
				c0-1.6-0.2-2.8-1.9-2.8C937.6,604.2,936.9,605.2,936.9,607z"/>
			<path class="st8" d="M945.1,612.5l5-13.5h2.1l-5,13.5H945.1z"/>
			<path class="st8" d="M956.2,608c0.3,1.2,1.2,1.8,2.6,1.8c1.4,0,2-0.6,2-1.5c0-1-0.6-1.4-2.7-1.9c-3.4-0.8-4.2-2-4.2-3.7
				c0-2.2,1.6-3.6,4.6-3.6c3.3,0,4.6,1.8,4.8,3.6h-2.7c-0.1-0.8-0.6-1.6-2.2-1.6c-1.1,0-1.7,0.5-1.7,1.3c0,0.9,0.5,1.2,2.5,1.7
				c3.6,0.9,4.4,2.2,4.4,3.9c0,2.3-1.7,3.8-5,3.8c-3.2,0-4.8-1.6-5.1-3.8H956.2z"/>
			<path class="st8" d="M967.5,607.5c0,1.2,0.6,2.3,1.9,2.3c1.1,0,1.4-0.4,1.6-1h2.6c-0.3,1.1-1.3,3-4.3,3c-3.1,0-4.4-2.3-4.4-4.7
				c0-2.9,1.5-5,4.5-5c3.2,0,4.3,2.3,4.3,4.6c0,0.3,0,0.5,0,0.8H967.5z M971.1,605.9c0-1.1-0.5-2-1.7-2c-1.2,0-1.7,0.9-1.8,2H971.1z
				"/>
			<path class="st8" d="M975.4,604.8c0-0.9,0-1.7,0-2.5h2.5c0,0.2,0.1,1.1,0.1,1.6c0.4-1.1,1.4-1.8,3-1.9v2.5c-1.9,0-3,0.5-3,3v4.1
				h-2.6V604.8z"/>
			<path class="st8" d="M984.3,602.3c0.9,3.2,1.6,5.9,1.8,7h0c0.3-1.5,1.2-4.3,2-7h2.6l-3.3,9.3h-2.7l-3.2-9.3H984.3z"/>
			<path class="st8" d="M991.9,598.5h2.6v2.3h-2.6V598.5z M991.9,602.3h2.6v9.3h-2.6V602.3z"/>
			<path class="st8" d="M1004.9,608.6c-0.3,1.6-1.4,3.2-4.2,3.2c-2.9,0-4.4-2-4.4-4.8c0-2.8,1.7-4.9,4.5-4.9c3.1,0,4,2.3,4.1,3.3
				h-2.5c-0.2-0.8-0.6-1.3-1.6-1.3c-1.2,0-1.8,1-1.8,2.8c0,2,0.7,2.9,1.8,2.9c0.9,0,1.4-0.5,1.6-1.2H1004.9z"/>
			<path class="st8" d="M1008.6,607.5c0,1.2,0.6,2.3,1.9,2.3c1.1,0,1.4-0.4,1.6-1h2.6c-0.3,1.1-1.3,3-4.3,3c-3.1,0-4.4-2.3-4.4-4.7
				c0-2.9,1.5-5,4.5-5c3.2,0,4.3,2.3,4.3,4.6c0,0.3,0,0.5,0,0.8H1008.6z M1012.2,605.9c0-1.1-0.5-2-1.7-2c-1.2,0-1.7,0.9-1.8,2
				H1012.2z"/>
			<path class="st8" d="M1018.4,608.8c0.2,0.7,0.8,1.2,1.8,1.2c1,0,1.3-0.3,1.3-0.9c0-0.6-0.4-0.8-1.7-1.2c-3-0.7-3.5-1.7-3.5-3
				c0-1.4,1-2.8,3.8-2.8c2.8,0,3.8,1.5,3.9,2.8h-2.5c-0.1-0.3-0.3-1-1.5-1c-0.9,0-1.1,0.4-1.1,0.8c0,0.5,0.3,0.7,1.8,1
				c3.1,0.7,3.5,1.8,3.5,3.2c0,1.5-1.2,2.9-4,2.9c-2.8,0-4-1.4-4.2-3H1018.4z"/>
		</g>
	</g>
	<g>
		<g>
			<path class="st8" d="M1136.6,607.6c-0.5,2.3-2.2,4-5.4,4c-3.9,0-5.8-2.8-5.8-6.3c0-3.4,1.9-6.5,5.9-6.5c3.3,0,4.9,1.9,5.2,4h-2.7
				c-0.3-1-0.9-1.9-2.6-1.9c-2.2,0-3.1,2-3.1,4.2c0,2.1,0.7,4.3,3.1,4.3c1.8,0,2.3-1.2,2.5-1.9H1136.6z"/>
			<path class="st8" d="M1147.3,606.8c0,2.8-1.7,4.9-4.6,4.9c-2.9,0-4.6-2.1-4.6-4.8c0-2.9,1.7-4.9,4.7-4.9
				C1145.5,601.9,1147.3,603.8,1147.3,606.8z M1140.7,606.8c0,1.8,0.8,2.9,2,2.9c1.3,0,2-1.1,2-2.8c0-2-0.7-2.9-2-2.9
				C1141.4,603.9,1140.7,604.8,1140.7,606.8z"/>
			<path class="st8" d="M1149,604.5c0-0.8,0-1.7,0-2.3h2.5c0.1,0.2,0.1,0.9,0.1,1.2c0.3-0.6,1.1-1.4,2.7-1.4c1.9,0,3.1,1.3,3.1,3.6
				v5.9h-2.6v-5.6c0-1-0.3-1.8-1.5-1.8c-1.1,0-1.7,0.6-1.7,2.3v5.2h-2.6V604.5z"/>
			<path class="st8" d="M1158.8,602.1h1.4v-2.5h2.6v2.5h1.8v1.9h-1.8v4.6c0,0.7,0.2,1,1,1c0.1,0,0.4,0,0.6,0v1.8
				c-0.5,0.2-1.2,0.2-1.7,0.2c-1.8,0-2.4-1-2.4-2.6v-4.9h-1.4V602.1z"/>
			<path class="st8" d="M1174,609c0,0.9,0.1,2.2,0.1,2.4h-2.5c-0.1-0.2-0.1-0.7-0.1-0.9c-0.3,0.5-1,1.1-2.6,1.1
				c-2.2,0-3.2-1.5-3.2-2.9c0-2.1,1.7-3.1,4.4-3.1c0.5,0,1,0,1.3,0v-0.6c0-0.7-0.2-1.3-1.4-1.3c-1.1,0-1.3,0.5-1.4,1.1h-2.5
				c0.1-1.7,1.2-3,4-3c2.5,0,3.9,1,3.9,3.2V609z M1171.4,607.2c-0.2,0-0.7,0-1.1,0c-1.6,0-2.1,0.5-2.1,1.4c0,0.7,0.4,1.2,1.3,1.2
				c1.6,0,1.8-1.1,1.8-2.4V607.2z"/>
			<path class="st8" d="M1184.4,608.4c-0.3,1.6-1.4,3.2-4.2,3.2c-2.9,0-4.4-2-4.4-4.8c0-2.8,1.7-4.9,4.5-4.9c3.1,0,4,2.3,4.1,3.3
				h-2.5c-0.2-0.8-0.6-1.3-1.6-1.3c-1.2,0-1.8,1-1.8,2.8c0,2,0.7,2.9,1.8,2.9c0.9,0,1.4-0.5,1.6-1.2H1184.4z"/>
			<path class="st8" d="M1185.1,602.1h1.4v-2.5h2.6v2.5h1.8v1.9h-1.8v4.6c0,0.7,0.2,1,1,1c0.1,0,0.4,0,0.6,0v1.8
				c-0.5,0.2-1.2,0.2-1.7,0.2c-1.8,0-2.4-1-2.4-2.6v-4.9h-1.4V602.1z"/>
			<path class="st8" d="M1199.7,599v7.4c0,2.4,1.2,3.1,2.6,3.1c1.5,0,2.5-0.8,2.5-3.1V599h2.7v7.3c0,4.2-2.5,5.3-5.2,5.3
				c-2.8,0-5.2-1.1-5.2-5.3V599H1199.7z"/>
			<path class="st8" d="M1211.8,608.6c0.2,0.7,0.8,1.2,1.8,1.2c1,0,1.3-0.3,1.3-0.9c0-0.6-0.4-0.8-1.7-1.2c-3-0.7-3.5-1.7-3.5-3
				c0-1.4,1-2.8,3.8-2.8c2.8,0,3.8,1.5,3.9,2.8h-2.5c-0.1-0.3-0.3-1-1.5-1c-0.9,0-1.1,0.4-1.1,0.8c0,0.5,0.3,0.7,1.8,1
				c3.1,0.7,3.5,1.8,3.5,3.2c0,1.5-1.2,2.9-4,2.9c-2.8,0-4-1.4-4.2-3H1211.8z"/>
		</g>
	</g>
	<g>
		<g>
			<path class="st17" d="M939.8,805h-2c-0.1-0.4-0.2-0.8-0.2-1.2c-0.7,0.9-1.9,1.4-3.6,1.4c-3.6,0-5.6-2.7-5.6-6.3
				c0-3.7,2.2-6.5,6.1-6.5c3.2,0,5.1,1.8,5.4,3.9h-2.7c-0.3-0.8-0.9-1.8-2.7-1.8c-2.5,0-3.3,2.1-3.3,4.3c0,2.1,0.8,4.2,3.3,4.2
				c2.3,0,2.7-1.6,2.7-2.7v-0.1h-2.7v-2.2h5.4V805z"/>
			<path class="st17" d="M942.2,791.9h2.6v2.3h-2.6V791.9z M942.2,795.7h2.6v9.3h-2.6V795.7z"/>
			<path class="st17" d="M947.5,805v-7.4h-1.4v-1.9h1.4v-0.8c0-1.9,1-3.2,3-3.2c0.4,0,1,0,1.2,0.1v2c-0.1,0-0.3,0-0.5,0
				c-0.8,0-1,0.3-1,1.3v0.6h1.6v1.9h-1.6v7.4H947.5z"/>
			<path class="st17" d="M952.2,795.7h1.4v-2.5h2.6v2.5h1.8v1.9h-1.8v4.6c0,0.7,0.2,1,1,1c0.1,0,0.4,0,0.6,0v1.8
				c-0.5,0.2-1.2,0.2-1.7,0.2c-1.8,0-2.4-1-2.4-2.6v-4.9h-1.4V795.7z"/>
			<path class="st17" d="M930.9,823c0.3,1.2,1.2,1.8,2.6,1.8c1.4,0,2-0.6,2-1.5c0-1-0.6-1.4-2.7-1.9c-3.4-0.8-4.2-2-4.2-3.7
				c0-2.2,1.6-3.6,4.6-3.6c3.3,0,4.6,1.8,4.8,3.6h-2.7c-0.1-0.8-0.6-1.6-2.2-1.6c-1.1,0-1.7,0.5-1.7,1.3c0,0.9,0.5,1.2,2.5,1.7
				c3.6,0.9,4.4,2.2,4.4,3.9c0,2.3-1.7,3.8-5,3.8c-3.2,0-4.8-1.6-5.1-3.8H930.9z"/>
			<path class="st17" d="M947.9,824.2c0,0.9,0.1,2.2,0.1,2.4h-2.5c-0.1-0.2-0.1-0.7-0.1-0.9c-0.3,0.5-1,1.1-2.6,1.1
				c-2.2,0-3.2-1.5-3.2-2.9c0-2.1,1.7-3.1,4.4-3.1c0.5,0,1,0,1.3,0v-0.6c0-0.7-0.2-1.3-1.4-1.3c-1.1,0-1.3,0.5-1.4,1.1H940
				c0.1-1.7,1.2-3,4-3c2.5,0,3.9,1,3.9,3.2V824.2z M945.4,822.4c-0.2,0-0.7,0-1.1,0c-1.6,0-2.1,0.5-2.1,1.4c0,0.7,0.4,1.2,1.3,1.2
				c1.6,0,1.8-1.1,1.8-2.4V822.4z"/>
			<path class="st17" d="M950.2,826.6v-13.1h2.6v13.1H950.2z"/>
			<path class="st17" d="M957.2,822.5c0,1.2,0.6,2.3,1.9,2.3c1.1,0,1.4-0.4,1.6-1h2.6c-0.3,1.1-1.3,3-4.3,3c-3.1,0-4.4-2.3-4.4-4.7
				c0-2.9,1.5-5,4.5-5c3.2,0,4.3,2.3,4.3,4.6c0,0.3,0,0.5,0,0.8H957.2z M960.8,820.9c0-1.1-0.5-2-1.7-2c-1.2,0-1.7,0.9-1.8,2H960.8z
				"/>
			<path class="st17" d="M967,823.8c0.2,0.7,0.8,1.2,1.8,1.2c1,0,1.3-0.3,1.3-0.9c0-0.6-0.4-0.8-1.7-1.2c-3-0.7-3.5-1.7-3.5-3
				c0-1.4,1-2.8,3.8-2.8c2.8,0,3.8,1.5,3.9,2.8H970c-0.1-0.3-0.3-1-1.5-1c-0.9,0-1.1,0.4-1.1,0.8c0,0.5,0.3,0.7,1.8,1
				c3.1,0.7,3.5,1.8,3.5,3.2c0,1.5-1.2,2.9-4,2.9c-2.8,0-4-1.4-4.2-3H967z"/>
			<path class="st17" d="M930.9,844.6c0.3,1.2,1.2,1.8,2.6,1.8c1.4,0,2-0.6,2-1.5c0-1-0.6-1.4-2.7-1.9c-3.4-0.8-4.2-2-4.2-3.7
				c0-2.2,1.6-3.6,4.6-3.6c3.3,0,4.6,1.8,4.8,3.6h-2.7c-0.1-0.8-0.6-1.6-2.2-1.6c-1.1,0-1.7,0.5-1.7,1.3c0,0.9,0.5,1.2,2.5,1.7
				c3.6,0.9,4.4,2.2,4.4,3.9c0,2.3-1.7,3.8-5,3.8c-3.2,0-4.8-1.6-5.1-3.8H930.9z"/>
			<path class="st17" d="M942.2,844.1c0,1.2,0.6,2.3,1.9,2.3c1.1,0,1.4-0.4,1.6-1h2.6c-0.3,1.1-1.3,3-4.3,3c-3.1,0-4.4-2.3-4.4-4.7
				c0-2.9,1.5-5,4.5-5c3.2,0,4.3,2.3,4.3,4.6c0,0.3,0,0.5,0,0.8H942.2z M945.8,842.5c0-1.1-0.5-2-1.7-2c-1.2,0-1.7,0.9-1.8,2H945.8z
				"/>
			<path class="st17" d="M950.1,841.4c0-0.9,0-1.7,0-2.5h2.5c0,0.2,0.1,1.1,0.1,1.6c0.4-1.1,1.4-1.8,3-1.9v2.5c-1.9,0-3,0.5-3,3v4.1
				h-2.6V841.4z"/>
			<path class="st17" d="M959,838.9c0.9,3.2,1.6,5.9,1.8,7h0c0.3-1.5,1.2-4.3,2-7h2.6l-3.3,9.3h-2.7l-3.2-9.3H959z"/>
			<path class="st17" d="M966.6,835.1h2.6v2.3h-2.6V835.1z M966.6,838.9h2.6v9.3h-2.6V838.9z"/>
			<path class="st17" d="M979.6,845.2c-0.3,1.6-1.4,3.2-4.2,3.2c-2.9,0-4.4-2-4.4-4.8c0-2.8,1.7-4.9,4.5-4.9c3.1,0,4,2.3,4.1,3.3
				h-2.5c-0.2-0.8-0.6-1.3-1.6-1.3c-1.2,0-1.8,1-1.8,2.8c0,2,0.7,2.9,1.8,2.9c0.9,0,1.4-0.5,1.6-1.2H979.6z"/>
			<path class="st17" d="M983.3,844.1c0,1.2,0.6,2.3,1.9,2.3c1.1,0,1.4-0.4,1.6-1h2.6c-0.3,1.1-1.3,3-4.3,3c-3.1,0-4.4-2.3-4.4-4.7
				c0-2.9,1.5-5,4.5-5c3.2,0,4.3,2.3,4.3,4.6c0,0.3,0,0.5,0,0.8H983.3z M986.9,842.5c0-1.1-0.5-2-1.7-2c-1.2,0-1.7,0.9-1.8,2H986.9z
				"/>
			<path class="st17" d="M993.1,845.4c0.2,0.7,0.8,1.2,1.8,1.2c1,0,1.3-0.3,1.3-0.9c0-0.6-0.4-0.8-1.7-1.2c-3-0.7-3.5-1.7-3.5-3
				c0-1.4,1-2.8,3.8-2.8c2.8,0,3.8,1.5,3.9,2.8h-2.5c-0.1-0.3-0.3-1-1.5-1c-0.9,0-1.1,0.4-1.1,0.8c0,0.5,0.3,0.7,1.8,1
				c3.1,0.7,3.5,1.8,3.5,3.2c0,1.5-1.2,2.9-4,2.9c-2.8,0-4-1.4-4.2-3H993.1z"/>
		</g>
	</g>
	<g>
		<g>
			<path class="st17" d="M820,292.1h-4.3v2.3h4.7l-0.2,1.6h-6.4v-9h6.4v1.6h-4.5v1.9h4.3V292.1z"/>
			<path class="st17" d="M821.6,291c0-0.6,0-1.2,0-1.7h1.8c0,0.2,0.1,0.5,0.1,0.8c0.3-0.5,0.9-1,1.9-1c1,0,1.5,0.5,1.7,1
				c0.4-0.5,1-1,2.1-1c1.2,0,2.1,0.7,2.1,2.5v4.4h-1.8v-4.2c0-0.6-0.2-1.2-1-1.2c-0.8,0-1.1,0.5-1.1,1.5v3.8h-1.8v-4.1
				c0-0.7-0.2-1.3-1-1.3c-0.8,0-1.1,0.5-1.1,1.6v3.8h-1.8V291z"/>
			<path class="st17" d="M838.5,294.2c0,0.6,0.1,1.6,0.1,1.7h-1.8c-0.1-0.1-0.1-0.5-0.1-0.7c-0.2,0.4-0.7,0.8-1.9,0.8
				c-1.6,0-2.3-1.1-2.3-2.1c0-1.5,1.2-2.2,3.2-2.2c0.3,0,0.7,0,1,0v-0.4c0-0.5-0.2-0.9-1-0.9c-0.8,0-1,0.3-1,0.8h-1.8
				c0.1-1.2,0.8-2.2,2.9-2.2c1.8,0,2.8,0.7,2.8,2.3V294.2z M836.7,292.9c-0.2,0-0.5,0-0.8,0c-1.1,0-1.5,0.3-1.5,1
				c0,0.5,0.3,0.9,1,0.9c1.2,0,1.3-0.8,1.3-1.7V292.9z"/>
			<path class="st17" d="M840.2,286.5h1.9v1.7h-1.9V286.5z M840.2,289.2h1.9v6.7h-1.9V289.2z"/>
			<path class="st17" d="M843.7,296v-9.5h1.9v9.5H843.7z"/>
			<path class="st17" d="M850.7,287h1.9v7.4h4.5l-0.2,1.6h-6.2V287z"/>
			<path class="st17" d="M858,286.5h1.9v1.7H858V286.5z M858,289.2h1.9v6.7H858V289.2z"/>
			<path class="st17" d="M863,293.9c0.1,0.5,0.6,0.8,1.3,0.8c0.7,0,0.9-0.2,0.9-0.7c0-0.4-0.3-0.6-1.3-0.8c-2.2-0.5-2.6-1.2-2.6-2.2
				c0-1,0.7-2,2.7-2c2,0,2.7,1.1,2.8,2h-1.8c-0.1-0.2-0.2-0.7-1.1-0.7c-0.6,0-0.8,0.3-0.8,0.6c0,0.3,0.2,0.5,1.3,0.8
				c2.2,0.5,2.6,1.3,2.6,2.3c0,1.1-0.8,2.1-2.9,2.1c-2,0-2.9-1-3-2.2H863z"/>
			<path class="st17" d="M867.6,289.2h1v-1.8h1.9v1.8h1.3v1.4h-1.3v3.3c0,0.5,0.2,0.7,0.7,0.7c0.1,0,0.3,0,0.4,0v1.3
				c-0.4,0.1-0.9,0.1-1.3,0.1c-1.3,0-1.7-0.7-1.7-1.9v-3.5h-1V289.2z"/>
			<path class="st17" d="M821.4,308.8c-0.4,1.7-1.6,2.9-3.9,2.9c-2.8,0-4.2-2-4.2-4.6c0-2.5,1.4-4.7,4.3-4.7c2.4,0,3.5,1.4,3.8,2.9
				h-1.9c-0.2-0.7-0.7-1.4-1.9-1.4c-1.6,0-2.2,1.4-2.2,3.1c0,1.5,0.5,3.1,2.3,3.1c1.3,0,1.7-0.8,1.8-1.4H821.4z"/>
			<path class="st17" d="M822.8,306.7c0-0.7,0-1.3,0-1.8h1.8c0,0.2,0,0.8,0,1.2c0.3-0.8,1-1.3,2.2-1.3v1.8c-1.4,0-2.2,0.3-2.2,2.2
				v2.9h-1.9V306.7z"/>
			<path class="st17" d="M829.4,308.6c0,0.8,0.4,1.7,1.4,1.7c0.8,0,1-0.3,1.2-0.7h1.9c-0.2,0.8-1,2.2-3.1,2.2
				c-2.2,0-3.2-1.7-3.2-3.4c0-2.1,1.1-3.6,3.2-3.6c2.3,0,3.1,1.7,3.1,3.4c0,0.2,0,0.4,0,0.6H829.4z M832,307.5
				c0-0.8-0.3-1.4-1.2-1.4c-0.9,0-1.3,0.6-1.3,1.4H832z"/>
			<path class="st17" d="M840.8,309.8c0,0.6,0.1,1.6,0.1,1.7h-1.8c-0.1-0.1-0.1-0.5-0.1-0.7c-0.2,0.4-0.7,0.8-1.9,0.8
				c-1.6,0-2.3-1.1-2.3-2.1c0-1.5,1.2-2.2,3.2-2.2c0.3,0,0.7,0,1,0V307c0-0.5-0.2-0.9-1-0.9c-0.8,0-1,0.3-1,0.8h-1.8
				c0.1-1.2,0.8-2.2,2.9-2.2c1.8,0,2.8,0.7,2.8,2.3V309.8z M838.9,308.5c-0.2,0-0.5,0-0.8,0c-1.1,0-1.5,0.3-1.5,1
				c0,0.5,0.3,0.9,1,0.9c1.2,0,1.3-0.8,1.3-1.7V308.5z"/>
			<path class="st17" d="M841.8,304.8h1V303h1.9v1.8h1.3v1.4h-1.3v3.3c0,0.5,0.2,0.7,0.7,0.7c0.1,0,0.3,0,0.4,0v1.3
				c-0.4,0.1-0.9,0.1-1.3,0.1c-1.3,0-1.7-0.7-1.7-1.9v-3.5h-1V304.8z"/>
			<path class="st17" d="M848.6,308.6c0,0.8,0.4,1.7,1.4,1.7c0.8,0,1-0.3,1.2-0.7h1.9c-0.2,0.8-1,2.2-3.1,2.2
				c-2.2,0-3.2-1.7-3.2-3.4c0-2.1,1.1-3.6,3.2-3.6c2.3,0,3.1,1.7,3.1,3.4c0,0.2,0,0.4,0,0.6H848.6z M851.2,307.5
				c0-0.8-0.3-1.4-1.2-1.4c-0.9,0-1.3,0.6-1.3,1.4H851.2z"/>
			<path class="st17" d="M857.8,302.6h3.7c1.9,0,3.2,1.1,3.2,2.8c0,1.9-1.5,2.8-3.2,2.8h-1.7v3.3h-1.9V302.6z M859.7,306.7h1.5
				c0.9,0,1.5-0.3,1.5-1.3c0-0.9-0.7-1.3-1.5-1.3h-1.5V306.7z"/>
			<path class="st17" d="M866,306.7c0-0.7,0-1.3,0-1.8h1.8c0,0.2,0,0.8,0,1.2c0.3-0.8,1-1.3,2.2-1.3v1.8c-1.4,0-2.2,0.3-2.2,2.2v2.9
				H866V306.7z"/>
			<path class="st17" d="M877.4,308.2c0,2-1.2,3.5-3.3,3.5c-2.1,0-3.3-1.5-3.3-3.5c0-2.1,1.3-3.5,3.4-3.5
				C876.1,304.7,877.4,306.1,877.4,308.2z M872.6,308.2c0,1.3,0.6,2.1,1.5,2.1c0.9,0,1.4-0.8,1.4-2.1c0-1.4-0.5-2.1-1.4-2.1
				C873.2,306.1,872.6,306.8,872.6,308.2z"/>
			<path class="st17" d="M878.9,311.6v-5.3h-1v-1.4h1v-0.6c0-1.4,0.7-2.3,2.1-2.3c0.3,0,0.7,0,0.9,0.1v1.5c-0.1,0-0.2,0-0.4,0
				c-0.5,0-0.8,0.2-0.8,0.9v0.5h1.2v1.4h-1.2v5.3H878.9z"/>
			<path class="st17" d="M883,302.1h1.9v1.7H883V302.1z M883,304.8h1.9v6.7H883V304.8z"/>
			<path class="st17" d="M886.5,311.6v-9.5h1.9v9.5H886.5z"/>
			<path class="st17" d="M891.5,308.6c0,0.8,0.4,1.7,1.4,1.7c0.8,0,1-0.3,1.2-0.7h1.9c-0.2,0.8-1,2.2-3.1,2.2
				c-2.2,0-3.2-1.7-3.2-3.4c0-2.1,1.1-3.6,3.2-3.6c2.3,0,3.1,1.7,3.1,3.4c0,0.2,0,0.4,0,0.6H891.5z M894.1,307.5
				c0-0.8-0.3-1.4-1.2-1.4c-0.9,0-1.3,0.6-1.3,1.4H894.1z"/>
			<path class="st17" d="M813.8,324.2h3.9c2.2,0,3,1.1,3,2.3c0,1-0.5,1.7-1.1,1.9c0.6,0.2,1.4,0.9,1.4,2c0,1.5-1.2,2.7-3.1,2.7h-4
				V324.2z M817.5,327.7c0.9,0,1.3-0.4,1.3-1c0-0.7-0.5-1-1.2-1h-1.8v2H817.5z M815.7,331.7h1.7c1,0,1.5-0.4,1.5-1.2
				c0-0.7-0.5-1.2-1.5-1.2h-1.7V331.7z"/>
			<path class="st17" d="M822.4,328.3c0-0.7,0-1.3,0-1.8h1.8c0,0.2,0,0.8,0,1.2c0.3-0.8,1-1.3,2.2-1.3v1.8c-1.4,0-2.2,0.3-2.2,2.2
				v2.9h-1.9V328.3z"/>
			<path class="st17" d="M833.7,329.8c0,2-1.2,3.5-3.3,3.5c-2.1,0-3.3-1.5-3.3-3.5c0-2.1,1.3-3.5,3.4-3.5
				C832.5,326.3,833.7,327.7,833.7,329.8z M829,329.8c0,1.3,0.6,2.1,1.5,2.1c0.9,0,1.4-0.8,1.4-2.1c0-1.4-0.5-2.1-1.4-2.1
				C829.5,327.7,829,328.4,829,329.8z"/>
			<path class="st17" d="M836.4,326.4c0.6,2.7,0.9,4.2,1.1,5.1h0c0.1-0.7,0.3-1.8,1.1-5.1h1.7c0.8,3.3,1,4.3,1.1,5h0
				c0.1-0.7,0.3-1.7,1.1-5h1.8l-2,6.7h-2c-0.6-2.6-0.9-3.9-1-4.8h0c-0.1,0.8-0.5,2.4-1.1,4.8h-2l-1.9-6.7H836.4z"/>
			<path class="st17" d="M846.8,331.1c0.1,0.5,0.6,0.8,1.3,0.8c0.7,0,0.9-0.2,0.9-0.7c0-0.4-0.3-0.6-1.3-0.8
				c-2.2-0.5-2.6-1.2-2.6-2.2c0-1,0.7-2,2.7-2c2,0,2.7,1.1,2.8,2H849c-0.1-0.2-0.2-0.7-1.1-0.7c-0.6,0-0.8,0.3-0.8,0.6
				c0,0.3,0.2,0.5,1.3,0.8c2.2,0.5,2.6,1.3,2.6,2.3c0,1.1-0.8,2.1-2.9,2.1c-2,0-2.9-1-3-2.2H846.8z"/>
			<path class="st17" d="M856.9,330.5c0.2,0.9,0.8,1.3,1.9,1.3c1,0,1.5-0.4,1.5-1.1c0-0.7-0.4-1-2-1.4c-2.4-0.6-3-1.5-3-2.7
				c0-1.6,1.2-2.6,3.3-2.6c2.4,0,3.3,1.3,3.5,2.6h-2c-0.1-0.6-0.4-1.2-1.6-1.2c-0.8,0-1.3,0.3-1.3,1c0,0.6,0.4,0.9,1.8,1.2
				c2.6,0.6,3.2,1.6,3.2,2.8c0,1.6-1.2,2.8-3.6,2.8c-2.3,0-3.5-1.1-3.7-2.8H856.9z"/>
			<path class="st17" d="M865.1,330.2c0,0.8,0.4,1.7,1.4,1.7c0.8,0,1-0.3,1.2-0.7h1.9c-0.2,0.8-1,2.2-3.1,2.2
				c-2.2,0-3.2-1.7-3.2-3.4c0-2.1,1.1-3.6,3.2-3.6c2.3,0,3.1,1.7,3.1,3.4c0,0.2,0,0.4,0,0.6H865.1z M867.7,329.1
				c0-0.8-0.3-1.4-1.2-1.4c-0.9,0-1.3,0.6-1.3,1.4H867.7z"/>
			<path class="st17" d="M870.8,328.3c0-0.7,0-1.3,0-1.8h1.8c0,0.2,0,0.8,0,1.2c0.3-0.8,1-1.3,2.2-1.3v1.8c-1.4,0-2.2,0.3-2.2,2.2
				v2.9h-1.9V328.3z"/>
			<path class="st17" d="M877.2,326.4c0.6,2.3,1.2,4.3,1.3,5.1h0c0.2-1.1,0.8-3.1,1.4-5.1h1.9l-2.4,6.7h-2l-2.3-6.7H877.2z"/>
			<path class="st17" d="M882.7,323.7h1.9v1.7h-1.9V323.7z M882.7,326.4h1.9v6.7h-1.9V326.4z"/>
			<path class="st17" d="M892.1,331c-0.2,1.1-1,2.3-3,2.3c-2.1,0-3.2-1.4-3.2-3.5c0-2,1.2-3.6,3.3-3.6c2.3,0,2.9,1.6,2.9,2.4h-1.8
				c-0.1-0.5-0.4-0.9-1.2-0.9c-0.9,0-1.3,0.7-1.3,2.1c0,1.4,0.5,2.1,1.3,2.1c0.6,0,1-0.4,1.1-0.9H892.1z"/>
			<path class="st17" d="M894.7,330.2c0,0.8,0.4,1.7,1.4,1.7c0.8,0,1-0.3,1.2-0.7h1.9c-0.2,0.8-1,2.2-3.1,2.2
				c-2.2,0-3.2-1.7-3.2-3.4c0-2.1,1.1-3.6,3.2-3.6c2.3,0,3.1,1.7,3.1,3.4c0,0.2,0,0.4,0,0.6H894.7z M897.3,329.1
				c0-0.8-0.3-1.4-1.2-1.4c-0.9,0-1.3,0.6-1.3,1.4H897.3z"/>
			<path class="st17" d="M901.8,331.1c0.1,0.5,0.6,0.8,1.3,0.8c0.7,0,0.9-0.2,0.9-0.7c0-0.4-0.3-0.6-1.3-0.8
				c-2.2-0.5-2.6-1.2-2.6-2.2c0-1,0.7-2,2.7-2c2,0,2.7,1.1,2.8,2H904c-0.1-0.2-0.2-0.7-1.1-0.7c-0.6,0-0.8,0.3-0.8,0.6
				c0,0.3,0.2,0.5,1.3,0.8c2.2,0.5,2.6,1.3,2.6,2.3c0,1.1-0.8,2.1-2.9,2.1c-2,0-2.9-1-3-2.2H901.8z"/>
		</g>
	</g>
	<path class="st4" d="M853.9,985.8l-0.4,3.3l-1.3,3.1L850,995l-2.7,2.1l-3.1,1.3l-0.3,0.4h-41.3v-2h41.2l-0.1-0.4l2.6-1.1l2.3-1.8
		l1.8-2.3l1.1-2.6l0.4-2.9v-8.1h2 M899.3,917.7h-34.7l-2.9,0.4l-2.6,1.1l-2.3,1.8l-1.7,2.3l-1.1,2.6l-0.4,2.9v28.2h-2v-28.3l0.4-3.3
		l1.3-3.1l2.1-2.7l2.7-2.1l3.1-1.3l3.3-0.4h34.8"/>
	<path class="st4" d="M648.4,986.1l-0.4,3.3l-1.3,3.1l-2.1,2.7l-2.7,2.1l-3.1,1.3l-2.3,0.4h-23.3v-2h23.2l1.9-0.4l2.6-1.1l2.3-1.8
		l1.8-2.3l1.1-2.6l0.4-2.9v-8.1h2 M683.8,873h-24.7l-2.9,0.4l-2.6,1.1l-2.3,1.8l-1.7,2.3l-1.1,2.6L648,884v73.2h-2v-73.3l0.4-3.3
		l1.3-3.1l2.1-2.7l2.7-2.1l3.1-1.3l3.3-0.4h24.8"/>
	<g>
		<g>
			<path class="st17" d="M1151.2,757.3c-0.5,2.3-2.2,4-5.4,4c-3.9,0-5.8-2.8-5.8-6.3c0-3.4,1.9-6.5,5.9-6.5c3.3,0,4.9,1.9,5.2,4
				h-2.7c-0.3-1-0.9-1.9-2.6-1.9c-2.2,0-3.1,2-3.1,4.2c0,2.1,0.7,4.3,3.1,4.3c1.8,0,2.3-1.2,2.5-1.9H1151.2z"/>
			<path class="st17" d="M1161.8,756.4c0,2.8-1.7,4.9-4.6,4.9c-2.9,0-4.6-2.1-4.6-4.8c0-2.9,1.7-4.9,4.7-4.9
				C1160.1,751.6,1161.8,753.5,1161.8,756.4z M1155.2,756.5c0,1.8,0.8,2.9,2,2.9c1.3,0,2-1.1,2-2.8c0-2-0.7-2.9-2-2.9
				C1156,753.6,1155.2,754.5,1155.2,756.5z"/>
			<path class="st17" d="M1163.6,754.1c0-0.8,0-1.7,0-2.3h2.5c0.1,0.2,0.1,0.9,0.1,1.2c0.3-0.6,1.1-1.4,2.7-1.4
				c1.9,0,3.1,1.3,3.1,3.6v5.9h-2.6v-5.6c0-1-0.3-1.8-1.5-1.8c-1.1,0-1.7,0.6-1.7,2.3v5.2h-2.6V754.1z"/>
			<path class="st17" d="M1173.4,751.8h1.4v-2.5h2.6v2.5h1.8v1.9h-1.8v4.6c0,0.7,0.2,1,1,1c0.1,0,0.4,0,0.6,0v1.8
				c-0.5,0.2-1.2,0.2-1.7,0.2c-1.8,0-2.4-1-2.4-2.6v-4.9h-1.4V751.8z"/>
			<path class="st17" d="M1188.5,758.7c0,0.9,0.1,2.2,0.1,2.4h-2.5c-0.1-0.2-0.1-0.7-0.1-0.9c-0.3,0.5-1,1.1-2.6,1.1
				c-2.2,0-3.2-1.5-3.2-2.9c0-2.1,1.7-3.1,4.4-3.1c0.5,0,1,0,1.3,0v-0.6c0-0.7-0.2-1.3-1.4-1.3c-1.1,0-1.3,0.5-1.4,1.1h-2.5
				c0.1-1.7,1.2-3,4-3c2.5,0,3.9,1,3.9,3.2V758.7z M1186,756.9c-0.2,0-0.7,0-1.1,0c-1.6,0-2.1,0.5-2.1,1.4c0,0.7,0.4,1.2,1.3,1.2
				c1.6,0,1.8-1.1,1.8-2.4V756.9z"/>
			<path class="st17" d="M1198.9,758.1c-0.3,1.6-1.4,3.2-4.2,3.2c-2.9,0-4.4-2-4.4-4.8c0-2.8,1.7-4.9,4.5-4.9c3.1,0,4,2.3,4.1,3.3
				h-2.5c-0.2-0.8-0.6-1.3-1.6-1.3c-1.2,0-1.8,1-1.8,2.8c0,2,0.7,2.9,1.8,2.9c0.9,0,1.4-0.5,1.6-1.2H1198.9z"/>
			<path class="st17" d="M1199.7,751.8h1.4v-2.5h2.6v2.5h1.8v1.9h-1.8v4.6c0,0.7,0.2,1,1,1c0.1,0,0.4,0,0.6,0v1.8
				c-0.5,0.2-1.2,0.2-1.7,0.2c-1.8,0-2.4-1-2.4-2.6v-4.9h-1.4V751.8z"/>
			<path class="st17" d="M1162.2,770.3v7.4c0,2.4,1.2,3.1,2.6,3.1c1.5,0,2.5-0.8,2.5-3.1v-7.4h2.7v7.3c0,4.2-2.5,5.3-5.2,5.3
				c-2.8,0-5.2-1.1-5.2-5.3v-7.3H1162.2z"/>
			<path class="st17" d="M1174.6,779.1c0.3,1.2,1.2,1.8,2.6,1.8c1.4,0,2-0.6,2-1.5c0-1-0.6-1.4-2.7-1.9c-3.4-0.8-4.2-2-4.2-3.7
				c0-2.2,1.6-3.6,4.6-3.6c3.3,0,4.6,1.8,4.8,3.6h-2.7c-0.1-0.8-0.6-1.6-2.2-1.6c-1.1,0-1.7,0.5-1.7,1.3c0,0.9,0.5,1.2,2.5,1.7
				c3.6,0.9,4.4,2.2,4.4,3.9c0,2.3-1.7,3.8-5,3.8c-3.2,0-4.8-1.6-5.1-3.8H1174.6z"/>
		</g>
	</g>
	<g>
		<g>
			<path class="st17" d="M1239.4,911.7c-0.5,2.3-2.2,4-5.4,4c-3.9,0-5.8-2.8-5.8-6.3c0-3.4,1.9-6.5,5.9-6.5c3.3,0,4.9,1.9,5.2,4
				h-2.7c-0.3-1-0.9-1.9-2.6-1.9c-2.2,0-3.1,2-3.1,4.2c0,2.1,0.7,4.3,3.1,4.3c1.8,0,2.3-1.2,2.5-1.9H1239.4z"/>
			<path class="st17" d="M1249.6,912.8c0,0.9,0,1.9,0,2.7h-2.5c0-0.2-0.1-0.7-0.1-1.1c-0.6,0.9-1.4,1.3-2.6,1.3
				c-1.9,0-3.1-1.2-3.1-3.5v-6.1h2.6v5.6c0,1,0.3,1.9,1.4,1.9c1.2,0,1.7-0.6,1.7-2.5v-5h2.6V912.8z"/>
			<path class="st17" d="M1253.8,912.7c0.2,0.7,0.8,1.2,1.8,1.2c1,0,1.3-0.3,1.3-0.9c0-0.6-0.4-0.8-1.7-1.2c-3-0.7-3.5-1.7-3.5-3
				c0-1.4,1-2.8,3.8-2.8c2.8,0,3.8,1.5,3.9,2.8h-2.5c-0.1-0.3-0.3-1-1.5-1c-0.9,0-1.1,0.4-1.1,0.8c0,0.5,0.3,0.7,1.8,1
				c3.1,0.7,3.5,1.8,3.5,3.2c0,1.5-1.2,2.9-4,2.9c-2.8,0-4-1.4-4.2-3H1253.8z"/>
			<path class="st17" d="M1260.3,906.2h1.4v-2.5h2.6v2.5h1.8v1.9h-1.8v4.6c0,0.7,0.2,1,1,1c0.1,0,0.4,0,0.6,0v1.8
				c-0.5,0.2-1.2,0.2-1.7,0.2c-1.8,0-2.4-1-2.4-2.6v-4.9h-1.4V906.2z"/>
			<path class="st17" d="M1276.4,910.8c0,2.8-1.7,4.9-4.6,4.9c-2.9,0-4.6-2.1-4.6-4.8c0-2.9,1.7-4.9,4.7-4.9
				C1274.6,905.9,1276.4,907.9,1276.4,910.8z M1269.8,910.8c0,1.8,0.8,2.9,2,2.9c1.3,0,2-1.1,2-2.8c0-2-0.7-2.9-2-2.9
				C1270.6,908,1269.8,908.9,1269.8,910.8z"/>
			<path class="st17" d="M1278.2,908.6c0-0.8,0-1.6,0-2.4h2.5c0,0.2,0.1,0.7,0.1,1.1c0.5-0.7,1.2-1.3,2.6-1.3c1.3,0,2.1,0.7,2.4,1.4
				c0.5-0.8,1.3-1.4,2.9-1.4c1.6,0,3,1,3,3.4v6.1h-2.5v-5.8c0-0.8-0.3-1.7-1.4-1.7c-1.1,0-1.5,0.7-1.5,2.1v5.3h-2.5v-5.7
				c0-1-0.2-1.7-1.3-1.7c-1,0-1.5,0.6-1.5,2.2v5.2h-2.5V908.6z"/>
			<path class="st17" d="M1295.9,911.4c0,1.2,0.6,2.3,1.9,2.3c1.1,0,1.4-0.4,1.6-1h2.6c-0.3,1.1-1.3,3-4.3,3c-3.1,0-4.4-2.3-4.4-4.7
				c0-2.9,1.5-5,4.5-5c3.2,0,4.3,2.3,4.3,4.6c0,0.3,0,0.5,0,0.8H1295.9z M1299.5,909.8c0-1.1-0.5-2-1.7-2c-1.2,0-1.7,0.9-1.8,2
				H1299.5z"/>
			<path class="st17" d="M1303.9,908.7c0-0.9,0-1.7,0-2.5h2.5c0,0.2,0.1,1.1,0.1,1.6c0.4-1.1,1.4-1.8,3-1.9v2.5c-1.9,0-3,0.5-3,3
				v4.1h-2.6V908.7z"/>
			<path class="st17" d="M1258.5,933.3c-0.5,2.3-2.2,4-5.4,4c-3.9,0-5.8-2.8-5.8-6.3c0-3.4,1.9-6.5,5.9-6.5c3.3,0,4.9,1.9,5.2,4
				h-2.7c-0.3-1-0.9-1.9-2.6-1.9c-2.2,0-3.1,2-3.1,4.2c0,2.1,0.7,4.3,3.1,4.3c1.8,0,2.3-1.2,2.5-1.9H1258.5z"/>
			<path class="st17" d="M1268.2,934.7c0,0.9,0.1,2.2,0.1,2.4h-2.5c-0.1-0.2-0.1-0.7-0.1-0.9c-0.3,0.5-1,1.1-2.6,1.1
				c-2.2,0-3.2-1.5-3.2-2.9c0-2.1,1.7-3.1,4.4-3.1c0.5,0,1,0,1.3,0v-0.6c0-0.7-0.2-1.3-1.4-1.3c-1.1,0-1.3,0.5-1.4,1.1h-2.5
				c0.1-1.7,1.2-3,4-3c2.5,0,3.9,1,3.9,3.2V934.7z M1265.7,932.8c-0.2,0-0.7,0-1.1,0c-1.6,0-2.1,0.5-2.1,1.4c0,0.7,0.4,1.2,1.3,1.2
				c1.6,0,1.8-1.1,1.8-2.4V932.8z"/>
			<path class="st17" d="M1270.5,930.3c0-0.9,0-1.7,0-2.5h2.5c0,0.2,0.1,1.1,0.1,1.6c0.4-1.1,1.4-1.8,3-1.9v2.5c-1.9,0-3,0.5-3,3
				v4.1h-2.6V930.3z"/>
			<path class="st17" d="M1279.6,933c0,1.2,0.6,2.3,1.9,2.3c1.1,0,1.4-0.4,1.6-1h2.6c-0.3,1.1-1.3,3-4.3,3c-3.1,0-4.4-2.3-4.4-4.7
				c0-2.9,1.5-5,4.5-5c3.2,0,4.3,2.3,4.3,4.6c0,0.3,0,0.5,0,0.8H1279.6z M1283.2,931.4c0-1.1-0.5-2-1.7-2c-1.2,0-1.7,0.9-1.8,2
				H1283.2z"/>
		</g>
	</g>
	<path class="st18" d="M1259,665.7H451.6c-21,0-38-17-38-38v-24.3c0-21,17-38,38-38H1259c21,0,38,17,38,38v24.3
		C1297,648.6,1280,665.7,1259,665.7z"/>
	<path class="st5" d="M1077.9,249.4l1.4,1.4L909.8,420.3l-1.4-1.4"/>
	<g>
		<path class="st5" d="M1091.7,237.1l-8.8,17.3l-8.5-8.5"/>
	</g>
	<path class="st5" d="M1108.5,250.1c-10.8,0-19.6-11-19.6-24.5c0-13.6,8.8-24.5,19.6-24.5h58.9c10.8,0,19.6,11,19.6,24.5
		c0,13.5-8.8,24.5-19.6,24.5L1108.5,250.1z"/>
	<g>
		<g>
			<path class="st17" d="M1130.8,226.3h-5.9v3.2h6.5l-0.3,2.2h-8.8v-12.4h8.8v2.2h-6.2v2.7h5.9V226.3z"/>
			<path class="st17" d="M1134.8,222.3c1,1.8,1.4,2.4,1.6,2.9h0c0.3-0.6,0.9-1.6,1.6-2.9h2.9l-3,4.4l3,4.9h-2.9
				c-0.8-1.6-1.4-2.6-1.6-3.1h0c-0.2,0.5-0.9,1.7-1.6,3.1h-2.8l2.9-4.5l-2.9-4.8H1134.8z"/>
			<path class="st17" d="M1142,218.5h2.6v2.3h-2.6V218.5z M1142,222.3h2.6v9.3h-2.6V222.3z"/>
			<path class="st17" d="M1146,222.3h1.4v-2.5h2.6v2.5h1.8v1.9h-1.8v4.6c0,0.7,0.2,1,1,1c0.1,0,0.4,0,0.6,0v1.8
				c-0.5,0.2-1.2,0.2-1.7,0.2c-1.8,0-2.4-1-2.4-2.6v-4.9h-1.4V222.3z"/>
			<path class="st17" d="M1153.2,231.6v-3.2h2.8v3.2H1153.2z"/>
		</g>
	</g>
	<g>
		<g>
			<path class="st17" d="M841.9,209.4c0.3,1.2,1.2,1.8,2.6,1.8c1.4,0,2-0.6,2-1.5c0-1-0.6-1.4-2.7-1.9c-3.4-0.8-4.2-2-4.2-3.7
				c0-2.2,1.6-3.6,4.6-3.6c3.3,0,4.6,1.8,4.8,3.6h-2.7c-0.1-0.8-0.6-1.6-2.2-1.6c-1.1,0-1.7,0.5-1.7,1.3c0,0.9,0.5,1.2,2.5,1.7
				c3.6,0.9,4.4,2.2,4.4,3.9c0,2.3-1.7,3.8-5,3.8c-3.2,0-4.8-1.6-5.1-3.8H841.9z"/>
			<path class="st17" d="M850.3,203.7h1.4v-2.5h2.6v2.5h1.8v1.9h-1.8v4.6c0,0.7,0.2,1,1,1c0.1,0,0.4,0,0.6,0v1.8
				c-0.5,0.2-1.2,0.2-1.7,0.2c-1.8,0-2.4-1-2.4-2.6v-4.9h-1.4V203.7z"/>
			<path class="st17" d="M865.5,210.6c0,0.9,0.1,2.2,0.1,2.4h-2.5c-0.1-0.2-0.1-0.7-0.1-0.9c-0.3,0.5-1,1.1-2.6,1.1
				c-2.2,0-3.2-1.5-3.2-2.9c0-2.1,1.7-3.1,4.4-3.1c0.5,0,1,0,1.3,0v-0.6c0-0.7-0.2-1.3-1.4-1.3c-1.1,0-1.3,0.5-1.4,1.1h-2.5
				c0.1-1.7,1.2-3,4-3c2.5,0,3.9,1,3.9,3.2V210.6z M862.9,208.8c-0.2,0-0.7,0-1.1,0c-1.6,0-2.1,0.5-2.1,1.4c0,0.7,0.4,1.2,1.3,1.2
				c1.6,0,1.8-1.1,1.8-2.4V208.8z"/>
			<path class="st17" d="M867.8,206.2c0-0.9,0-1.7,0-2.5h2.5c0,0.2,0.1,1.1,0.1,1.6c0.4-1.1,1.4-1.8,3-1.9v2.5c-1.9,0-3,0.5-3,3v4.1
				h-2.6V206.2z"/>
			<path class="st17" d="M874,203.7h1.4v-2.5h2.6v2.5h1.8v1.9H878v4.6c0,0.7,0.2,1,1,1c0.1,0,0.4,0,0.6,0v1.8
				c-0.5,0.2-1.2,0.2-1.7,0.2c-1.8,0-2.4-1-2.4-2.6v-4.9H874V203.7z"/>
		</g>
	</g>
	<g>
		<g>
			<path class="st2" d="M874.1,122.3c0,3.1-1.9,5.7-5.7,5.7c-3.7,0-5.5-2.6-5.5-5.7c0-3.2,2-5.7,5.7-5.7
				C872.1,116.6,874.1,119,874.1,122.3z M866.3,122.3c0,2,0.7,3.4,2.3,3.4c1.7,0,2.2-1.5,2.2-3.4c0-2-0.6-3.4-2.3-3.4
				C866.9,118.9,866.3,120.2,866.3,122.3z"/>
			<path class="st2" d="M875.9,116.8h3.2v4.1h3.4v-4.1h3.2v11h-3.2v-4.5h-3.4v4.5h-3.2V116.8z"/>
			<path class="st2" d="M897.2,124.2c0-1.7,0-3.9,0.1-5.3h-0.1c-0.5,2.4-1.2,5.6-2,8.8h-2.6c-0.6-3.1-1.4-6.4-1.8-8.8h-0.1
				c0.1,1.3,0.1,3.4,0.1,5.3v3.5H888v-11h4.7c0.5,2.2,1.2,5.5,1.4,7.1h0.1c0.3-1.8,1-4.7,1.7-7.1h4.5v11h-3.1V124.2z"/>
			<path class="st2" d="M908.8,125.7l-0.6,2.1h-3.1l3.5-11h4.2l3.6,11H913l-0.7-2.1H908.8z M911.7,123.3c-0.5-1.7-0.9-3.3-1.2-4.3h0
				c-0.3,1.2-0.7,2.8-1.1,4.3H911.7z"/>
			<path class="st2" d="M920.4,127.2v3.7h-3.1v-9.2c0-0.8,0-1.7,0-2.3h3c0,0.2,0.1,0.7,0.1,0.9c0.3-0.5,1-1.1,2.4-1.1
				c1.8,0,3.3,1.5,3.3,4.2c0,3.1-1.8,4.6-3.7,4.6C921.3,128,920.7,127.7,920.4,127.2z M922.9,123.6c0-1.6-0.5-2.1-1.3-2.1
				c-1,0-1.3,0.7-1.3,2.2c0,1.4,0.3,2.2,1.2,2.2C922.5,125.9,922.9,125.2,922.9,123.6z"/>
			<path class="st2" d="M930.5,127.2v3.7h-3.1v-9.2c0-0.8,0-1.7,0-2.3h3c0,0.2,0.1,0.7,0.1,0.9c0.3-0.5,1-1.1,2.4-1.1
				c1.8,0,3.3,1.5,3.3,4.2c0,3.1-1.8,4.6-3.7,4.6C931.5,128,930.9,127.7,930.5,127.2z M933,123.6c0-1.6-0.5-2.1-1.3-2.1
				c-1,0-1.3,0.7-1.3,2.2c0,1.4,0.3,2.2,1.2,2.2C932.6,125.9,933,125.2,933,123.6z"/>
			<path class="st2" d="M937.6,127.8v-11.6h3.1v11.6H937.6z"/>
			<path class="st2" d="M942.5,116.2h3.1v2.2h-3.1V116.2z M942.5,119.4h3.1v8.4h-3.1V119.4z"/>
			<path class="st2" d="M955.4,124.9c-0.2,1.5-1.2,3.1-4.1,3.1c-3,0-4.3-1.9-4.3-4.3c0-2.5,1.6-4.5,4.4-4.5c3.2,0,4,2.1,4,3.1h-3
				c-0.1-0.6-0.3-1.1-1-1.1c-0.8,0-1.2,0.7-1.2,2.3c0,1.7,0.4,2.4,1.2,2.4c0.6,0,0.9-0.5,1-1H955.4z"/>
			<path class="st2" d="M964.4,125.3c0,0.9,0,2.2,0.1,2.5h-2.9c-0.1-0.2-0.1-0.6-0.1-0.8c-0.4,0.5-1,1-2.4,1c-1.9,0-2.9-1.2-2.9-2.7
				c0-2,1.6-2.8,4.1-2.8c0.3,0,0.8,0,1,0v-0.5c0-0.5-0.2-0.9-0.9-0.9c-0.7,0-0.9,0.3-1,0.9h-2.9c0.1-1.4,0.9-2.8,3.9-2.8
				c2.8,0,3.9,1.1,3.9,3.1V125.3z M961.4,124.1c-0.2,0-0.4,0-0.7,0c-1.1,0-1.4,0.4-1.4,1c0,0.5,0.3,0.9,0.9,0.9
				c1.1,0,1.2-0.7,1.2-1.6V124.1z"/>
			<path class="st2" d="M965.5,119.4h1.2v-2.2h3.1v2.2h1.5v2.1h-1.5v3.6c0,0.5,0.2,0.7,0.8,0.7c0.1,0,0.3,0,0.4,0v1.9
				c-0.5,0.2-1.3,0.2-1.8,0.2c-2,0-2.5-1-2.5-2.6v-3.9h-1.2V119.4z"/>
			<path class="st2" d="M972.6,116.2h3.1v2.2h-3.1V116.2z M972.6,119.4h3.1v8.4h-3.1V119.4z"/>
			<path class="st2" d="M986.1,123.6c0,2.6-1.6,4.4-4.5,4.4c-3,0-4.4-2-4.4-4.4c0-2.5,1.5-4.4,4.5-4.4
				C984.4,119.2,986.1,121.1,986.1,123.6z M980.3,123.6c0,1.6,0.5,2.3,1.3,2.3c0.8,0,1.3-0.7,1.3-2.3c0-1.7-0.4-2.3-1.3-2.3
				C980.8,121.3,980.3,121.9,980.3,123.6z"/>
			<path class="st2" d="M987.5,121.6c0-0.7,0-1.5,0-2.2h3c0,0.2,0.1,0.7,0.1,0.9c0.3-0.5,1-1.1,2.4-1.1c1.7,0,2.7,1.1,2.7,3.2v5.4
				h-3.1v-5c0-0.8-0.2-1.3-1-1.3c-0.7,0-1.1,0.3-1.1,1.5v4.8h-3.1V121.6z"/>
		</g>
	</g>
	<g>
		<g>
			<path class="st2" d="M741.7,122.3c0,3.1-1.9,5.7-5.7,5.7c-3.7,0-5.5-2.6-5.5-5.7c0-3.2,2-5.7,5.7-5.7
				C739.7,116.6,741.7,119,741.7,122.3z M733.9,122.3c0,2,0.7,3.4,2.3,3.4c1.7,0,2.2-1.5,2.2-3.4c0-2-0.6-3.4-2.3-3.4
				C734.5,118.9,733.9,120.2,733.9,122.3z"/>
			<path class="st2" d="M743.2,121.7c0-0.8,0-1.6,0-2.3h3c0,0.2,0.1,0.6,0.1,0.9c0.5-0.6,1.2-1.1,2.4-1.1c1.3,0,1.9,0.6,2.1,1.2
				c0.5-0.6,1.2-1.2,2.6-1.2c1.6,0,2.7,1,2.7,3.1v5.5H753v-5.2c0-0.6-0.2-1.1-0.9-1.1c-0.7,0-1,0.5-1,1.4v4.9h-3.1v-5.2
				c0-0.6-0.2-1.1-0.9-1.1c-0.7,0-1,0.4-1,1.5v4.8h-3.1V121.7z"/>
			<path class="st2" d="M765.6,125.3c0,0.9,0,2.2,0.1,2.5h-2.9c-0.1-0.2-0.1-0.6-0.1-0.8c-0.4,0.5-1,1-2.4,1c-1.9,0-2.9-1.2-2.9-2.7
				c0-2,1.6-2.8,4.1-2.8c0.3,0,0.8,0,1,0v-0.5c0-0.5-0.2-0.9-0.9-0.9c-0.7,0-0.9,0.3-1,0.9h-2.9c0.1-1.4,0.9-2.8,3.9-2.8
				c2.8,0,3.9,1.1,3.9,3.1V125.3z M762.6,124.1c-0.2,0-0.4,0-0.7,0c-1.1,0-1.4,0.4-1.4,1c0,0.5,0.3,0.9,0.9,0.9
				c1.1,0,1.2-0.7,1.2-1.6V124.1z"/>
			<path class="st2" d="M767.4,121.9c0-0.8,0-1.7,0-2.4h3c0,0.3,0.1,1,0.1,1.4c0.3-0.8,1.1-1.6,2.6-1.6v2.9
				c-1.8-0.1-2.6,0.3-2.6,2.3v3.4h-3.1V121.9z"/>
			<path class="st2" d="M788.3,127.8h-2.2c-0.1-0.3-0.2-0.7-0.2-1c-0.6,0.8-1.7,1.2-3.2,1.2c-3.4,0-5.1-2.6-5.1-5.6
				c0-3.4,2-5.8,5.6-5.8c3.3,0,4.9,1.9,5.1,3.6h-3.2c-0.2-0.6-0.6-1.3-1.9-1.3c-1.8,0-2.3,1.7-2.3,3.5c0,1.7,0.5,3.4,2.3,3.4
				c1.6,0,1.9-1.2,1.9-1.9v-0.1h-2v-2.3h5.1V127.8z"/>
			<path class="st2" d="M790.1,121.9c0-0.8,0-1.7,0-2.4h3c0,0.3,0.1,1,0.1,1.4c0.3-0.8,1.1-1.6,2.6-1.6v2.9
				c-1.8-0.1-2.6,0.3-2.6,2.3v3.4h-3.1V121.9z"/>
			<path class="st2" d="M799.8,124.3c0,0.8,0.3,1.7,1.2,1.7c0.7,0,1-0.3,1.1-0.8h3.1c-0.3,1.1-1.3,2.8-4.2,2.8
				c-3.2,0-4.3-2.1-4.3-4.3c0-2.5,1.3-4.5,4.4-4.5c3.3,0,4.2,2.2,4.2,4.3c0,0.3,0,0.5,0,0.7H799.8z M802.1,122.6
				c0-0.8-0.2-1.4-1.1-1.4c-0.8,0-1.2,0.6-1.2,1.4H802.1z"/>
			<path class="st2" d="M809.4,124.3c0,0.8,0.3,1.7,1.2,1.7c0.7,0,1-0.3,1.1-0.8h3.1c-0.3,1.1-1.3,2.8-4.2,2.8
				c-3.2,0-4.3-2.1-4.3-4.3c0-2.5,1.3-4.5,4.4-4.5c3.3,0,4.2,2.2,4.2,4.3c0,0.3,0,0.5,0,0.7H809.4z M811.8,122.6
				c0-0.8-0.2-1.4-1.1-1.4c-0.8,0-1.2,0.6-1.2,1.4H811.8z"/>
			<path class="st2" d="M816.2,121.6c0-0.7,0-1.5,0-2.2h3c0,0.2,0.1,0.7,0.1,0.9c0.3-0.5,1-1.1,2.4-1.1c1.7,0,2.7,1.1,2.7,3.2v5.4
				h-3.1v-5c0-0.8-0.2-1.3-1-1.3c-0.7,0-1.1,0.3-1.1,1.5v4.8h-3.1V121.6z"/>
			<path class="st2" d="M829,124.3c0,0.8,0.3,1.7,1.2,1.7c0.7,0,1-0.3,1.1-0.8h3.1c-0.3,1.1-1.3,2.8-4.2,2.8c-3.2,0-4.3-2.1-4.3-4.3
				c0-2.5,1.3-4.5,4.4-4.5c3.3,0,4.2,2.2,4.2,4.3c0,0.3,0,0.5,0,0.7H829z M831.4,122.6c0-0.8-0.2-1.4-1.1-1.4
				c-0.8,0-1.2,0.6-1.2,1.4H831.4z"/>
		</g>
	</g>
	<g>
		<g>
			<path class="st17" d="M735.4,878.3c0.3,1.2,1.2,1.8,2.6,1.8c1.4,0,2-0.6,2-1.5c0-1-0.6-1.4-2.7-1.9c-3.4-0.8-4.2-2-4.2-3.7
				c0-2.2,1.6-3.6,4.6-3.6c3.3,0,4.6,1.8,4.8,3.6h-2.7c-0.1-0.8-0.6-1.6-2.2-1.6c-1.1,0-1.7,0.5-1.7,1.3c0,0.9,0.5,1.2,2.5,1.7
				c3.6,0.9,4.4,2.2,4.4,3.9c0,2.3-1.7,3.8-5,3.8c-3.2,0-4.8-1.6-5.1-3.8H735.4z"/>
			<path class="st17" d="M747.3,868.8v4.9c0.4-0.6,1.2-1.3,2.7-1.3c1.7,0,3.1,1,3.1,3.6v6h-2.6v-5.6c0-1.2-0.4-1.9-1.5-1.9
				c-1.4,0-1.7,1.1-1.7,2.5v4.9h-2.6v-13.1H747.3z"/>
			<path class="st17" d="M764,877.3c0,2.8-1.7,4.9-4.6,4.9c-2.9,0-4.6-2.1-4.6-4.8c0-2.9,1.7-4.9,4.7-4.9
				C762.3,872.4,764,874.3,764,877.3z M757.4,877.3c0,1.8,0.8,2.9,2,2.9c1.3,0,2-1.1,2-2.8c0-2-0.7-2.9-2-2.9
				C758.2,874.4,757.4,875.3,757.4,877.3z"/>
			<path class="st17" d="M768.4,881.1v4.4h-2.6v-10.6c0-0.8,0-1.5,0-2.2h2.5c0,0.2,0.1,0.8,0.1,1.2c0.4-0.7,1.2-1.4,2.7-1.4
				c2.1,0,3.7,1.8,3.7,4.6c0,3.3-1.8,5.1-4.1,5.1C769.4,882.2,768.7,881.7,768.4,881.1z M772.2,877.1c0-1.7-0.7-2.7-1.9-2.7
				c-1.5,0-2,0.9-2,2.8c0,1.8,0.5,2.8,1.9,2.8C771.5,880.1,772.2,879,772.2,877.1z"/>
		</g>
	</g>
	<g>
		<g>
			<path class="st17" d="M529.2,866.2l-1,2.9h-2.6l4.2-12.4h3.4l4.4,12.4h-2.8l-1-2.9H529.2z M533.2,864c-0.9-2.6-1.4-4.3-1.7-5.4h0
				c-0.3,1.2-0.9,3.2-1.6,5.4H533.2z"/>
			<path class="st17" d="M539,855.9h2.6v4.8c0.4-0.6,1.2-1.2,2.7-1.2c2.5,0,3.8,2.1,3.8,4.7c0,2.7-1.4,5-4.1,5c-1.4,0-2-0.4-2.4-1.1
				c0,0.3,0,0.6-0.1,0.9H539c0-1,0-2,0-3V855.9z M545.4,864.3c0-1.6-0.6-2.7-2-2.7c-1.5,0-2,1-2,2.9c0,1.6,0.5,2.8,2,2.8
				C544.7,867.2,545.4,866.1,545.4,864.3z"/>
			<path class="st17" d="M558.5,864.4c0,2.8-1.7,4.9-4.6,4.9c-2.9,0-4.6-2.1-4.6-4.8c0-2.9,1.7-4.9,4.7-4.9
				C556.7,859.5,558.5,861.5,558.5,864.4z M551.9,864.4c0,1.8,0.8,2.9,2,2.9c1.3,0,2-1.1,2-2.8c0-2-0.7-2.9-2-2.9
				C552.6,861.6,551.9,862.4,551.9,864.4z"/>
			<path class="st17" d="M568.4,866.4c0,0.9,0,1.9,0,2.7h-2.5c0-0.2-0.1-0.7-0.1-1.1c-0.6,0.9-1.4,1.3-2.6,1.3
				c-1.9,0-3.1-1.2-3.1-3.5v-6.1h2.6v5.6c0,1,0.3,1.9,1.4,1.9c1.2,0,1.7-0.6,1.7-2.5v-5h2.6V866.4z"/>
			<path class="st17" d="M569.9,859.8h1.4v-2.5h2.6v2.5h1.8v1.9h-1.8v4.6c0,0.7,0.2,1,1,1c0.1,0,0.4,0,0.6,0v1.8
				c-0.5,0.2-1.2,0.2-1.7,0.2c-1.8,0-2.4-1-2.4-2.6v-4.9h-1.4V859.8z"/>
			<path class="st17" d="M520,887c0.3,1.2,1.2,1.8,2.6,1.8c1.4,0,2-0.6,2-1.5c0-1-0.6-1.4-2.7-1.9c-3.4-0.8-4.2-2-4.2-3.7
				c0-2.2,1.6-3.6,4.6-3.6c3.3,0,4.6,1.8,4.8,3.6h-2.7c-0.1-0.8-0.6-1.6-2.2-1.6c-1.1,0-1.7,0.5-1.7,1.3c0,0.9,0.5,1.2,2.5,1.7
				c3.6,0.9,4.4,2.2,4.4,3.9c0,2.3-1.7,3.8-5,3.8c-3.2,0-4.8-1.6-5.1-3.8H520z"/>
			<path class="st17" d="M531.4,886.6c0,1.2,0.6,2.3,1.9,2.3c1.1,0,1.4-0.4,1.6-1h2.6c-0.3,1.1-1.3,3-4.3,3c-3.1,0-4.4-2.3-4.4-4.7
				c0-2.9,1.5-5,4.5-5c3.2,0,4.3,2.3,4.3,4.6c0,0.3,0,0.5,0,0.8H531.4z M535,885c0-1.1-0.5-2-1.7-2c-1.2,0-1.7,0.9-1.8,2H535z"/>
			<path class="st17" d="M539.3,883.9c0-0.9,0-1.7,0-2.5h2.5c0,0.2,0.1,1.1,0.1,1.6c0.4-1.1,1.4-1.8,3-1.9v2.5c-1.9,0-3,0.5-3,3v4.1
				h-2.6V883.9z"/>
			<path class="st17" d="M548.1,881.4c0.9,3.2,1.6,5.9,1.8,7h0c0.3-1.5,1.2-4.3,2-7h2.6l-3.3,9.3h-2.7l-3.2-9.3H548.1z"/>
			<path class="st17" d="M555.8,877.5h2.6v2.3h-2.6V877.5z M555.8,881.4h2.6v9.3h-2.6V881.4z"/>
			<path class="st17" d="M568.7,887.7c-0.3,1.6-1.4,3.2-4.2,3.2c-2.9,0-4.4-2-4.4-4.8c0-2.8,1.7-4.9,4.5-4.9c3.1,0,4,2.3,4.1,3.3
				h-2.5c-0.2-0.8-0.6-1.3-1.6-1.3c-1.2,0-1.8,1-1.8,2.8c0,2,0.7,2.9,1.8,2.9c0.9,0,1.4-0.5,1.6-1.2H568.7z"/>
			<path class="st17" d="M572.4,886.6c0,1.2,0.6,2.3,1.9,2.3c1.1,0,1.4-0.4,1.6-1h2.6c-0.3,1.1-1.3,3-4.3,3c-3.1,0-4.4-2.3-4.4-4.7
				c0-2.9,1.5-5,4.5-5c3.2,0,4.3,2.3,4.3,4.6c0,0.3,0,0.5,0,0.8H572.4z M576,885c0-1.1-0.5-2-1.7-2c-1.2,0-1.7,0.9-1.8,2H576z"/>
			<path class="st17" d="M582.3,887.9c0.2,0.7,0.8,1.2,1.8,1.2c1,0,1.3-0.3,1.3-0.9c0-0.6-0.4-0.8-1.7-1.2c-3-0.7-3.5-1.7-3.5-3
				c0-1.4,1-2.8,3.8-2.8c2.8,0,3.8,1.5,3.9,2.8h-2.5c-0.1-0.3-0.3-1-1.5-1c-0.9,0-1.1,0.4-1.1,0.8c0,0.5,0.3,0.7,1.8,1
				c3.1,0.7,3.5,1.8,3.5,3.2c0,1.5-1.2,2.9-4,2.9c-2.8,0-4-1.4-4.2-3H582.3z"/>
		</g>
	</g>
</g>
<g>
	<polyline class="st4" points="901.1,920.4 911.1,917.1 901.1,913.9 	"/>
	<path class="st4" d="M917.3,917.1l-18.5,6v-12 M900.8,920.4l10-3.3l-10-3.2"/>
</g>
<g>
	<polyline class="st4" points="686,875.5 696,872.2 686,869 	"/>
	<path class="st4" d="M702.3,872.2l-18.5,6v-12 M685.8,875.5l10-3.3l-10-3.2"/>
</g>
<g>
	<polyline class="st4" points="812.6,994.6 802.5,997.9 812.6,1001.2 	"/>
	<path class="st4" d="M796.3,997.9l18.5-6v12 M812.8,994.6l-10,3.3l10,3.2"/>
</g>
<g>
	<polyline class="st4" points="811.7,718.8 801.7,722.1 811.7,725.4 	"/>
	<path class="st4" d="M795.5,722.1l18.5-6v12 M812,718.8l-10,3.3l10,3.2"/>
</g>
<g>
	<polyline class="st4" points="610.9,996.3 602,998.8 610.9,1001.3 	"/>
	<path class="st4" d="M596.4,998.8l16.5-4.6v9.2 M611.1,996.3l-8.9,2.5l8.9,2.5"/>
</g>
<g>
	<polyline class="st4" points="899.3,725.1 909.4,721.8 899.3,718.6 	"/>
	<path class="st4" d="M915.6,721.8l-18.5,6v-12 M899.1,725.1l10-3.3l-10-3.2"/>
</g>
<g transform="matrix(1,0,0,1,457.1465527853436,115.73283593529744) translate(411.96972222222223 14.917037037037037)">
	<g id="h" transform="matrix(0.04248971193415638,0,0,0.04248971193415638,0,0)">
		<path id="Z" class="st19" d="M848.2,130.9v-17.3h2.2v17.3H848.2"/>
	</g>
</g>
</svg>
