<svg id="Layer_1" data-name="Layer 1" xmlns="http://www.w3.org/2000/svg" viewBox="0 0 1025.01 1027.84"><defs><style>.cls-1,.cls-2,.cls-3{fill:#fff;}.cls-1,.cls-2{stroke:#000;stroke-miterlimit:10;}.cls-2{stroke-width:2px;}</style></defs><path class="cls-1" d="M818,908H-206V-116H818ZM306.73-73.78c-12.81,0-25.71-1-38.41.22-21,1.92-41.95,4.35-62.66,8.08-45.24,8.15-87.52,24.85-127.6,47.15-34.4,19.14-65.45,42.8-94,69.87-36.13,34.26-67.67,72.16-92,115.77-42.27,75.88-60,157.49-57.13,244a515.8,515.8,0,0,0,8.34,79.23A435,435,0,0,0-99.46,638.62c31.67,51.49,72,95.31,119.49,132.56q101.22,79.32,229,93.32a500.19,500.19,0,0,0,87.74,2.43c30.63-2,60.93-6.23,90.63-13.87,74.24-19.1,138.94-55.75,195.32-107.44,36.84-33.77,68.42-71.85,93.7-115a429.12,429.12,0,0,0,56.61-169.12c3.12-26.8,4.93-53.58,4-80.6-1-28.32-3.65-56.39-9.32-84.16A438.15,438.15,0,0,0,713.8,157.3c-27.38-45.47-61.78-85.11-101.73-120-42.48-37.06-90-65.7-143-85A428.38,428.38,0,0,0,306.73-73.78Z" transform="translate(206.51 116.5)"/><path class="cls-2" d="M306.73-73.78A428.38,428.38,0,0,1,469-47.66c53,19.29,100.55,47.93,143,85,39.95,34.86,74.35,74.5,101.73,120a438.15,438.15,0,0,1,53.94,139.43c5.67,27.77,8.35,55.84,9.32,84.16.93,27-.88,53.8-4,80.6a429.12,429.12,0,0,1-56.61,169.12c-25.28,43.16-56.86,81.24-93.7,115C566.37,797.31,501.67,834,427.43,853.06c-29.7,7.64-60,11.9-90.63,13.87a500.19,500.19,0,0,1-87.74-2.43Q121.43,850.25,20,771.18C-27.5,733.93-67.79,690.11-99.46,638.62a435,435,0,0,1-57.22-148.07A515.8,515.8,0,0,1-165,411.32c-2.85-86.52,14.86-168.13,57.13-244,24.29-43.61,55.83-81.51,92-115.77C12.61,24.47,43.66.81,78.06-18.33c40.08-22.3,82.36-39,127.6-47.15,20.71-3.73,41.7-6.16,62.66-8.08C281-74.73,293.92-73.78,306.73-73.78ZM31.29,130.35c1.39,2.61,2.17,4.24,3.1,5.79q70.16,116.91,140.45,233.74c2.54,4.2,2.36,7.09-.06,11.17Q105.59,497.39,36.69,613.9c-.87,1.47-1.51,3.07-2.61,5.31H39c37,0,74-.08,111,.11,4.14,0,6.17-1.47,8-5q25.53-47.76,51.33-95.39c8.6-16,17.22-31.88,26.12-48.36,1.09,1.95,1.9,3.35,2.67,4.78q37.36,69.45,74.66,139c1.85,3.46,3.85,5,8,5,36.66-.19,73.33-.11,110-.12,1.72,0,3.43-.19,6-.34-1.4-2.5-2.31-4.22-3.3-5.89Q364.26,496.36,295,379.8c-2-3.37-1.87-5.67.12-8.95q71.63-117.77,143-235.69c.8-1.32,1.4-2.76,2.43-4.84-2.64-.19-4.42-.42-6.19-.42-36.66,0-73.32.06-110-.12-4.53,0-6.81,1.68-8.87,5.5q-37.89,70.07-76,140c-1.2,2.22-2.49,4.4-4,7-.8-1.34-1.26-2-1.65-2.76q-38.78-72.1-77.43-144.27c-2.11-4-4.35-5.42-8.8-5.4-36.49.17-73,.09-109.48.11C36.21,129.9,34.28,130.15,31.29,130.35ZM534.72,475.29c-8.18-2.28-15.56-5.05-23.18-6.25a113.39,113.39,0,0,0-23.86-1.18c-19.48,1.08-30.1,9-35.95,25.53-4,11.32-4.58,23.06-5.25,34.86-1,18.34-1,36.62,3.35,54.58,4.61,18.82,14.34,33,35.15,35.93,8.79,1.24,17.78,1.25,26.09-2.18s16-7.76,24.27-11.88a84.52,84.52,0,0,1,4,8.21c1.36,3.65,3.55,5,7.51,4.88,9.32-.28,18.66-.37,28,0,5.17.21,6.38-1.59,6.35-6.55-.19-41.14-.11-82.28-.11-123.42,0-27.81-.06-55.62.07-83.44,0-4-1-5.63-5.3-5.54q-18,.36-36,0c-4.3-.1-5.35,1.46-5.21,5.48.27,8.15.08,16.32.08,24.48Z" transform="translate(206.51 116.5)"/><path class="cls-2" d="M31.29,130.35c3-.2,4.92-.45,6.85-.45,36.49,0,73,.06,109.48-.11,4.45,0,6.69,1.44,8.8,5.4q38.52,72.24,77.43,144.27c.39.73.85,1.42,1.65,2.76,1.47-2.58,2.76-4.76,4-7q38.07-69.94,76-140c2.06-3.82,4.34-5.52,8.87-5.5,36.66.18,73.32.1,110,.12,1.77,0,3.55.23,6.19.42-1,2.08-1.63,3.52-2.43,4.84Q366.67,253,295.1,370.85c-2,3.28-2.12,5.58-.12,8.95Q364.34,496.31,433.44,613c1,1.67,1.9,3.39,3.3,5.89-2.55.15-4.26.34-6,.34-36.66,0-73.33-.07-110,.12-4.15,0-6.15-1.5-8-5q-37.22-69.54-74.66-139c-.77-1.43-1.58-2.83-2.67-4.78C226.54,487.1,217.92,503,209.32,519Q183.61,566.65,158,614.37c-1.86,3.48-3.89,5-8,5-37-.19-74-.11-111-.11H34.08c1.1-2.24,1.74-3.84,2.61-5.31q69-116.46,138.09-232.85c2.42-4.08,2.6-7,.06-11.17Q104.45,253.1,34.39,136.14C33.46,134.59,32.68,133,31.29,130.35Z" transform="translate(206.51 116.5)"/><path class="cls-1" d="M534.72,475.29V428.81c0-8.16.19-16.33-.08-24.48-.14-4,.91-5.58,5.21-5.48q18,.39,36,0c4.28-.09,5.32,1.55,5.3,5.54-.13,27.82-.07,55.63-.07,83.44,0,41.14-.08,82.28.11,123.42,0,5-1.18,6.76-6.35,6.55-9.31-.39-18.65-.3-28,0-4,.12-6.15-1.23-7.51-4.88a84.52,84.52,0,0,0-4-8.21c-8.31,4.12-16.09,8.49-24.27,11.88S493.77,620,485,618.76c-20.81-2.94-30.54-17.11-35.15-35.93-4.39-18-4.39-36.24-3.35-54.58.67-11.8,1.24-23.54,5.25-34.86,5.85-16.52,16.47-24.45,35.95-25.53A113.39,113.39,0,0,1,511.54,469C519.16,470.24,526.54,473,534.72,475.29Zm0,64.76c0-9.67-.19-19.34.09-29,.11-3.56-1.15-5.35-4.43-5.87-6.38-1-12.75-2.31-19.17-2.83-11.47-.93-15.36,1.95-16.79,14-1.54,13-1.8,26.19-1.91,39.31-.05,5.2,1.42,10.53,2.87,15.61,1.27,4.42,4,8.63,8.92,9.22,9.57,1.14,19,.21,27.31-5.37a8,8,0,0,0,3-5.59C534.88,559.72,534.72,549.88,534.72,540.05Z" transform="translate(206.51 116.5)"/><path class="cls-2" d="M534.72,540.05c0,9.83.16,19.67-.14,29.49a8,8,0,0,1-3,5.59c-8.27,5.58-17.74,6.51-27.31,5.37-4.92-.59-7.65-4.8-8.92-9.22-1.45-5.08-2.92-10.41-2.87-15.61.11-13.12.37-26.31,1.91-39.31,1.43-12.05,5.32-14.93,16.79-14,6.42.52,12.79,1.81,19.17,2.83,3.28.52,4.54,2.31,4.43,5.87C534.53,520.71,534.72,530.38,534.72,540.05Z" transform="translate(206.51 116.5)"/><path class="cls-1" d="M818,910.84H-206v-1024H818ZM306.72-70.94c-12.81,0-25.7-.94-38.4.22-21,1.92-42,4.35-62.66,8.08-45.25,8.16-87.52,24.85-127.61,47.15-34.39,19.14-65.45,42.8-94,69.87-36.12,34.27-67.66,72.16-92,115.77-42.27,75.88-60,157.49-57.13,244a514.57,514.57,0,0,0,8.35,79.23A434.89,434.89,0,0,0-99.46,641.47C-67.79,693-27.51,736.78,20,774q101.22,79.31,229,93.31a498.31,498.31,0,0,0,87.74,2.43c30.64-2,60.93-6.22,90.63-13.87,74.24-19.1,139-55.75,195.32-107.43,36.84-33.78,68.42-71.86,93.71-115a429.08,429.08,0,0,0,56.61-169.11c3.11-26.81,4.92-53.59,4-80.61-1-28.32-3.65-56.39-9.32-84.16A438.47,438.47,0,0,0,713.8,160.15C686.42,114.67,652,75,612.06,40.17c-42.48-37.06-90-65.7-143-85A428.38,428.38,0,0,0,306.72-70.94Z" transform="translate(206.51 116.5)"/><path class="cls-3" d="M306.72-70.94A428.38,428.38,0,0,1,469-44.82c53,19.29,100.55,47.93,143,85,40,34.86,74.36,74.5,101.74,120a438.47,438.47,0,0,1,53.94,139.42c5.67,27.77,8.34,55.84,9.32,84.16.92,27-.89,53.8-4,80.61a429.08,429.08,0,0,1-56.61,169.11c-25.29,43.16-56.87,81.24-93.71,115C566.37,800.15,501.66,836.8,427.42,855.9c-29.7,7.65-60,11.9-90.63,13.87a498.31,498.31,0,0,1-87.74-2.43Q121.43,853.09,20,774C-27.51,736.78-67.79,693-99.46,641.47a434.89,434.89,0,0,1-57.22-148.08A514.57,514.57,0,0,1-165,414.16c-2.85-86.52,14.86-168.13,57.13-244,24.3-43.61,55.84-81.5,92-115.77,28.54-27.07,59.6-50.73,94-69.87,40.09-22.3,82.36-39,127.61-47.15,20.7-3.73,41.69-6.16,62.66-8.08C281-71.88,293.91-70.94,306.72-70.94ZM31.28,133.2c1.39,2.6,2.18,4.23,3.11,5.78q70.16,116.91,140.45,233.74c2.53,4.21,2.36,7.09-.07,11.17Q105.59,500.23,36.69,616.74c-.87,1.47-1.52,3.07-2.61,5.31H39c37,0,74-.07,111,.11,4.15,0,6.18-1.47,8-4.94q25.51-47.78,51.32-95.4c8.6-16,17.23-31.88,26.13-48.35,1.08,1.94,1.89,3.34,2.66,4.77q37.36,69.46,74.66,139c1.86,3.47,3.85,5,8,5,36.66-.19,73.32-.1,110-.12,1.72,0,3.44-.19,6-.34-1.39-2.5-2.31-4.22-3.3-5.89Q364.25,499.2,295,382.65c-2-3.38-1.88-5.68.11-8.95q71.63-117.78,143-235.69c.8-1.32,1.39-2.77,2.43-4.85-2.65-.18-4.42-.42-6.2-.42-36.66,0-73.32.06-110-.11-4.52,0-6.8,1.67-8.87,5.49q-37.87,70.07-76,140c-1.21,2.21-2.49,4.39-4,7-.81-1.34-1.26-2-1.65-2.76Q195.08,210.21,156.41,138c-2.11-3.95-4.34-5.42-8.79-5.4-36.5.17-73,.09-109.49.11C36.2,132.74,34.27,133,31.28,133.2ZM534.71,478.14c-8.18-2.28-15.55-5.06-23.17-6.26a114.06,114.06,0,0,0-23.86-1.18c-19.49,1.08-30.11,9-36,25.53-4,11.33-4.57,23.06-5.24,34.86-1.05,18.34-1,36.62,3.35,54.58,4.6,18.82,14.33,33,35.15,35.93,8.79,1.24,17.77,1.26,26.08-2.18s16-7.76,24.27-11.88a84.52,84.52,0,0,1,4,8.21c1.37,3.65,3.55,5,7.51,4.88,9.32-.28,18.67-.36,28,0,5.17.21,6.37-1.59,6.35-6.55-.2-41.14-.11-82.27-.11-123.41,0-27.82-.06-55.63.06-83.45,0-4-1-5.63-5.3-5.54q-18,.36-36,0c-4.31-.1-5.35,1.46-5.22,5.48.27,8.15.08,16.32.08,24.48Z" transform="translate(206.51 116.5)"/><path class="cls-2" d="M31.28,133.2c3-.21,4.92-.46,6.85-.46,36.5,0,73,.06,109.49-.11,4.45,0,6.68,1.45,8.79,5.4q38.52,72.25,77.44,144.27c.39.73.84,1.42,1.65,2.76,1.47-2.58,2.75-4.76,4-7q38.05-70,76-140c2.07-3.82,4.35-5.51,8.87-5.49,36.66.17,73.32.09,110,.11,1.78,0,3.55.24,6.2.42-1,2.08-1.63,3.53-2.43,4.85q-71.46,117.87-143,235.69c-2,3.27-2.12,5.57-.11,8.95q69.34,116.51,138.45,233.16c1,1.67,1.91,3.39,3.3,5.89-2.54.15-4.26.34-6,.34-36.66,0-73.32-.07-110,.12-4.16,0-6.15-1.49-8-5q-37.22-69.54-74.66-139c-.77-1.43-1.58-2.83-2.66-4.77-8.9,16.47-17.53,32.4-26.13,48.35Q183.6,569.49,158,617.22c-1.86,3.47-3.89,5-8,4.94-37-.18-74-.11-111-.11H34.08c1.09-2.24,1.74-3.84,2.61-5.31q69-116.46,138.08-232.85c2.43-4.08,2.6-7,.07-11.17Q104.43,256,34.39,139C33.46,137.43,32.67,135.8,31.28,133.2Z" transform="translate(206.51 116.5)"/><path class="cls-1" d="M534.71,478.14V431.65c0-8.16.19-16.33-.08-24.48-.13-4,.91-5.58,5.22-5.48q18,.39,36,0c4.29-.09,5.32,1.56,5.3,5.54-.12,27.82-.06,55.63-.06,83.45,0,41.14-.09,82.27.11,123.41,0,5-1.18,6.76-6.35,6.55-9.31-.38-18.66-.3-28,0-4,.12-6.14-1.23-7.51-4.88a84.52,84.52,0,0,0-4-8.21c-8.31,4.12-16.08,8.49-24.27,11.88s-17.29,3.42-26.08,2.18c-20.82-2.94-30.55-17.11-35.15-35.93-4.39-18-4.4-36.24-3.35-54.58.67-11.8,1.23-23.53,5.24-34.86,5.85-16.51,16.47-24.45,36-25.53a114.06,114.06,0,0,1,23.86,1.18C519.16,473.08,526.53,475.86,534.71,478.14Zm0,64.75c0-9.67-.18-19.34.1-29,.1-3.56-1.16-5.35-4.43-5.87-6.38-1-12.75-2.3-19.18-2.83-11.47-.93-15.35,2-16.79,14-1.54,13-1.79,26.19-1.91,39.31-.05,5.21,1.42,10.53,2.88,15.61,1.27,4.43,4,8.64,8.92,9.22,9.57,1.15,19,.22,27.31-5.37a8,8,0,0,0,3-5.59C534.87,562.56,534.71,552.72,534.71,542.89Z" transform="translate(206.51 116.5)"/><path class="cls-2" d="M534.71,542.89c0,9.83.16,19.67-.14,29.49a8,8,0,0,1-3,5.59c-8.27,5.59-17.74,6.52-27.31,5.37-4.92-.58-7.65-4.79-8.92-9.22-1.46-5.08-2.93-10.4-2.88-15.61.12-13.12.37-26.31,1.91-39.31,1.44-12,5.32-14.93,16.79-14,6.43.53,12.8,1.81,19.18,2.83,3.27.52,4.53,2.31,4.43,5.87C534.53,523.55,534.71,533.22,534.71,542.89Z" transform="translate(206.51 116.5)"/></svg>