<svg id="Layer_1" data-name="Layer 1" xmlns="http://www.w3.org/2000/svg" viewBox="0 0 109.5 109.5"><defs><style>.cls-1{fill:gray;}.cls-2{fill:#fff;}.cls-3{fill:none;stroke:#fff;stroke-miterlimit:10;stroke-width:0.52px;}</style></defs><path class="cls-1" d="M81.24,139.82c-30,.06-54.55-24.56-54.58-54.69a54.75,54.75,0,1,1,54.58,54.69Zm-15-68.44c-1.2,1-2,1.67-3.34,2.69C57.37,78.32,52,83,46.8,87.71a6,6,0,0,0-1.72,4.52c.57,4.17,4.89,5.23,8.43,2.28l5.59-4.66c2.76,10.88,3.62,13.06,7.32,17.16,7.82,8.67,17.46,11.92,28.78,8.79,13-3.58,20.72-14.6,20.56-27.72-.12-10.4-5.67-18.13-14.15-23.81C93.73,59,85.74,53.86,77.84,48.58c-2.76-1.85-5-1.6-6.88,1.1a4.59,4.59,0,0,0,1.18,6.8l6.52,4.67c-1.76.11-2.75.21-3.75.22-6.67.08-13.34.09-20,.23-3.74.08-6.35,2.5-6.07,5.36.3,3,3.23,4.9,6.94,4.65C59.4,71.61,62.73,71.48,66.26,71.38Z" transform="translate(-26.66 -30.32)"/><path class="cls-2" d="M57.08,71.57c-3.63.24-6.4-1.45-6.7-4.4s2.29-5.19,6-5.27c6.55-.14,13.1-.15,19.66-.23,1,0,2-.11,3.68-.21l-6.41-4.59a4.5,4.5,0,0,1-1.15-6.68c1.87-2.65,4-2.89,6.76-1.08,7.75,5.19,15.59,10.23,23.34,15.42,8.33,5.57,13.78,13.16,13.9,23.38.15,12.88-7.45,23.7-20.2,27.22-11.12,3.08-20.58-.11-28.26-8.63-3.64-4-4.49-6.17-7.19-16.86-1.92,1.6-3.7,3.1-5.49,4.58-3.48,2.9-7.73,1.86-8.28-2.23a5.89,5.89,0,0,1,1.69-4.44c5.07-4.64,10.56-9.21,15.83-13.4,1.14-.9,2.06-1.68,3.28-2.64C64,71.6,60.54,71.34,57.08,71.57Zm31.66,33.91c9.77.41,16.87-8.58,16.67-17.1-.24-10-8.32-17.14-18.74-16.62-7.84.38-16.14,7.87-15.48,18.42C71.64,97.31,78.54,106.38,88.74,105.48Z" transform="translate(-26.66 -30.32)"/><path class="cls-1" d="M88.74,105.48c-10.2.9-17.1-8.17-17.55-15.3-.66-10.55,7.64-18,15.48-18.42,10.42-.52,18.5,6.66,18.74,16.62C105.61,96.9,98.51,105.89,88.74,105.48Zm0-3.68c6.49.15,12.94-5.46,12.93-13.26S94.76,74.9,87.36,75.29c-6.46.34-12.83,6.83-12.4,13.49C75.46,96.28,80.74,101.75,88.72,101.8Z" transform="translate(-26.66 -30.32)"/><path class="cls-2" d="M88.72,101.8c-8,0-13.26-5.52-13.76-13-.43-6.66,5.94-13.15,12.4-13.49,7.4-.39,14.28,5.59,14.29,13.25S95.21,102,88.72,101.8Z" transform="translate(-26.66 -30.32)"/><path class="cls-3" d="M60.1,90.67l2,7.49a25.09,25.09,0,0,0,1,2.73A24.49,24.49,0,0,0,64.88,104c.35.56,1.61,2.17,2,2.65S69,109,69.57,109.5s3.86,3.08,4.84,3.67A37.35,37.35,0,0,0,78.1,115a28.52,28.52,0,0,0,7.32,1.85,26.66,26.66,0,0,0,4.54,0,33.13,33.13,0,0,0,5.36-.88,30.47,30.47,0,0,0,5.75-2.06c2.17-1.15,3.49-2,3.49-2s2.57-1.93,3.07-2.43a33.48,33.48,0,0,0,3.93-4.39,16.9,16.9,0,0,0,1.15-1.81,33.65,33.65,0,0,0,2.42-5.21l.53-1.88a28.81,28.81,0,0,0,1-4.67,10.91,10.91,0,0,0,.1-1.94s0-3.29-.22-5A11.86,11.86,0,0,0,116,82a31.24,31.24,0,0,0-2.33-6.18,36.41,36.41,0,0,0-4.61-6.24A18.61,18.61,0,0,0,107,67.46a50.35,50.35,0,0,0-6.43-4.79c-2.2-1.31-5.39-3.51-5.36-3.49l-3.73-2.5-5-3.2s-7.63-5.29-8.66-5.67a4.73,4.73,0,0,0-3.65-.12,5.6,5.6,0,0,0-2.66,2.4,5.5,5.5,0,0,0-.91,3.38,5.27,5.27,0,0,0,1.31,3c.22.28,4,2.89,4,2.89l2.28,1.71-4.94.1-18,.27s-4.9.73-5.35,4.38c-.74,6.12,6,6.37,6,6.37l1.75,0,3.1,0L64.49,72h1.57l-1.64,1.37-9.82,8-6.79,6s-1.71,2.17-1.71,3.92a5.4,5.4,0,0,0,1.31,3.58,5.09,5.09,0,0,0,4.32,1.39,9.54,9.54,0,0,0,3.15-1.38l4-3.31Z" transform="translate(-26.66 -30.32)"/></svg>