<svg id="Layer_1" data-name="Layer 1" xmlns="http://www.w3.org/2000/svg" viewBox="0 0 109.79 109.8"><defs><style>.cls-1,.cls-4{fill:gray;}.cls-1{stroke:#999;}.cls-1,.cls-2,.cls-4{stroke-miterlimit:10;}.cls-1,.cls-2{stroke-width:0.27px;}.cls-2{fill:none;}.cls-2,.cls-4{stroke:#fff;}.cls-3{fill:#fff;}.cls-4{stroke-width:0.72px;}</style></defs><path class="cls-1" d="M200.79,139.73c-30,.05-54.55-24.56-54.58-54.7a54.76,54.76,0,1,1,54.58,54.7Z" transform="translate(-146.08 -30.06)"/><path class="cls-2" d="M226.11,90.48a20.16,20.16,0,0,1-.65,3.23l-.37,1.3a23.3,23.3,0,0,1-1.67,3.6,12.79,12.79,0,0,1-.8,1.25,23.16,23.16,0,0,1-2.71,3c-.35.35-2.12,1.68-2.12,1.68s-.92.6-2.41,1.4a21.09,21.09,0,0,1-4,1.42,22.15,22.15,0,0,1-3.7.61,19.47,19.47,0,0,1-3.14,0,20.51,20.51,0,0,1-5.07-1.28,27.53,27.53,0,0,1-2.55-1.26c-.67-.41-3-2.19-3.34-2.54s-1.57-1.62-1.85-2-1.15-1.45-1.39-1.84a15.94,15.94,0,0,1-1.89-4l-1.42-5.17-.8.64-2.8,2.29a6.55,6.55,0,0,1-2.18,1,3.48,3.48,0,0,1-3-1,3.69,3.69,0,0,1-.91-2.47,5.71,5.71,0,0,1,1.18-2.72l4.7-4.15,6.79-5.53,1.13-1h-1.09l-2.59.08-2.14,0-1.21,0s-4.64-.17-4.13-4.4c.31-2.53,3.7-3,3.7-3l12.45-.19,3.41-.07L198,68.25s-2.65-1.8-2.79-2a3.56,3.56,0,0,1-.91-2.08,3.75,3.75,0,0,1,.63-2.34,3.9,3.9,0,0,1,1.83-1.66,3.31,3.31,0,0,1,2.53.08c.71.27,6,3.93,6,3.93l3.46,2.21,2.57,1.72s2.19,1.51,3.71,2.41a35.9,35.9,0,0,1,4.45,3.31,16.5,16.5,0,0,1,1.46,1.44,25.45,25.45,0,0,1,3.18,4.31,22,22,0,0,1,1.61,4.27,8.75,8.75,0,0,1,.31,1.86c.14,1.15.15,3.43.15,3.43A6.49,6.49,0,0,1,226.11,90.48Z" transform="translate(-146.08 -30.06)"/><path class="cls-2" d="M184.46,70c4.53-.09,9.06-.1,13.58-.15.68,0,1.35-.08,2.55-.15l0,0c-1.16.07-1.83.14-2.49.14-4.53.06-9.06.06-13.58.16a4.3,4.3,0,0,0-3.78,2A4.32,4.32,0,0,1,184.46,70Z" transform="translate(-146.08 -30.06)"/><path class="cls-2" d="M192.15,76.63l-.93.77.95-.77Z" transform="translate(-146.08 -30.06)"/><path class="cls-2" d="M216.19,71.78c-5.36-3.59-10.78-7.07-16.14-10.66-1.88-1.25-3.38-1.08-4.67.75a4.13,4.13,0,0,0-.37.63,4.66,4.66,0,0,1,.35-.6c1.3-1.83,2.8-2,4.68-.74,5.35,3.58,10.77,7.06,16.13,10.65,5.75,3.85,9.52,9.1,9.61,16.16a20.12,20.12,0,0,1-2.05,9.21,20,20,0,0,0,2.06-9.24C225.71,80.88,221.94,75.63,216.19,71.78Z" transform="translate(-146.08 -30.06)"/><path class="cls-2" d="M185,76.68a5.5,5.5,0,0,1-2.86-.51,5.47,5.47,0,0,0,2.95.59c1.95,0,3.77-.06,5.63-.11C188.78,76.64,186.87,76.55,185,76.68Z" transform="translate(-146.08 -30.06)"/><path class="cls-2" d="M189.91,78.46l.82-.66c-.24.19-.5.4-.81.63-3.77,2.88-7.44,6.06-10.94,9.26a3.41,3.41,0,0,0-.74,1,3.52,3.52,0,0,1,.72-1C182.47,84.52,186.26,81.36,189.91,78.46Z" transform="translate(-146.08 -30.06)"/><path class="cls-2" d="M190.73,77.8l.49-.4Z" transform="translate(-146.08 -30.06)"/><path class="cls-2" d="M196.18,66.49a3.07,3.07,0,0,1-1.17-4,3.07,3.07,0,0,0,1.15,4l4.39,3.14h.06Z" transform="translate(-146.08 -30.06)"/><path class="cls-2" d="M180.36,73.6a2.87,2.87,0,0,1,.34-1.66,2.81,2.81,0,0,0-.36,1.69,3.14,3.14,0,0,0,1.77,2.54A3.28,3.28,0,0,1,180.36,73.6Z" transform="translate(-146.08 -30.06)"/><path class="cls-2" d="M211.83,106.75c-7.68,2.13-14.23-.08-19.53-6-2.52-2.79-3.1-4.26-5-11.65-1.33,1.1-2.56,2.14-3.8,3.16-2.4,2-5.34,1.29-5.72-1.54a3.77,3.77,0,0,1,.43-2,3.83,3.83,0,0,0-.45,2.07c.39,2.83,3.32,3.54,5.73,1.54l3.79-3.16c1.87,7.39,2.46,8.86,5,11.65,5.31,5.89,11.85,8.09,19.54,6a18.52,18.52,0,0,0,11.91-9.61A18.49,18.49,0,0,1,211.83,106.75Z" transform="translate(-146.08 -30.06)"/><path class="cls-2" d="M190.69,76.65c.49,0,1,0,1.46,0l0,0Z" transform="translate(-146.08 -30.06)"/><path class="cls-3" d="M186.1,90.76l1.26,4.51a12.38,12.38,0,0,0,.67,1.91,23.62,23.62,0,0,0,1.3,2.37,19.74,19.74,0,0,0,1.49,1.89c.29.34,1.33,1.47,1.72,1.83a42.75,42.75,0,0,0,3.47,2.65,25.3,25.3,0,0,0,2.62,1.3,19.57,19.57,0,0,0,5.1,1.31,20.83,20.83,0,0,0,3.3.14,24.23,24.23,0,0,0,3.88-.62,21.37,21.37,0,0,0,4-1.5,27.63,27.63,0,0,0,2.63-1.6s1.66-1.24,2-1.61a20.94,20.94,0,0,0,2.74-3l1-1.51A21,21,0,0,0,225,95.23l.39-1.37a20.94,20.94,0,0,0,.64-3.26,6.89,6.89,0,0,1,.14-1.37s-.09-2.42-.24-3.63a17.34,17.34,0,0,0-.27-1.91A22.12,22.12,0,0,0,224,79.42a26.06,26.06,0,0,0-3.3-4.59c-1.41-1.46-1.53-1.46-1.53-1.46A35.92,35.92,0,0,0,214.63,70c-1.58-1-3.92-2.58-3.91-2.56l-2.81-1.79-3.53-2.37s-5.24-3.42-6-3.7a3.33,3.33,0,0,0-2.65.12,4.6,4.6,0,0,0-1.95,1.81,4.68,4.68,0,0,0-.63,2.7,3.77,3.77,0,0,0,1.22,2.56c.2.16,1.48,1,1.48,1L197.4,69l-4.77,0-10.11.16s-3.43.78-3.74,3.42c-.54,4.43,3.88,5,3.88,5l1.53.09h1.72l2.14-.09h.86l-2.72,2.09-4.41,3.57-4,3.41a7.28,7.28,0,0,0-1.67,3.67,3.67,3.67,0,0,0,.63,2.68,4.23,4.23,0,0,0,3.67,1.46,6.38,6.38,0,0,0,2.6-1l1.88-1.58Z" transform="translate(-146.08 -30.06)"/><path class="cls-4" d="M206,97.88a9.2,9.2,0,0,1-9.51-9c-.31-4.6,4.1-9.09,8.56-9.32A9.42,9.42,0,0,1,215,88.71,9.05,9.05,0,0,1,206,97.88Z" transform="translate(-146.08 -30.06)"/></svg>