<svg id="Layer_1" data-name="Layer 1" xmlns="http://www.w3.org/2000/svg" viewBox="0 0 306.79 306.83"><defs><style>.cls-1,.cls-3{fill:#fff;}.cls-1,.cls-2,.cls-3{stroke:#020202;}.cls-1,.cls-2,.cls-3,.cls-4{stroke-miterlimit:10;}.cls-1,.cls-2{stroke-width:0.75px;}.cls-2,.cls-4{fill:none;}.cls-3{stroke-width:2px;}.cls-4{stroke:#080808;stroke-width:1.04px;}</style></defs><path class="cls-1" d="M348.5,377.87C264.7,378,196.07,309.24,196,225a152.17,152.17,0,0,1,16.66-69.55c25.25-49.54,76.63-83.65,135.6-83.69,85-.06,153.61,68,153.77,152.6A152.94,152.94,0,0,1,348.5,377.87Z" transform="translate(-195.6 -71.42)"/><path class="cls-2" d="M419.25,240.25a55.43,55.43,0,0,1-1.82,9l-1,3.64c-1,3.64-4.65,10-4.65,10a33.82,33.82,0,0,1-2.23,3.51c-2.23,3.36-6.61,7.49-7.58,8.47s-5.94,4.7-5.94,4.7-2.55,1.67-6.73,3.9-8.86,3.25-11.11,4a64.42,64.42,0,0,1-10.36,1.69,52.71,52.71,0,0,1-8.77-.08,56.17,56.17,0,0,1-14.14-3.58,71.34,71.34,0,0,1-7.13-3.53c-1.88-1.13-8.27-6.11-9.33-7.08s-4.4-4.53-5.18-5.46-3.21-4.05-3.88-5.13a44.63,44.63,0,0,1-3.31-6,47.57,47.57,0,0,1-2-5.26l-3.95-14.47-2.26,1.8L300,246.75a18.45,18.45,0,0,1-6.08,2.66,9.8,9.8,0,0,1-8.34-2.68,10.36,10.36,0,0,1-2.54-6.91c0-3.38,3.3-7.58,3.3-7.58l13.12-11.61,19-15.46,3.16-2.65-3,0-7.26.24-6,.07-3.38.06s-12.95-.47-11.52-12.3c.85-7.06,10.33-8.47,10.33-8.47l34.79-.52,9.53-.19-4.4-3.29s-7.39-5-7.8-5.59a10.07,10.07,0,0,1-2.53-5.83,10.55,10.55,0,0,1,1.75-6.54c1.46-2.21,3.27-4.07,5.14-4.63a9.15,9.15,0,0,1,7.06.23c2,.74,16.72,11,16.72,11l9.66,6.18,7.19,4.83c-.05-.05,6.11,4.2,10.35,6.73a98.38,98.38,0,0,1,12.43,9.25s.28.09,4.07,4a70.93,70.93,0,0,1,8.91,12c2.4,4.05,4.5,11.93,4.5,11.93s.33.67.87,5.2c.38,3.23.41,9.6.41,9.6S419.56,236.44,419.25,240.25Z" transform="translate(-195.6 -71.42)"/><path class="cls-2" d="M302.86,183c12.65-.28,25.31-.29,38-.44,1.89,0,3.77-.22,7.12-.42l-.11-.07c-3.25.19-5.11.38-7,.4-12.66.15-25.31.17-38,.44-4.92.11-8.8,2.35-10.55,5.52C294.13,185.3,298,183.11,302.86,183Z" transform="translate(-195.6 -71.42)"/><path class="cls-2" d="M324.35,201.55l-2.59,2.13c.84-.68,1.69-1.37,2.66-2.13Z" transform="translate(-195.6 -71.42)"/><path class="cls-2" d="M391.52,188c-15-10-30.12-19.76-45.09-29.78-5.24-3.5-9.44-3-13.06,2.1a11.75,11.75,0,0,0-1,1.75,11.61,11.61,0,0,1,1-1.67c3.62-5.12,7.81-5.6,13.06-2.09,15,10,30.12,19.75,45.09,29.77,16.07,10.77,26.6,25.42,26.84,45.16A55.88,55.88,0,0,1,412.61,259a56,56,0,0,0,5.75-25.82C418.13,213.4,407.6,198.75,391.52,188Z" transform="translate(-195.6 -71.42)"/><path class="cls-2" d="M304.29,201.67a15.23,15.23,0,0,1-8-1.42,14.88,14.88,0,0,0,8.24,1.65c5.44,0,10.53-.16,15.73-.31C315,201.56,309.6,201.32,304.29,201.67Z" transform="translate(-195.6 -71.42)"/><path class="cls-2" d="M318.09,206.66l2.3-1.86c-.69.55-1.41,1.13-2.26,1.77-10.54,8.06-20.8,16.93-30.58,25.87a9.83,9.83,0,0,0-2.06,2.87,9.75,9.75,0,0,1,2-2.78C297.29,223.58,307.9,214.75,318.09,206.66Z" transform="translate(-195.6 -71.42)"/><path class="cls-2" d="M320.39,204.8l1.37-1.12Z" transform="translate(-195.6 -71.42)"/><path class="cls-2" d="M335.61,173.2c-4-2.87-5.19-7.07-3.27-11.14-2,4.1-.81,8.34,3.23,11.22l12.26,8.79H348C343,178.47,339.3,175.83,335.61,173.2Z" transform="translate(-195.6 -71.42)"/><path class="cls-2" d="M291.4,193.08a8,8,0,0,1,1-4.65,8,8,0,0,0-1,4.74,8.72,8.72,0,0,0,4.95,7.08A9.12,9.12,0,0,1,291.4,193.08Z" transform="translate(-195.6 -71.42)"/><path class="cls-2" d="M379.35,285.72c-21.48,5.94-39.76-.22-54.59-16.67-7-7.79-8.66-11.91-13.88-32.56-3.7,3.09-7.15,6-10.6,8.85-6.72,5.59-14.93,3.59-16-4.32a10.6,10.6,0,0,1,1.21-5.71,10.66,10.66,0,0,0-1.25,5.8c1.07,7.91,9.27,9.9,16,4.32l10.61-8.85c5.22,20.65,6.86,24.77,13.88,32.56,14.83,16.45,33.11,22.6,54.59,16.67,15.4-4.25,26.91-14,33.3-26.84C406.21,271.74,394.72,281.48,379.35,285.72Z" transform="translate(-195.6 -71.42)"/><path class="cls-2" d="M320.28,201.59c1.36,0,2.72,0,4.07,0l.11-.08Z" transform="translate(-195.6 -71.42)"/><path class="cls-3" d="M364.83,260.93c-15.41-.1-25.62-10.67-26.57-25.15-.85-12.86,11.47-25.4,23.94-26.05,14.28-.76,27.58,10.79,27.6,25.58C389.81,250.38,377.36,261.21,364.83,260.93Z" transform="translate(-195.6 -71.42)"/><path class="cls-4" d="M309.18,241l3.51,12.61a34.83,34.83,0,0,0,1.88,5.33,63.6,63.6,0,0,0,3.64,6.63,57,57,0,0,0,4.16,5.26c.81,1,3.7,4.11,4.81,5.13s7.71,6.23,9.68,7.41A73.09,73.09,0,0,0,344.2,287a54.64,54.64,0,0,0,14.23,3.64,56.45,56.45,0,0,0,9.23.39,69.06,69.06,0,0,0,10.85-1.72c2.35-.77,6.93-1.86,11.29-4.2a73,73,0,0,0,7.36-4.48s4.63-3.46,5.65-4.48,5.34-4.94,7.67-8.45l2.79-4.22s3.6-6.2,4.68-10L419,249.7a57.44,57.44,0,0,0,1.78-9.12c.31-4,.39-3.83.39-3.83s-.25-6.76-.65-10.14a40.93,40.93,0,0,0-.78-5.33s-2.11-7.71-4.61-11.95a73,73,0,0,0-9.23-12.8c-3.95-4.11-4.29-4.1-4.29-4.1A100.31,100.31,0,0,0,388.9,183c-4.41-2.65-11-7.2-10.91-7.15l-7.86-5-9.88-6.63s-14.64-9.56-16.7-10.33-3.86-1-7.41.33c-1.9.69-3.93,2.75-5.45,5.06a13,13,0,0,0-1.76,7.54,10.55,10.55,0,0,0,3.41,7.15c.56.44,4.13,2.86,4.13,2.86l4.29,3.31-13.32.07-28.27.45s-9.57,2.16-10.46,9.55c-1.49,12.38,10.85,14,10.85,14l4.29.28h4.81l6-.28H317l-7.59,5.87-12.35,9.95L286,229.59s-4.22,4.75-4.68,10.27c-.28,3.51.54,5.93,1.78,7.48s5.37,4.94,10.24,4.09a18.14,18.14,0,0,0,7.28-2.79l5.26-4.42Z" transform="translate(-195.6 -71.42)"/></svg>