<svg id="Layer_1" data-name="Layer 1" xmlns="http://www.w3.org/2000/svg" viewBox="0 0 109.5 109.5"><defs><style>.cls-1{fill:gray;}.cls-2{fill:#fff;}</style></defs><path class="cls-1" d="M200.58,271.7C170.6,271.76,146,247.14,146,217a54.76,54.76,0,1,1,54.58,54.69Z" transform="translate(-146 -162.2)"/><path class="cls-2" d="M184.5,227.75l-1,.67a11.95,11.95,0,0,0,7.25,22c5.65-.38,10.19-4.15,11-9.82.54-3.94.26-8,.33-12,0-1.27,0-2.54,0-4.08,6.44,6.69,14.46,5,18.5.39,5-5.68,3.76-12.61-3.4-18.7.19-.15.37-.3.57-.43,4.86-3.24,6.85-8.42,5.27-13.67s-6.06-8.5-11.91-8.53h-4.85c-5.86,0-11.74-.15-17.59.17-4.56.25-7.8,2.93-9.57,7.1a11.29,11.29,0,0,0,1.57,12,32.1,32.1,0,0,0,3.68,3.5C175.86,211.42,176,222.62,184.5,227.75Z" transform="translate(-146 -162.2)"/><path class="cls-2" d="M184.5,227.75c-8.51-5.13-8.64-16.33-.22-21.45a32.1,32.1,0,0,1-3.68-3.5,11.29,11.29,0,0,1-1.57-12c1.77-4.17,5-6.85,9.57-7.1,5.85-.32,11.73-.14,17.59-.17H211c5.85,0,10.3,3.23,11.91,8.53s-.41,10.43-5.27,13.67c-.2.13-.38.28-.57.43,7.16,6.09,8.39,13,3.4,18.7-4,4.59-12.06,6.3-18.5-.39,0,1.54,0,2.81,0,4.08-.07,4,.21,8.06-.33,12-.77,5.67-5.31,9.44-11,9.82a11.95,11.95,0,0,1-7.25-22ZM199.42,186c-3.38,0-6.56-.14-9.71,0a9.58,9.58,0,0,0-9.22,9.06c-.25,4.52,3.08,9.13,7.64,9.68,3.7.45,7.48.09,11.29.09Zm2.69,19c3.29,0,6.46.05,9.62,0a9.52,9.52,0,0,0,9.27-8.77c.43-4.63-3-9.34-7.73-9.91-3.64-.44-7.37-.09-11.16-.09Zm-2.72,21.47v-19c-3.26,0-6.43,0-9.59,0a9.58,9.58,0,0,0-9.31,9.15,9.46,9.46,0,0,0,8.45,9.75C192.37,226.65,195.85,226.42,199.39,226.42Zm.05,2.56c-3.38,0-6.54,0-9.71,0a9.5,9.5,0,0,0-9.25,9.33,9.67,9.67,0,0,0,9,9.63,9.46,9.46,0,0,0,9.9-8.23C199.69,236.24,199.44,232.7,199.44,229ZM202,216.92a9.51,9.51,0,1,0,9.49-9.47A9.56,9.56,0,0,0,202,216.92Z" transform="translate(-146 -162.2)"/><path class="cls-1" d="M199.42,186v18.86c-3.81,0-7.59.36-11.29-.09-4.56-.55-7.89-5.16-7.64-9.68a9.58,9.58,0,0,1,9.22-9.06C192.86,185.81,196,186,199.42,186Z" transform="translate(-146 -162.2)"/><path class="cls-1" d="M202.06,204.87V186.09c3.79,0,7.51-.35,11.15.09,4.76.56,8.16,5.28,7.73,9.91a9.51,9.51,0,0,1-9.27,8.77C208.51,204.91,205.35,204.87,202.06,204.87Z" transform="translate(-146 -162.2)"/><path class="cls-1" d="M199.39,226.42c-3.54,0-7,.23-10.45,0a9.46,9.46,0,0,1-8.45-9.75,9.58,9.58,0,0,1,9.31-9.15c3.16-.07,6.33,0,9.59,0Z" transform="translate(-146 -162.2)"/><path class="cls-1" d="M199.44,229c0,3.72.25,7.26-.05,10.75a9.46,9.46,0,0,1-9.9,8.23,9.67,9.67,0,0,1-9-9.63,9.5,9.5,0,0,1,9.25-9.33C192.9,228.93,196.06,229,199.44,229Z" transform="translate(-146 -162.2)"/><path class="cls-1" d="M202,216.92a9.51,9.51,0,1,1,9.4,9.56A9.55,9.55,0,0,1,202,216.92Z" transform="translate(-146 -162.2)"/></svg>