<svg id="Layer_1" data-name="Layer 1" xmlns="http://www.w3.org/2000/svg" viewBox="0 0 109.5 110.09"><defs><style>.cls-1{fill:gray;}.cls-2{fill:#fefefe;}</style></defs><path class="cls-1" d="M85.38,432.37c-30,.05-54.54-24.56-54.58-54.7a54.76,54.76,0,1,1,54.58,54.7Z" transform="translate(-30.8 -322.87)"/><path class="cls-1" d="M90.8,393.83c-7,.62-11.82-5.65-12.12-10.57-.46-7.3,5.27-12.47,10.69-12.74,7.21-.35,12.79,4.61,12.95,11.49C102.46,387.9,97.56,394.12,90.8,393.83Zm0-2.54a9.06,9.06,0,0,0,8.93-9.17A9.42,9.42,0,0,0,89.85,373c-4.46.24-8.87,4.73-8.57,9.33A9.21,9.21,0,0,0,90.79,391.29Z" transform="translate(-30.8 -322.87)"/><circle class="cls-2" cx="54.75" cy="68.42" r="41.67"/><path class="cls-1" d="M93.66,409a12,12,0,0,1,2.83,8.58c0,3.76,0,6.11,0,9.87,0,1.83,1.49,3.48,3.27,3.05.58-.14,4.18-1.06,4.74-1.27,19.18-7.18,27.59-26,24.44-46.22a43.94,43.94,0,0,0-64.7-31.75C35.27,367.19,34,408.79,61.9,426.45c3,1.87,7,2.81,10.27,4.2,1.54.67,2.31-.78,2.38-2.19.14-2.79,0-4.52,0-7.44-1.17.15-2.13.3-3.09.4-4.77.48-10.23-1.15-12.13-6.62a10.76,10.76,0,0,0-4.43-5.5c-.73-.48-2-1-1.44-2,.3-.51,1.79-.63,2.65-.47a8.77,8.77,0,0,1,5.94,4.49c2.68,4.38,7.14,5.84,11.83,3.82a1.57,1.57,0,0,0,.82-.69c.76-1.81,1.46-3.65,2.18-5.5-.78-.12-1.79-.26-2.79-.45-4.81-.93-9.22-2.66-12.37-6.63-5.54-7-5.62-18.55-.3-25.72a2,2,0,0,0,.26-1.48,16.9,16.9,0,0,1,0-8.36c.63-2.64,1-2.87,3.68-2.29a28.42,28.42,0,0,1,8.36,3.78,2.59,2.59,0,0,0,1.75.34,36.27,36.27,0,0,1,16.5-.62,10.89,10.89,0,0,0,8.69-1.48c1.93-1.19,4.37-1.55,6.61-2.2.91-.26,1.47.17,1.75,1.15a17.75,17.75,0,0,1,.34,9.72,1.83,1.83,0,0,0,.29,1.47c6.11,6.74,4.09,19.57.44,24.71-3,4.2-7.21,6.28-12,7.35C96.65,408.52,95.25,408.7,93.66,409Zm-22.31,8.46c-.64-.38-.94-.72-1.2-.68s-.63.37-1,.58c.23.19.46.53.7.55A5.36,5.36,0,0,0,71.35,417.44Zm-3.55-.55a7.26,7.26,0,0,0-1.48-.69c-.17,0-.42.36-.63.55a3.74,3.74,0,0,0,1,.62C66.87,417.43,67.17,417.17,67.8,416.89Zm-5.41-2.05a9.73,9.73,0,0,0,1.27.87c.07,0,.51-.49.49-.52a4.4,4.4,0,0,0-.94-.89C63.12,414.25,62.8,414.56,62.39,414.84Zm10.77,2.83.62.4a4.18,4.18,0,0,0,.4-1.19c0-.17-.47-.56-.65-.52a3.27,3.27,0,0,0-1,.62Z" transform="translate(-30.8 -322.87)"/><path class="cls-1" d="M93.66,409c1.59-.28,3-.46,4.36-.77,4.84-1.07,9.06-3.15,12-7.35,3.65-5.14,5.67-18-.44-24.71a1.83,1.83,0,0,1-.29-1.47A17.75,17.75,0,0,0,109,365c-.28-1-.84-1.41-1.75-1.15-2.24.65-4.68,1-6.61,2.2A10.89,10.89,0,0,1,92,367.49a36.27,36.27,0,0,0-16.5.62,2.59,2.59,0,0,1-1.75-.34A28.42,28.42,0,0,0,65.34,364c-2.66-.58-3.05-.35-3.68,2.29a16.9,16.9,0,0,0,0,8.36,2,2,0,0,1-.26,1.48c-5.32,7.17-5.24,18.72.3,25.72,3.15,4,7.56,5.7,12.37,6.63,1,.19,2,.33,2.79.45-.72,1.85-1.42,3.69-2.18,5.5a1.57,1.57,0,0,1-.82.69c-4.69,2-9.15.56-11.83-3.82a8.77,8.77,0,0,0-5.94-4.49c-.86-.16-2.35,0-2.65.47-.58,1,.71,1.55,1.44,2a10.76,10.76,0,0,1,4.43,5.5c1.9,5.47,7.36,7.1,12.13,6.62,1-.1,1.92-.25,3.09-.4,0,2.92.14,4.65,0,7.44a2.35,2.35,0,0,1-3.2,2c-3.24-1.39-6.49-2.15-9.45-4C34,408.79,35.27,367.19,64.2,351.24A43.94,43.94,0,0,1,128.9,383c3.15,20.25-6.08,38.91-25.26,46.09-.56.2-1.63.81-2.21.95-1.78.42-5-.77-5-2.6,0-3.76,0-6.11,0-9.87A12,12,0,0,0,93.66,409Z" transform="translate(-30.8 -322.87)"/><path class="cls-1" d="M71.35,417.44a5.36,5.36,0,0,1-1.45.45c-.24,0-.47-.36-.7-.55.32-.21.61-.54,1-.58S70.71,417.06,71.35,417.44Z" transform="translate(-30.8 -322.87)"/><path class="cls-1" d="M67.8,416.89c-.63.28-.93.54-1.15.48a3.74,3.74,0,0,1-1-.62c.21-.19.46-.58.63-.55A7.26,7.26,0,0,1,67.8,416.89Z" transform="translate(-30.8 -322.87)"/><path class="cls-1" d="M62.39,414.84c.41-.28.73-.59.82-.54a4.4,4.4,0,0,1,.94.89s-.42.55-.49.52A9.73,9.73,0,0,1,62.39,414.84Z" transform="translate(-30.8 -322.87)"/><path class="cls-1" d="M73.16,417.67l-.59-.69a3.27,3.27,0,0,1,1-.62c.18,0,.66.35.65.52a4.18,4.18,0,0,1-.4,1.19Z" transform="translate(-30.8 -322.87)"/></svg>