<svg id="Layer_1" data-name="Layer 1" xmlns="http://www.w3.org/2000/svg" viewBox="0 0 109.5 109.5"><defs><style>.cls-1{fill:gray;}.cls-2{fill:#fff;}</style></defs><path class="cls-1" d="M448.53,135.28c-30,.05-54.55-24.56-54.58-54.7a54.75,54.75,0,1,1,54.58,54.7Z" transform="translate(-393.95 -25.78)"/><path d="M455.67,101c-.41-1.48-.66-2.57-1-3.64q-7-21.64-14.07-43.29c-1.06-3.25-1.44-7.69-3.74-9.31s-6.66-.4-10.1-.6c-2.06-.12-2.88.68-3.48,2.62-3.51,11.29-7.18,22.54-10.79,33.8L406,101a79.53,79.53,0,0,0,8.55-.11,3.9,3.9,0,0,0,2.7-2.11c1.36-3.73,2.43-7.57,3.52-11.4.44-1.58,1-2.47,3-2.41,4.61.15,9.23.12,13.84,0a2.5,2.5,0,0,1,2.88,2.1c1.19,4,2.46,8,3.86,12,.28.78,1.26,1.81,2,1.86C449.24,101.11,452.27,101,455.67,101Zm39.39-17.55a77.82,77.82,0,0,0-.05-8.28c-1-8.78-6.47-14.8-14.17-15.82-12.8-1.69-22.4,6.57-23.27,20-.83,12.77,6.25,21.35,18.86,22.42a35.12,35.12,0,0,0,10.33-.64c7.29-1.61,6.56-.71,4.79-8.08,0-.09-.14-.15-.39-.41-.76.17-1.65.41-2.54.58-5,1-10,1.71-14.87-.35-4.16-1.76-6.35-5.24-5.83-9.47Z" transform="translate(-393.95 -25.78)"/><path class="cls-2" d="M455.67,101c-3.4,0-6.43.12-9.44-.09-.71-.05-1.69-1.08-2-1.86-1.4-3.94-2.67-7.94-3.86-12a2.5,2.5,0,0,0-2.88-2.1c-4.61.11-9.23.14-13.84,0-1.91-.06-2.52.83-3,2.41-1.09,3.83-2.16,7.67-3.52,11.4a3.9,3.9,0,0,1-2.7,2.11A79.53,79.53,0,0,1,406,101l6.53-20.44c3.61-11.26,7.28-22.51,10.79-33.8.6-1.94,1.42-2.74,3.48-2.62,3.44.2,7.76-1,10.1.6s2.68,6.06,3.74,9.31q7.1,21.63,14.07,43.29C455,98.42,455.26,99.51,455.67,101ZM437.75,77c-2.44-8-4.81-15.83-7.29-24l-6.23,20.81c-.3,1-.56,2-.89,3.2Z" transform="translate(-393.95 -25.78)"/><path class="cls-2" d="M495.06,83.44H467.92c-.52,4.23,1.67,7.71,5.83,9.47,4.9,2.06,9.89,1.33,14.87.35.89-.17,1.78-.41,2.54-.58.25.26.37.32.39.41,1.77,7.37,2.5,6.47-4.79,8.08a35.12,35.12,0,0,1-10.33.64c-12.61-1.07-19.69-9.65-18.86-22.42.87-13.48,10.47-21.74,23.27-20,7.7,1,13.19,7,14.17,15.82A77.82,77.82,0,0,1,495.06,83.44Zm-27.43-7.36h17.76c0-6-2.91-9.64-7.62-9.92C472.26,65.84,468.48,69.44,467.63,76.08Z" transform="translate(-393.95 -25.78)"/><path class="cls-1" d="M437.75,77H423.34c.33-1.21.59-2.21.89-3.2L430.46,53C432.94,61.16,435.31,68.94,437.75,77Z" transform="translate(-393.95 -25.78)"/><path class="cls-1" d="M467.63,76.08c.85-6.64,4.63-10.24,10.14-9.92,4.71.28,7.59,3.91,7.62,9.92Z" transform="translate(-393.95 -25.78)"/></svg>