<svg id="Layer_1" data-name="Layer 1" xmlns="http://www.w3.org/2000/svg" viewBox="0 0 108.56 108.58"><defs><style>.cls-1{fill:gray;}.cls-2{fill:#fff;}</style></defs><path class="cls-1" d="M337.71,271.7A54.29,54.29,0,1,1,392,217.46,54.37,54.37,0,0,1,337.71,271.7Zm10.17-25.42h3.67a1.47,1.47,0,0,0,1.68-1.78,24.28,24.28,0,0,0-.38-2.95,33,33,0,0,0-7.09-14.32c-.81-1-.78-1.61.14-2.49,1.74-1.66,3.37-3.42,5-5.18,3.21-3.47,6.27-7.08,8.12-11.46a44.32,44.32,0,0,0,2.15-7.38c.31-1.34-.57-2-1.81-1.61-2.59.8-5.2,1.55-7.76,2.43a3.18,3.18,0,0,0-1.51,1.33c-.72,1.14-1.08,2.55-1.93,3.57-3.11,3.75-6.36,7.4-9.58,11.06-.7.78-1.45.52-2.11-.16-1.29-1.34-2.6-2.65-3.87-4-3-3.22-5.86-6.53-7.55-10.69a2,2,0,0,0-1.15-1c-2.7-.89-5.42-1.72-8.14-2.54a1.25,1.25,0,0,0-1.74,1.27,7.42,7.42,0,0,0,.16,1.62,23.35,23.35,0,0,0,4.67,10.71c3.35,4.2,7,8.16,10.57,12.19,2.62,2.94,5.4,5.73,7.93,8.75a20.85,20.85,0,0,1,5.2,11.29,1.38,1.38,0,0,0,1.53,1.37C345.34,246.29,346.61,246.28,347.88,246.28Zm-20.65.15c1.22,0,2.44,0,3.66,0,1,0,1.48-.54,1.75-1.53.58-2.16,1.24-4.32,2-6.42a2.33,2.33,0,0,0-.28-2.63c-1.59-1.8-3.18-3.58-4.78-5.36-.79-.88-1.62-.85-2.25.1a28.79,28.79,0,0,0-5.18,14.06c-.09,1.2.53,1.76,1.68,1.78S326.1,246.43,327.23,246.43Zm10.52-43.52c-1.35,0-2.7,0-4.06,0s-2,.82-1.35,1.9a75.25,75.25,0,0,0,4.37,6.3,1.26,1.26,0,0,0,2.11-.05c1.49-2,3-4.06,4.28-6.2.66-1.09,0-1.93-1.29-2S339.11,202.91,337.75,202.91Zm-.06-18.71a4.08,4.08,0,0,0-4.07,4.06,4.11,4.11,0,1,0,8.22,0A4,4,0,0,0,337.69,184.2ZM355.18,192a4.09,4.09,0,0,0-4.14-4.12A4.16,4.16,0,0,0,347,192a4.08,4.08,0,0,0,4,4.08A4,4,0,0,0,355.18,192Zm-30.87,4a4.09,4.09,0,0,0,4.17-4.09,4.17,4.17,0,0,0-4.07-4.08,4.09,4.09,0,0,0-4.13,4.12A4,4,0,0,0,324.31,196Z" transform="translate(-283.45 -163.13)"/><path class="cls-2" d="M347.88,246.28c-1.27,0-2.54,0-3.8,0a1.38,1.38,0,0,1-1.53-1.37,20.85,20.85,0,0,0-5.2-11.29c-2.53-3-5.31-5.81-7.93-8.75-3.57-4-7.22-8-10.57-12.19A23.35,23.35,0,0,1,314.18,202a7.42,7.42,0,0,1-.16-1.62,1.25,1.25,0,0,1,1.74-1.27c2.72.82,5.44,1.65,8.14,2.54a2,2,0,0,1,1.15,1c1.69,4.16,4.55,7.47,7.55,10.69,1.27,1.36,2.58,2.67,3.87,4,.66.68,1.41.94,2.11.16,3.22-3.66,6.47-7.31,9.58-11.06.85-1,1.21-2.43,1.93-3.57a3.18,3.18,0,0,1,1.51-1.33c2.56-.88,5.17-1.63,7.76-2.43,1.24-.38,2.12.27,1.81,1.61A44.32,44.32,0,0,1,359,208.1c-1.85,4.38-4.91,8-8.12,11.46-1.63,1.76-3.26,3.52-5,5.18-.92.88-.95,1.48-.14,2.49a33,33,0,0,1,7.09,14.32,24.28,24.28,0,0,1,.38,2.95,1.47,1.47,0,0,1-1.68,1.78Z" transform="translate(-283.45 -163.13)"/><path class="cls-2" d="M327.23,246.43c-1.13,0-2.26,0-3.39,0s-1.77-.58-1.68-1.78a28.79,28.79,0,0,1,5.18-14.06c.63-1,1.46-1,2.25-.1,1.6,1.78,3.19,3.56,4.78,5.36a2.33,2.33,0,0,1,.28,2.63c-.77,2.1-1.43,4.26-2,6.42-.27,1-.75,1.51-1.75,1.53C329.67,246.44,328.45,246.43,327.23,246.43Z" transform="translate(-283.45 -163.13)"/><path class="cls-2" d="M337.75,202.91c1.36,0,2.71,0,4.06,0s1.95.86,1.29,2c-1.31,2.14-2.79,4.18-4.28,6.2a1.26,1.26,0,0,1-2.11.05,75.25,75.25,0,0,1-4.37-6.3c-.65-1.08,0-1.88,1.35-1.9S336.4,202.91,337.75,202.91Z" transform="translate(-283.45 -163.13)"/><path class="cls-2" d="M337.69,184.2a4,4,0,0,1,4.15,4.1,4.11,4.11,0,1,1-8.22,0A4.08,4.08,0,0,1,337.69,184.2Z" transform="translate(-283.45 -163.13)"/><path class="cls-2" d="M355.18,192a4,4,0,0,1-4.17,4,4.08,4.08,0,0,1-4-4.08,4.16,4.16,0,0,1,4.07-4.09A4.09,4.09,0,0,1,355.18,192Z" transform="translate(-283.45 -163.13)"/><path class="cls-2" d="M324.31,196a4,4,0,0,1-4-4,4.09,4.09,0,0,1,4.13-4.12,4.17,4.17,0,0,1,4.07,4.08A4.09,4.09,0,0,1,324.31,196Z" transform="translate(-283.45 -163.13)"/></svg>