<svg id="Layer_1" data-name="Layer 1" xmlns="http://www.w3.org/2000/svg" viewBox="0 0 110.5 110.5"><defs><style>.cls-1{fill:gray;}.cls-2{fill:#fff;}.cls-3{fill:#828282;}.cls-4{fill:none;stroke:gray;stroke-miterlimit:10;}</style></defs><path class="cls-1" d="M81,273.29c-30,0-54.55-24.56-54.58-54.7s24.48-54.79,54.47-54.81A54.76,54.76,0,1,1,81,273.29Z" transform="translate(-25.88 -163.28)"/><path d="M80.23,256.07l-36.73-49c5.36-8.58,12.54-14.64,22.3-17.34a11.79,11.79,0,0,1,3.14-.37c7.54,0,15.14-.52,22.62.16a27.25,27.25,0,0,1,17.5,8c2.79,2.89,5.33,6,8.12,9.23Z" transform="translate(-25.88 -163.28)"/><path class="cls-2" d="M117.18,206.75,80.23,256.07l-36.73-49c5.36-8.58,12.54-14.64,22.3-17.34a11.79,11.79,0,0,1,3.14-.37c7.54,0,15.14-.52,22.62.16a27.25,27.25,0,0,1,17.5,8C111.85,200.41,114.39,203.56,117.18,206.75ZM62.84,221.11l17.38,30.81c6-10.57,11.55-20.5,17.36-30.81ZM62,217H98.42c-2.35-4.18-4.39-8-6.66-11.67A3.88,3.88,0,0,0,89,203.85c-5.83-.12-11.67-.1-17.5,0A3.57,3.57,0,0,0,68.84,205C66.53,208.76,64.43,212.67,62,217Zm-2.48-21.44c9.54,7.74,20.21,5.21,30.32,5.11,3.64,0,7.25-2.77,10.87-4.26l-.24-1A50.81,50.81,0,0,0,59.55,195.51ZM47.32,207.29l10,7.71,7.88-11.6L54,198.11C51.69,201.27,49.6,204.15,47.32,207.29ZM103,215l10-7.71c-2.38-3.23-4.56-6.16-6.79-9.17l-11.12,5.37ZM52,215.69l16,21.94.8-.59C63.17,229.94,60.75,220.52,52,215.69Zm39.43,21.72.75.53,15.5-21.39-.79-.57C99.36,221.44,96.68,230.35,91.41,237.41Z" transform="translate(-25.88 -163.28)"/><path class="cls-1" d="M62.84,221.11H97.58c-5.81,10.31-11.41,20.24-17.36,30.81Z" transform="translate(-25.88 -163.28)"/><path class="cls-1" d="M62,217c2.4-4.28,4.5-8.19,6.81-12a3.57,3.57,0,0,1,2.64-1.14c5.83-.1,11.67-.12,17.5,0a3.88,3.88,0,0,1,2.78,1.43C94,209,96.07,212.77,98.42,217Z" transform="translate(-25.88 -163.28)"/><path class="cls-1" d="M59.55,195.51a50.81,50.81,0,0,1,41-.16l.24,1c-3.62,1.49-7.23,4.22-10.87,4.26C79.76,200.72,69.09,203.25,59.55,195.51Z" transform="translate(-25.88 -163.28)"/><path class="cls-3" d="M47.32,207.29c2.28-3.14,4.37-6,6.68-9.18l11.19,5.29L57.31,215Z" transform="translate(-25.88 -163.28)"/><path class="cls-1" d="M103,215l-7.9-11.51,11.12-5.37c2.23,3,4.41,5.94,6.79,9.17Z" transform="translate(-25.88 -163.28)"/><path class="cls-1" d="M52,215.69c8.77,4.83,11.19,14.25,16.79,21.35l-.8.59Z" transform="translate(-25.88 -163.28)"/><path class="cls-1" d="M91.41,237.41c5.27-7.06,8-16,15.46-21.43l.79.57-15.5,21.39Z" transform="translate(-25.88 -163.28)"/><circle class="cls-4" cx="55.25" cy="55.25" r="54.75"/></svg>