<svg id="Layer_1" data-name="Layer 1" xmlns="http://www.w3.org/2000/svg" viewBox="0 0 111.32 111.25"><defs><style>.cls-1,.cls-4{fill:gray;}.cls-2,.cls-3{fill:#fff;}.cls-2,.cls-3,.cls-4{stroke:#000;stroke-miterlimit:10;}.cls-2,.cls-4{stroke-width:0.24px;}.cls-3{stroke-width:0.12px;}</style></defs><path class="cls-1" d="M323.28,24.72a50.49,50.49,0,0,1,19.17,3.08,53.12,53.12,0,0,1,16.89,10,59.58,59.58,0,0,1,12,14.17,51.77,51.77,0,0,1,6.37,16.46,60.36,60.36,0,0,1,1.1,9.94,64.46,64.46,0,0,1-.47,9.52,50.77,50.77,0,0,1-6.69,20,58.62,58.62,0,0,1-11.07,13.58,53.32,53.32,0,0,1-23.06,12.69,57.76,57.76,0,0,1-10.71,1.64,58.78,58.78,0,0,1-10.36-.29,52.41,52.41,0,0,1-27-11,59.18,59.18,0,0,1-14.11-15.65,51.29,51.29,0,0,1-6.76-17.49,61.15,61.15,0,0,1-1-9.36,54.43,54.43,0,0,1,6.75-28.81,57.2,57.2,0,0,1,10.86-13.67,54.94,54.94,0,0,1,11.1-8.26,48.71,48.71,0,0,1,15.07-5.56c2.44-.44,4.92-.73,7.4-1C320.25,24.6,321.77,24.72,323.28,24.72Zm-32.52,24.1c.16.31.25.5.36.69q8.29,13.8,16.59,27.6a1.09,1.09,0,0,1,0,1.32q-8.18,13.74-16.31,27.5c-.1.17-.18.36-.3.62h.57q6.55,0,13.11,0a.94.94,0,0,0,1-.59c2-3.76,4-7.51,6.06-11.26,1-1.89,2-3.77,3.09-5.71.12.23.22.39.31.56Q319.59,97.78,324,106a.93.93,0,0,0,.94.59q6.49,0,13,0c.2,0,.41,0,.71,0-.17-.29-.28-.5-.39-.69q-8.17-13.77-16.35-27.54a.86.86,0,0,1,0-1q8.46-13.92,16.89-27.84c.09-.15.16-.33.29-.57-.32,0-.53,0-.74,0-4.32,0-8.65,0-13,0a1,1,0,0,0-1.05.65q-4.47,8.27-9,16.52c-.14.27-.29.52-.47.83-.09-.16-.15-.24-.19-.33q-4.59-8.51-9.15-17a1,1,0,0,0-1-.63c-4.31,0-8.62,0-12.93,0C291.34,48.77,291.11,48.8,290.76,48.82Zm59.45,40.74a25,25,0,0,0-2.74-.74,13.27,13.27,0,0,0-2.82-.14,4.19,4.19,0,0,0-4.24,3,14.31,14.31,0,0,0-.62,4.11,21.8,21.8,0,0,0,.39,6.45c.55,2.22,1.7,3.89,4.15,4.24a5.76,5.76,0,0,0,3.08-.26c1-.4,1.89-.91,2.87-1.4a9.84,9.84,0,0,1,.47,1,.8.8,0,0,0,.89.58c1.1,0,2.2,0,3.3,0,.61,0,.76-.19.75-.77,0-4.86,0-9.72,0-14.58,0-3.28,0-6.57,0-9.85,0-.47-.12-.67-.63-.66-1.41,0-2.83,0-4.25,0-.5,0-.63.17-.61.65,0,1,0,1.93,0,2.89Z" transform="translate(-267.54 -24.67)"/><path class="cls-2" d="M290.76,48.82c.35,0,.58,0,.8,0,4.31,0,8.62,0,12.93,0a1,1,0,0,1,1,.63q4.56,8.53,9.15,17c0,.09.1.17.19.33.18-.31.33-.56.47-.83q4.5-8.25,9-16.52a1,1,0,0,1,1.05-.65c4.33,0,8.66,0,13,0,.21,0,.42,0,.74,0-.13.24-.2.42-.29.57q-8.44,13.92-16.89,27.84a.86.86,0,0,0,0,1q8.19,13.75,16.35,27.54c.11.19.22.4.39.69-.3,0-.51,0-.71,0q-6.49,0-13,0A.93.93,0,0,1,324,106q-4.39-8.2-8.82-16.41c-.09-.17-.19-.33-.31-.56-1.06,1.94-2.07,3.82-3.09,5.71-2,3.75-4,7.5-6.06,11.26a.94.94,0,0,1-1,.59q-6.56,0-13.11,0h-.57c.12-.26.2-.45.3-.62q8.14-13.75,16.31-27.5a1.09,1.09,0,0,0,0-1.32q-8.31-13.78-16.59-27.6C291,49.32,290.92,49.13,290.76,48.82Z" transform="translate(-267.54 -24.67)"/><path class="cls-3" d="M350.21,89.56V84.07c0-1,0-1.93,0-2.89,0-.48.11-.66.61-.65,1.42,0,2.84,0,4.25,0,.51,0,.63.19.63.66,0,3.28,0,6.57,0,9.85,0,4.86,0,9.72,0,14.58,0,.58-.14.79-.75.77-1.1,0-2.2,0-3.3,0a.8.8,0,0,1-.89-.58,9.84,9.84,0,0,0-.47-1c-1,.49-1.9,1-2.87,1.4a5.76,5.76,0,0,1-3.08.26c-2.45-.35-3.6-2-4.15-4.24a21.8,21.8,0,0,1-.39-6.45,14.31,14.31,0,0,1,.62-4.11,4.19,4.19,0,0,1,4.24-3,13.27,13.27,0,0,1,2.82.14A25,25,0,0,1,350.21,89.56Zm0,7.65c0-1.15,0-2.29,0-3.43,0-.42-.14-.63-.52-.69-.76-.12-1.51-.27-2.27-.33-1.35-.11-1.81.23-2,1.65a44.77,44.77,0,0,0-.23,4.64,6.86,6.86,0,0,0,.34,1.84,1.33,1.33,0,0,0,1.06,1.09,4.56,4.56,0,0,0,3.22-.63.94.94,0,0,0,.35-.66C350.23,99.53,350.21,98.37,350.21,97.21Z" transform="translate(-267.54 -24.67)"/><path class="cls-4" d="M350.21,97.21c0,1.16,0,2.32,0,3.48a.94.94,0,0,1-.35.66,4.56,4.56,0,0,1-3.22.63,1.33,1.33,0,0,1-1.06-1.09,6.86,6.86,0,0,1-.34-1.84,44.77,44.77,0,0,1,.23-4.64c.17-1.42.63-1.76,2-1.65.76.06,1.51.21,2.27.33.38.06.53.27.52.69C350.19,94.92,350.21,96.06,350.21,97.21Z" transform="translate(-267.54 -24.67)"/></svg>